<svg xmlns="http://www.w3.org/2000/svg" id="additional-equipment" fill="none" viewBox="0 0 24 24">
<path d="M7.04753 17.7174C6.77139 17.7174 6.54753 17.9412 6.54753 18.2174C6.54753 18.4935 6.77139 18.7174 7.04753 18.7174V17.7174ZM11.6666 17.3861L11.1709 17.3205C11.1477 17.4959 11.2189 17.6705 11.3581 17.7797L11.6666 17.3861ZM11.6666 16.1694L11.3581 15.7759C11.2197 15.8844 11.1485 16.0576 11.1705 16.232L11.6666 16.1694ZM12.9808 15.1393L13.2893 15.5328C13.294 15.5291 13.2986 15.5254 13.3031 15.5216L12.9808 15.1393ZM13.0516 14.7394L12.6188 14.9899L12.6237 14.9981L13.0516 14.7394ZM11.8081 12.5901L12.241 12.3397L12.2374 12.3338L11.8081 12.5901ZM11.4265 12.4572L11.2495 11.9894L11.2399 11.9933L11.4265 12.4572ZM9.88075 13.0789L9.57362 13.4735C9.71411 13.5828 9.90216 13.6092 10.0673 13.5428L9.88075 13.0789ZM8.8324 12.4658L8.33725 12.5353C8.36179 12.7102 8.47678 12.8591 8.63977 12.9272L8.8324 12.4658ZM8.60188 10.8225L9.09703 10.753C9.09593 10.7452 9.09464 10.7373 9.09317 10.7295L8.60188 10.8225ZM5.49319 10.8321L5.00086 10.7448C4.99981 10.7507 4.99887 10.7566 4.99804 10.7626L5.49319 10.8321ZM5.26266 12.4744L5.45948 12.934C5.62034 12.8652 5.73349 12.7172 5.75781 12.5439L5.26266 12.4744ZM4.21432 13.0875L4.02773 13.5514C4.19291 13.6179 4.38096 13.5914 4.52145 13.4821L4.21432 13.0875ZM2.66858 12.4658L2.85521 12.0018L2.84448 11.9978L2.66858 12.4658ZM2.28692 12.5988L1.85759 12.3424L1.85409 12.3484L2.28692 12.5988ZM1.04345 14.749L1.47146 15.0077L1.47628 14.9993L1.04345 14.749ZM1.11423 15.1479L0.791966 15.5302C0.796444 15.5339 0.800988 15.5376 0.805596 15.5413L1.11423 15.1479ZM2.42849 16.179L2.92417 16.2446C2.94737 16.0693 2.87625 15.8948 2.73712 15.7856L2.42849 16.179ZM2.42849 17.3957L2.73695 17.7892C2.87533 17.6808 2.94657 17.5076 2.92456 17.3331L2.42849 17.3957ZM1.11423 18.4259L0.805773 18.0324C0.801105 18.036 0.796502 18.0398 0.791966 18.0436L1.11423 18.4259ZM1.04345 18.8257L1.47629 18.5753L1.47219 18.5685L1.04345 18.8257ZM2.28692 20.975L1.8541 21.2254L1.85763 21.2314L2.28692 20.975ZM2.66858 21.108L2.84453 21.5761L2.85516 21.5718L2.66858 21.108ZM4.21432 20.4862L4.52145 20.0917C4.38096 19.9823 4.19291 19.9559 4.02773 20.0223L4.21432 20.4862ZM5.26266 21.0994L5.75781 21.0299C5.73328 20.855 5.61828 20.706 5.4553 20.638L5.26266 21.0994ZM5.49319 22.7427L4.99803 22.8121C4.99914 22.82 5.00042 22.8278 5.0019 22.8356L5.49319 22.7427ZM8.60188 22.7331L9.09421 22.8203C9.09526 22.8144 9.0962 22.8085 9.09703 22.8026L8.60188 22.7331ZM8.8324 21.0898L8.63559 20.6302C8.47471 20.699 8.36156 20.847 8.33725 21.0203L8.8324 21.0898ZM9.88075 20.4776L10.0673 20.0137C9.90216 19.9473 9.71411 19.9737 9.57362 20.0831L9.88075 20.4776ZM11.4265 21.0994L11.2399 21.5633L11.2495 21.567L11.4265 21.0994ZM11.8081 20.9664L12.2375 21.2228L12.241 21.2167L11.8081 20.9664ZM13.0516 18.8161L12.6236 18.5575L12.6188 18.5658L13.0516 18.8161ZM12.9808 18.4163L13.3049 18.0356C13.2998 18.0312 13.2946 18.027 13.2893 18.0228L12.9808 18.4163ZM7.04753 17.7174C6.53167 17.7174 6.11275 17.2985 6.11275 16.7826H5.11275C5.11275 17.8508 5.97939 18.7174 7.04753 18.7174V17.7174ZM6.11275 16.7826C6.11275 16.2668 6.53167 15.8478 7.04753 15.8478V14.8478C5.97939 14.8478 5.11275 15.7145 5.11275 16.7826H6.11275ZM7.04753 15.8478C7.56339 15.8478 7.98231 16.2668 7.98231 16.7826H8.98231C8.98231 15.7145 8.11567 14.8478 7.04753 14.8478V15.8478ZM7.98231 16.7826C7.98231 17.2985 7.56339 17.7174 7.04753 17.7174V18.7174C8.11567 18.7174 8.98231 17.8508 8.98231 16.7826H7.98231ZM12.1623 17.4517C12.1899 17.2428 12.2106 17.016 12.2106 16.7826H11.2106C11.2106 16.9586 11.1949 17.1392 11.1709 17.3205L12.1623 17.4517ZM12.2106 16.7826C12.2106 16.5491 12.1899 16.3226 12.1626 16.1069L11.1705 16.232C11.1949 16.4256 11.2106 16.6067 11.2106 16.7826H12.2106ZM11.975 16.563L13.2893 15.5328L12.6724 14.7458L11.3581 15.7759L11.975 16.563ZM13.3031 15.5216C13.5927 15.2775 13.6965 14.8399 13.4795 14.4808L12.6237 14.9981C12.5674 14.9049 12.6005 14.8059 12.6586 14.757L13.3031 15.5216ZM13.4844 14.4891L12.2409 12.3398L11.3754 12.8405L12.6188 14.9898L13.4844 14.4891ZM12.2374 12.3338C12.032 11.9898 11.6143 11.8515 11.2495 11.9895L11.6034 12.9248C11.5218 12.9557 11.4255 12.9246 11.3789 12.8465L12.2374 12.3338ZM11.2399 11.9933L9.69416 12.615L10.0673 13.5428L11.6131 12.9211L11.2399 11.9933ZM10.1879 12.6844C9.83439 12.4092 9.44978 12.1817 9.02504 12.0044L8.63977 12.9272C8.98024 13.0693 9.28815 13.2513 9.57362 13.4735L10.1879 12.6844ZM9.32755 12.3963L9.09703 10.753L8.10673 10.8919L8.33725 12.5353L9.32755 12.3963ZM9.09317 10.7295C9.02285 10.3579 8.68852 10.0652 8.29101 10.0652V11.0652C8.23779 11.0652 8.19711 11.0451 8.17136 11.0235C8.1465 11.0026 8.12047 10.9677 8.1106 10.9154L9.09317 10.7295ZM8.29101 10.0652H5.80405V11.0652H8.29101V10.0652ZM5.80405 10.0652C5.39857 10.0652 5.06785 10.3668 5.00086 10.7448L5.98551 10.9193C5.97789 10.9623 5.95607 10.9969 5.92846 11.0207C5.9006 11.0447 5.8578 11.0652 5.80405 11.0652V10.0652ZM4.99804 10.7626L4.76752 12.4049L5.75781 12.5439L5.98833 10.9016L4.99804 10.7626ZM5.06585 12.0148C4.65694 12.1899 4.26341 12.4157 3.90718 12.693L4.52145 13.4821C4.80418 13.262 5.1223 13.0784 5.45948 12.934L5.06585 12.0148ZM4.4009 12.6237L2.85516 12.0019L2.48199 12.9297L4.02773 13.5514L4.4009 12.6237ZM2.84448 11.9978C2.47942 11.8606 2.0631 11.9983 1.85763 12.3424L2.71622 12.8551C2.66953 12.9333 2.57269 12.9639 2.49267 12.9338L2.84448 11.9978ZM1.85409 12.3484L0.61061 14.4987L1.47628 14.9993L2.71976 12.8491L1.85409 12.3484ZM0.615517 14.4904C0.398249 14.8499 0.502832 15.2864 0.791966 15.5302L1.43649 14.7656C1.49415 14.8142 1.52795 14.914 1.47138 15.0076L0.615517 14.4904ZM0.805596 15.5413L2.11986 16.5724L2.73712 15.7856L1.42286 14.7545L0.805596 15.5413ZM1.93281 16.1134C1.90516 16.3223 1.88449 16.5492 1.88449 16.7826H2.88449C2.88449 16.6066 2.90017 16.4259 2.92417 16.2446L1.93281 16.1134ZM1.88449 16.7826C1.88449 17.0161 1.9052 17.2425 1.93242 17.4583L2.92456 17.3331C2.90013 17.1395 2.88449 16.9585 2.88449 16.7826H1.88449ZM2.12003 17.0022L0.805773 18.0324L1.42268 18.8194L2.73695 17.7892L2.12003 17.0022ZM0.791966 18.0436C0.501977 18.288 0.399302 18.724 0.6147 19.083L1.47219 18.5685C1.52689 18.6596 1.495 18.7588 1.43649 18.8082L0.791966 18.0436ZM0.610658 19.0761L1.85414 21.2254L2.71971 20.7246L1.47623 18.5753L0.610658 19.0761ZM1.85763 21.2314C2.0631 21.5755 2.47942 21.7132 2.84448 21.576L2.49267 20.6399C2.57269 20.6099 2.66953 20.6405 2.71622 20.7187L1.85763 21.2314ZM2.85516 21.5718L4.4009 20.9501L4.02773 20.0223L2.48199 20.6441L2.85516 21.5718ZM3.90718 20.8808C4.26068 21.156 4.64529 21.3834 5.07003 21.5608L5.4553 20.638C5.11482 20.4958 4.80691 20.3139 4.52145 20.0917L3.90718 20.8808ZM4.76751 21.1688L4.99803 22.8121L5.98834 22.6732L5.75781 21.0299L4.76751 21.1688ZM5.0019 22.8356C5.07221 23.2073 5.40654 23.5 5.80405 23.5V22.5C5.85728 22.5 5.89796 22.52 5.9237 22.5416C5.94857 22.5625 5.97459 22.5975 5.98447 22.6497L5.0019 22.8356ZM5.80405 23.5H8.29101V22.5H5.80405V23.5ZM8.29101 23.5C8.6965 23.5 9.02722 23.1984 9.09421 22.8203L8.10955 22.6459C8.11717 22.6028 8.139 22.5683 8.16661 22.5445C8.19446 22.5205 8.23727 22.5 8.29101 22.5V23.5ZM9.09703 22.8026L9.32755 21.1593L8.33725 21.0203L8.10673 22.6636L9.09703 22.8026ZM9.02922 21.5494C9.43746 21.3746 9.83114 21.1499 10.1879 20.8722L9.57362 20.0831C9.2914 20.3028 8.97343 20.4855 8.63559 20.6302L9.02922 21.5494ZM9.69416 20.9415L11.2399 21.5632L11.6131 20.6355L10.0673 20.0137L9.69416 20.9415ZM11.2495 21.567C11.6143 21.705 12.032 21.5668 12.2374 21.2227L11.3789 20.7101C11.4255 20.6319 11.5218 20.6008 11.6034 20.6317L11.2495 21.567ZM12.241 21.2167L13.4845 19.0664L12.6188 18.5658L11.3753 20.7161L12.241 21.2167ZM13.4795 19.0747C13.6973 18.7145 13.5913 18.2793 13.3049 18.0356L12.6567 18.7971C12.6019 18.7504 12.5667 18.6519 12.6237 18.5575L13.4795 19.0747ZM13.2893 18.0228L11.975 16.9926L11.3581 17.7797L12.6724 18.8098L13.2893 18.0228Z" fill="currentColor"/>
<path d="M16.6127 8.15217C16.3366 8.15217 16.1127 8.37603 16.1127 8.65217C16.1127 8.92832 16.3366 9.15217 16.6127 9.15217V8.15217ZM21.2318 7.82096L20.7361 7.75535C20.7129 7.93074 20.7841 8.10533 20.9233 8.21447L21.2318 7.82096ZM21.2318 6.60426L20.9233 6.21074C20.7849 6.31922 20.7137 6.4924 20.7357 6.66685L21.2318 6.60426ZM22.546 5.57409L22.8545 5.9676C22.8591 5.96394 22.8637 5.9602 22.8683 5.95638L22.546 5.57409ZM22.6168 5.17426L22.1839 5.4247L22.1889 5.43287L22.6168 5.17426ZM21.3733 3.02496L21.8062 2.77454L21.8026 2.76862L21.3733 3.02496ZM20.9917 2.892L20.8147 2.42426L20.8051 2.42812L20.9917 2.892ZM19.4459 3.51374L19.1388 3.90829C19.2793 4.01765 19.4673 4.04406 19.6325 3.97762L19.4459 3.51374ZM18.3976 2.90061L17.9024 2.97007C17.927 3.14498 18.042 3.29396 18.205 3.36201L18.3976 2.90061ZM18.1671 1.2573L18.6622 1.18784C18.6611 1.17999 18.6598 1.17216 18.6584 1.16436L18.1671 1.2573ZM15.0584 1.26687L14.566 1.17962C14.565 1.18552 14.5641 1.19144 14.5632 1.19737L15.0584 1.26687ZM14.8278 2.90922L15.0247 3.36885C15.1855 3.29997 15.2987 3.15201 15.323 2.97872L14.8278 2.90922ZM13.7795 3.52235L13.5929 3.98623C13.7581 4.05267 13.9461 4.02626 14.0866 3.9169L13.7795 3.52235ZM12.2338 2.90061L12.4204 2.43661L12.4097 2.43257L12.2338 2.90061ZM11.8521 3.03357L11.4228 2.7772L11.4193 2.78326L11.8521 3.03357ZM10.6086 5.18383L11.0366 5.44248L11.0415 5.43413L10.6086 5.18383ZM10.6794 5.5827L10.3572 5.96499C10.3616 5.96876 10.3662 5.97246 10.3708 5.97607L10.6794 5.5827ZM11.9937 6.61383L12.4894 6.67943C12.5126 6.50413 12.4414 6.3296 12.3023 6.22045L11.9937 6.61383ZM11.9937 7.83052L12.3021 8.22404C12.4405 8.11557 12.5118 7.94238 12.4897 7.76793L11.9937 7.83052ZM10.6794 8.8607L10.371 8.46718C10.3663 8.47084 10.3617 8.47458 10.3572 8.4784L10.6794 8.8607ZM10.6086 9.26052L11.0415 9.0101L11.0374 9.00327L10.6086 9.26052ZM11.8521 11.4098L11.4193 11.6602L11.4228 11.6662L11.8521 11.4098ZM12.2338 11.5428L12.4097 12.0109L12.4203 12.0067L12.2338 11.5428ZM13.7795 10.921L14.0866 10.5265C13.9461 10.4171 13.7581 10.3907 13.5929 10.4572L13.7795 10.921ZM14.8278 11.5342L15.323 11.4647C15.2985 11.2898 15.1835 11.1408 15.0205 11.0728L14.8278 11.5342ZM15.0584 13.1775L14.5632 13.2469C14.5643 13.2548 14.5656 13.2626 14.5671 13.2704L15.0584 13.1775ZM18.1671 13.1679L18.6594 13.2552C18.6604 13.2492 18.6614 13.2433 18.6622 13.2374L18.1671 13.1679ZM18.3976 11.5246L18.2008 11.065C18.0399 11.1339 17.9267 11.2818 17.9024 11.4551L18.3976 11.5246ZM19.4459 10.9124L19.6325 10.4486C19.4673 10.3821 19.2793 10.4085 19.1388 10.5179L19.4459 10.9124ZM20.9917 11.5342L20.805 11.9982L20.8147 12.0018L20.9917 11.5342ZM21.3733 11.4012L21.8027 11.6576L21.8062 11.6515L21.3733 11.4012ZM22.6168 9.25096L22.1888 8.9923L22.184 9.00065L22.6168 9.25096ZM22.546 8.85113L22.8701 8.47039C22.865 8.46603 22.8598 8.46177 22.8545 8.45761L22.546 8.85113ZM16.6127 8.15217C16.0969 8.15217 15.6779 7.73325 15.6779 7.21739H14.6779C14.6779 8.28553 15.5446 9.15217 16.6127 9.15217V8.15217ZM15.6779 7.21739C15.6779 6.70153 16.0969 6.28261 16.6127 6.28261V5.28261C15.5446 5.28261 14.6779 6.14925 14.6779 7.21739H15.6779ZM16.6127 6.28261C17.1286 6.28261 17.5475 6.70153 17.5475 7.21739H18.5475C18.5475 6.14925 17.6809 5.28261 16.6127 5.28261V6.28261ZM17.5475 7.21739C17.5475 7.73325 17.1286 8.15217 16.6127 8.15217V9.15217C17.6809 9.15217 18.5475 8.28553 18.5475 7.21739H17.5475ZM21.7274 7.88656C21.7551 7.67763 21.7758 7.4508 21.7758 7.21739H20.7758C20.7758 7.39337 20.7601 7.57402 20.7361 7.75535L21.7274 7.88656ZM21.7758 7.21739C21.7758 6.98387 21.7551 6.75745 21.7278 6.54167L20.7357 6.66685C20.7601 6.86046 20.7758 7.04152 20.7758 7.21739H21.7758ZM21.5402 6.99778L22.8545 5.9676L22.2376 5.18057L20.9233 6.21074L21.5402 6.99778ZM22.8683 5.95638C23.1578 5.71229 23.2617 5.27474 23.0447 4.91566L22.1889 5.43287C22.1326 5.3397 22.1657 5.24075 22.2238 5.1918L22.8683 5.95638ZM23.0496 4.92387L21.8061 2.77457L20.9405 3.27535L22.184 5.42465L23.0496 4.92387ZM21.8026 2.76862C21.5972 2.42458 21.1795 2.28633 20.8147 2.42436L21.1686 3.35964C21.087 3.39054 20.9907 3.35942 20.944 3.2813L21.8026 2.76862ZM20.8051 2.42812L19.2593 3.04986L19.6325 3.97762L21.1783 3.35588L20.8051 2.42812ZM19.7531 3.11919C19.3996 2.84401 19.015 2.61654 18.5902 2.43921L18.205 3.36201C18.5454 3.50416 18.8533 3.68607 19.1388 3.90829L19.7531 3.11919ZM18.8927 2.83115L18.6622 1.18784L17.6719 1.32676L17.9024 2.97007L18.8927 2.83115ZM18.6584 1.16436C18.588 0.792708 18.2537 0.5 17.8562 0.5V1.5C17.803 1.5 17.7623 1.47996 17.7365 1.45832C17.7117 1.43742 17.6857 1.40247 17.6758 1.35025L18.6584 1.16436ZM17.8562 0.5H15.3692V1.5H17.8562V0.5ZM15.3692 0.5C14.9638 0.5 14.633 0.801609 14.566 1.17962L15.5507 1.35412C15.5431 1.39712 15.5213 1.43167 15.4936 1.45547C15.4658 1.47948 15.423 1.5 15.3692 1.5V0.5ZM14.5632 1.19737L14.3327 2.83972L15.323 2.97872L15.5535 1.33637L14.5632 1.19737ZM14.631 2.44958C14.2221 2.62468 13.8286 2.8505 13.4724 3.1278L14.0866 3.9169C14.3694 3.69681 14.6875 3.51323 15.0247 3.36885L14.631 2.44958ZM13.9661 3.05847L12.4203 2.43673L12.0472 3.36449L13.5929 3.98623L13.9661 3.05847ZM12.4097 2.43257C12.0446 2.29537 11.6283 2.43313 11.4228 2.77723L12.2814 3.2899C12.2347 3.36809 12.1379 3.39872 12.0579 3.36864L12.4097 2.43257ZM11.4193 2.78326L10.1758 4.93352L11.0415 5.43413L12.2849 3.28387L11.4193 2.78326ZM10.1807 4.92522C9.96343 5.28475 10.068 5.72125 10.3572 5.96499L11.0017 5.2004C11.0593 5.24901 11.0931 5.34882 11.0366 5.44243L10.1807 4.92522ZM10.3708 5.97607L11.685 7.0072L12.3023 6.22045L10.988 5.18932L10.3708 5.97607ZM11.498 6.54822C11.4703 6.75715 11.4497 6.98398 11.4497 7.21739H12.4497C12.4497 7.04141 12.4654 6.86076 12.4894 6.67943L11.498 6.54822ZM11.4497 7.21739C11.4497 7.45091 11.4704 7.67733 11.4976 7.89311L12.4897 7.76793C12.4653 7.57432 12.4497 7.39326 12.4497 7.21739H11.4497ZM11.6852 7.43701L10.371 8.46718L10.9879 9.25421L12.3021 8.22404L11.6852 7.43701ZM10.3572 8.4784C10.0672 8.72286 9.96449 9.15877 10.1799 9.51777L11.0374 9.00327C11.0921 9.09444 11.0602 9.19366 11.0017 9.24299L10.3572 8.4784ZM10.1758 9.51091L11.4193 11.6602L12.2849 11.1594L11.0414 9.01013L10.1758 9.51091ZM11.4228 11.6662C11.6283 12.0103 12.0446 12.148 12.4097 12.0108L12.0579 11.0747C12.1379 11.0447 12.2347 11.0753 12.2814 11.1535L11.4228 11.6662ZM12.4203 12.0067L13.9661 11.3849L13.5929 10.4572L12.0472 11.0789L12.4203 12.0067ZM13.4724 11.3156C13.8259 11.5908 14.2105 11.8182 14.6352 11.9956L15.0205 11.0728C14.68 10.9306 14.3721 10.7487 14.0866 10.5265L13.4724 11.3156ZM14.3327 11.6036L14.5632 13.2469L15.5535 13.108L15.323 11.4647L14.3327 11.6036ZM14.5671 13.2704C14.6374 13.6421 14.9717 13.9348 15.3692 13.9348V12.9348C15.4225 12.9348 15.4631 12.9548 15.4889 12.9765C15.5138 12.9974 15.5398 13.0323 15.5497 13.0845L14.5671 13.2704ZM15.3692 13.9348H17.8562V12.9348H15.3692V13.9348ZM17.8562 13.9348C18.2617 13.9348 18.5924 13.6332 18.6594 13.2552L17.6747 13.0807C17.6824 13.0377 17.7042 13.0031 17.7318 12.9793C17.7596 12.9553 17.8025 12.9348 17.8562 12.9348V13.9348ZM18.6622 13.2374L18.8927 11.5941L17.9024 11.4551L17.6719 13.0985L18.6622 13.2374ZM18.5944 11.9842C19.0027 11.8094 19.3963 11.5847 19.7531 11.307L19.1388 10.5179C18.8566 10.7376 18.5386 10.9203 18.2008 11.065L18.5944 11.9842ZM19.2593 11.3763L20.8051 11.9981L21.1783 11.0703L19.6325 10.4486L19.2593 11.3763ZM20.8147 12.0018C21.1795 12.1398 21.5972 12.0016 21.8026 11.6576L20.944 11.1449C20.9907 11.0668 21.087 11.0356 21.1686 11.0665L20.8147 12.0018ZM21.8062 11.6515L23.0496 9.50126L22.184 9.00065L20.9405 11.1509L21.8062 11.6515ZM23.0447 9.50956C23.2624 9.14932 23.1564 8.71413 22.8701 8.47039L22.2219 9.23187C22.1671 9.18518 22.1319 9.08668 22.1889 8.99235L23.0447 9.50956ZM22.8545 8.45761L21.5402 7.42744L20.9233 8.21447L22.2376 9.24465L22.8545 8.45761Z" fill="currentColor"/>
</svg>