<svg xmlns="http://www.w3.org/2000/svg" id="calendar" viewBox="0 0 24 24" fill="transparent">
<path d="M7.21739 12.8696C7.21739 11.6687 8.19043 10.6957 9.3913 10.6957C10.5922 10.6957 11.5652 11.6687 11.5652 12.8696C11.5652 14.0704 10.5922 15.0435 9.3913 15.0435M9.3913 15.0435H8.08696M9.3913 15.0435C10.5922 15.0435 11.5652 16.0165 11.5652 17.2174C11.5652 18.4183 10.5922 19.3913 9.3913 19.3913C8.19043 19.3913 7.21739 18.4183 7.21739 17.2174M14.1739 12.4348L15.913 10.6957V19.3913M19.3913 3.73913C20.8322 3.73913 22 4.90696 22 6.34783V19.3913C22 20.8322 20.8322 22 19.3913 22H4.6087C3.16783 22 2 20.8322 2 19.3913V6.34783C2 4.90696 3.16783 3.73913 4.6087 3.73913M8.08696 3.73913H15.913M6.34783 2V5.47826M17.6522 2V5.47826M2 8.08696H22" stroke="#A6B7BE" stroke-linecap="round" stroke-linejoin="round"/>
</svg>