<?xml version="1.0"?>
<svg xmlns="http://www.w3.org/2000/svg" xmlns:xlink="http://www.w3.org/1999/xlink" xmlns:svgjs="http://svgjs.com/svgjs" version="1.1" width="512" height="512" x="0" y="0" viewBox="0 0 512 512" style="enable-background:new 0 0 512 512" xml:space="preserve"><g><g xmlns="http://www.w3.org/2000/svg"><g><path d="m256.079 116.703c-36.307 0-70.825 17.498-92.333 46.806-2.187 2.981-2.506 6.884-.831 10.186 1.677 3.307 5.018 5.359 8.721 5.359h.012l168.724-.218c3.708-.004 7.05-2.065 8.721-5.379 1.667-3.307 1.338-7.21-.857-10.185-21.513-29.159-55.964-46.569-92.157-46.569zm-73.464 47.372c18.741-20.458 45.492-32.407 73.464-32.407 27.872 0 54.558 11.879 73.289 32.218z" data-original="#000000" style=""/><path d="m162.915 338.303c-1.675 3.302-1.356 7.206.831 10.187 21.508 29.308 56.025 46.805 92.333 46.805 36.193 0 70.644-17.408 92.157-46.568 2.196-2.976 2.524-6.88.857-10.187-1.672-3.315-5.013-5.375-8.719-5.379l-168.726-.218c-.006 0-.008 0-.012 0-3.704.001-7.045 2.054-8.721 5.36zm166.453 9.81c-18.73 20.339-45.417 32.218-73.289 32.218-27.972 0-54.724-11.95-73.465-32.407z" data-original="#000000" style=""/><path d="m494.849 193.79h-30.991c.227-1.162.599-2.313 1.13-3.429 8.192-17.206 7.402-37.318-2.115-53.799-9.515-16.482-26.537-27.223-45.534-28.732-7.069-.561-12.608-6.1-13.169-13.169-1.509-18.995-12.25-36.017-28.731-45.534-16.482-9.516-36.594-10.307-53.799-2.115-6.405 3.047-13.969 1.021-17.991-4.821-10.805-15.697-28.618-25.068-47.649-25.068s-36.844 9.37-47.649 25.067c-4.02 5.842-11.587 7.868-17.991 4.821-17.205-8.192-37.318-7.401-53.799 2.115-16.482 9.517-27.222 26.538-28.731 45.534-.561 7.069-6.1 12.608-13.169 13.169-18.996 1.509-36.019 12.25-45.534 28.732-9.517 16.481-10.307 36.593-2.115 53.799.531 1.116.891 2.268 1.12 3.429h-30.981c-9.457.001-17.151 7.695-17.151 17.152v90.118c0 9.457 7.694 17.151 17.151 17.151h30.986c-.228 1.161-.594 2.313-1.125 3.429-8.192 17.206-7.402 37.318 2.115 53.799 9.515 16.482 26.537 27.223 45.534 28.732 7.069.561 12.608 6.1 13.169 13.169 1.509 18.995 12.25 36.017 28.731 45.534 16.485 9.516 36.595 10.306 53.799 2.115 6.406-3.047 13.969-1.022 17.991 4.821 10.805 15.697 28.617 25.067 47.649 25.067s36.844-9.371 47.649-25.067c4.022-5.842 11.589-7.866 17.991-4.821 17.206 8.194 37.317 7.4 53.799-2.115 16.482-9.517 27.222-26.538 28.731-45.534.561-7.069 6.1-12.608 13.169-13.169 18.996-1.509 36.019-12.25 45.534-28.732 9.517-16.481 10.307-36.593 2.115-53.799-.531-1.116-.894-2.268-1.122-3.429h30.982c9.457 0 17.151-7.694 17.151-17.151v-90.118c.001-9.457-7.693-17.151-17.15-17.151zm-432.762-49.746c7.053-12.217 19.672-20.178 33.759-21.297 14.442-1.147 25.756-12.461 26.903-26.903 1.119-14.085 9.08-26.705 21.296-33.759 12.216-7.053 27.127-7.636 39.884-1.564 13.084 6.23 28.537 2.086 36.75-9.846 8.012-11.64 21.217-18.588 35.322-18.588s27.31 6.949 35.322 18.588c8.214 11.932 23.671 16.075 36.75 9.846 12.758-6.073 27.668-5.489 39.884 1.564 12.216 7.054 20.177 19.674 21.296 33.759 1.146 14.442 12.461 25.756 26.903 26.903 14.086 1.119 26.706 9.08 33.759 21.297 7.054 12.215 7.637 27.125 1.564 39.884-1.52 3.192-2.406 6.526-2.726 9.862h-32.474c-9.724-25.037-25.268-47.747-45.703-66.017-3.08-2.754-7.811-2.491-10.565.59s-2.49 7.811.591 10.565c17.172 15.353 30.545 34.146 39.491 54.862h-288.216c24.138-55.707 79.648-94.782 144.123-94.782 27.3 0 54.183 7.112 77.743 20.569 3.588 2.048 8.158.802 10.208-2.786s.802-8.159-2.786-10.208c-25.817-14.745-55.266-22.54-85.165-22.54-72.889 0-135.323 45.588-160.307 109.747h-32.44c-.321-3.336-1.21-6.669-2.73-9.862-6.074-12.759-5.49-27.668 1.564-39.884zm387.826 223.912c-7.053 12.217-19.672 20.178-33.759 21.297-14.442 1.147-25.756 12.461-26.903 26.903-1.119 14.085-9.08 26.705-21.296 33.759-12.216 7.051-27.127 7.636-39.884 1.564-13.082-6.227-28.536-2.085-36.75 9.846-8.012 11.64-21.217 18.588-35.322 18.588s-27.31-6.948-35.322-18.588c-5.648-8.204-14.719-12.725-24.088-12.725-4.257 0-8.576.933-12.662 2.879-12.758 6.074-27.667 5.489-39.884-1.564-12.216-7.054-20.177-19.674-21.296-33.759-1.146-14.442-12.461-25.756-26.903-26.903-14.086-1.119-26.706-9.08-33.759-21.297-7.054-12.215-7.637-27.125-1.564-39.884 1.52-3.192 2.412-6.526 2.733-9.862h32.447c24.987 64.156 87.412 109.746 160.299 109.746 72.889 0 135.322-45.589 160.305-109.746h32.436c.32 3.335 1.216 6.669 2.736 9.862 6.074 12.759 5.49 27.668-1.564 39.884zm47.122-66.897c0 1.205-.981 2.186-2.186 2.186h-320.242c-4.133 0-7.482 3.35-7.482 7.482s3.35 7.482 7.482 7.482h225.511c-24.138 55.707-79.644 94.782-144.118 94.782-64.476 0-119.99-39.073-144.127-94.781h27.639c4.133 0 7.482-3.35 7.482-7.482s-3.35-7.482-7.482-7.482h-122.361c-1.205 0-2.186-.981-2.186-2.186v-90.118c0-1.205.981-2.186 2.186-2.186h477.698c1.205 0 2.186.981 2.186 2.186z" data-original="#000000" style=""/><path d="m280.326 218.953c-4.133 0-7.482 3.35-7.482 7.482v59.13c0 4.133 3.35 7.482 7.482 7.482s7.482-3.35 7.482-7.482v-59.13c0-4.133-3.35-7.482-7.482-7.482z" data-original="#000000" style=""/><path d="m357.984 218.953c-4.133 0-7.482 3.35-7.482 7.482v59.13c0 4.133 3.35 7.482 7.482 7.482s7.482-3.35 7.482-7.482v-59.13c.001-4.133-3.349-7.482-7.482-7.482z" data-original="#000000" style=""/><path d="m332.367 234.351c4.133 0 7.482-3.35 7.482-7.482 0-4.133-3.35-7.482-7.482-7.482h-23.789c-4.133 0-7.482 3.349-7.482 7.482v58.696c0 4.133 3.349 7.482 7.482 7.482s7.482-3.35 7.482-7.482v-22.422h14.417c4.133 0 7.482-3.349 7.482-7.482s-3.35-7.482-7.482-7.482h-14.417v-13.827h16.307z" data-original="#000000" style=""/><path d="m139.512 234.457c4.133 0 7.482-3.35 7.482-7.482 0-4.133-3.35-7.482-7.482-7.482h-24.688c-4.133 0-7.482 3.349-7.482 7.482v58.59c0 4.133 3.35 7.482 7.482 7.482h24.688c4.133 0 7.482-3.35 7.482-7.482 0-4.133-3.35-7.482-7.482-7.482h-17.205v-14.33h15.385c4.133 0 7.482-3.349 7.482-7.483 0-4.133-3.35-7.482-7.482-7.482h-15.385v-14.331z" data-original="#000000" style=""/><path d="m408.289 234.457c4.133 0 7.483-3.35 7.483-7.482 0-4.133-3.35-7.482-7.483-7.482h-24.687c-4.133 0-7.482 3.349-7.482 7.482v58.59c0 4.133 3.35 7.482 7.482 7.482h24.687c4.133 0 7.483-3.35 7.483-7.482 0-4.133-3.35-7.482-7.483-7.482h-17.205v-14.33h15.385c4.133 0 7.482-3.349 7.482-7.483 0-4.133-3.35-7.482-7.482-7.482h-15.385v-14.331z" data-original="#000000" style=""/><path d="m450.159 220.702h-16.252c-1.986 0-3.892.79-5.296 2.197-1.403 1.406-2.19 3.313-2.186 5.3v.043.002s.051 57.367.143 57.836c.125 1.805.893 3.512 2.186 4.795 1.402 1.391 3.296 2.172 5.271 2.172h.028c.491-.002 12.08-.047 16.713-.128 17.411-.305 30.048-15.464 30.048-36.045-.001-21.635-12.32-36.172-30.655-36.172zm.345 57.255c-2.079.036-5.7.066-9.023.087-.021-6.764-.05-16.378-.05-21.232 0-4.062-.017-14.103-.028-21.144h8.756c14.558 0 15.689 16.232 15.689 21.207 0 14.378-7.707 20.948-15.344 21.082z" data-original="#000000" style=""/><path d="m91.667 271.484c-3.167-2.656-7.887-2.239-10.542.927-.51.609-1.062 1.179-1.642 1.695-2.962 2.638-6.747 3.976-11.249 3.976-12.177 0-22.082-9.906-22.082-22.082s9.905-22.083 22.082-22.083c4.425 0 8.693 1.303 12.341 3.768 3.425 2.312 8.076 1.413 10.389-2.012 2.313-3.424 1.413-8.075-2.012-10.389-6.131-4.143-13.295-6.332-20.718-6.332-20.428 0-37.047 16.619-37.047 37.048 0 20.428 16.619 37.047 37.047 37.047 8.167 0 15.499-2.685 21.202-7.766 1.121-.998 2.183-2.094 3.158-3.256 2.654-3.167 2.239-7.886-.927-10.541z" data-original="#000000" style=""/><path d="m254.294 218.953h-32.654c-4.133 0-7.482 3.35-7.482 7.482s3.35 7.482 7.482 7.482h8.778v51.647c0 4.133 3.35 7.482 7.482 7.482s7.482-3.35 7.482-7.482v-51.647h8.911c4.133 0 7.482-3.35 7.482-7.482s-3.348-7.482-7.481-7.482z" data-original="#000000" style=""/><path d="m206.928 241.802c0-12.599-10.641-22.85-23.72-22.85h-15.712c-.003 0-.006 0-.01 0-.003 0-.006 0-.01 0-4.133 0-7.483 3.35-7.483 7.482v59.13c0 4.133 3.35 7.482 7.483 7.482s7.482-3.35 7.482-7.482v-16.496l18.87 21.44c1.479 1.681 3.544 2.539 5.62 2.539 1.755 0 3.519-.615 4.94-1.866 3.102-2.73 3.403-7.458.673-10.56l-14.931-16.965c9.713-2.86 16.798-11.574 16.798-21.854zm-23.72 7.885c-1.91 0-5.135.013-8.163.027-.016-2.951-.036-12.703-.045-15.797h8.208c4.746 0 8.755 3.611 8.755 7.885s-4.009 7.885-8.755 7.885z" data-original="#000000" style=""/></g></g></g></svg>
