<?xml version="1.0"?>
<svg xmlns="http://www.w3.org/2000/svg" xmlns:xlink="http://www.w3.org/1999/xlink" xmlns:svgjs="http://svgjs.com/svgjs" version="1.1" width="512" height="512" x="0" y="0" viewBox="0 0 512 512" style="enable-background:new 0 0 512 512" xml:space="preserve"><g><g xmlns="http://www.w3.org/2000/svg"><path d="m368.852 299.953c13.57 0 24.609-11.04 24.609-24.609 0-4.143-3.358-7.5-7.5-7.5s-7.5 3.357-7.5 7.5c0 5.299-4.311 9.609-9.609 9.609s-9.609-4.311-9.609-9.609c0-4.143-3.358-7.5-7.5-7.5s-7.5 3.357-7.5 7.5c-.001 13.569 11.039 24.609 24.609 24.609z" data-original="#000000" style=""/><path d="m408.175 257.883c4.142 0 7.5-3.357 7.5-7.5v-7.837c3.703-.459 6.57-3.616 6.57-7.443 0-4.143-3.358-7.5-7.5-7.5h-6.57c-4.142 0-7.5 3.357-7.5 7.5v15.28c0 4.143 3.358 7.5 7.5 7.5z" data-original="#000000" style=""/><path d="m322.028 242.547v7.837c0 4.143 3.358 7.5 7.5 7.5s7.5-3.357 7.5-7.5v-15.28c0-4.143-3.358-7.5-7.5-7.5h-6.57c-4.142 0-7.5 3.357-7.5 7.5 0 3.826 2.867 6.984 6.57 7.443z" data-original="#000000" style=""/><path d="m480.945 251.731c2.129-4.505 3.326-9.533 3.326-14.837 0-8.827-3.305-16.893-8.734-23.041.862-1.221 1.372-2.707 1.372-4.316 0-22.152 1.106-35.289-5.558-54.343-1.368-3.91-5.646-5.975-9.556-4.604-3.91 1.367-5.971 5.646-4.604 9.556 5.447 15.571 4.717 26.372 4.717 41.891-9.566 0-35.337 0-46.202 0-21.7 0-39.355-17.654-39.356-39.354 0-4.143-3.358-7.5-7.5-7.5s-7.5 3.357-7.5 7.5c0 21.7-17.655 39.354-39.356 39.354h-32.588-13.614v-13.972c0-46.61 37.92-84.53 84.53-84.53.567 0 1.028.461 1.028 1.028 0 4.142 3.358 7.499 7.5 7.499s7.5-3.357 7.5-7.499c0-.567.461-1.028 1.028-1.028 24.435.001 47.666 10.573 63.738 29.005 2.722 3.123 7.46 3.445 10.582.725 3.122-2.723 3.446-7.46.724-10.582-18.921-21.7-46.273-34.146-75.043-34.147-3.132 0-6.057.903-8.528 2.462-2.471-1.559-5.396-2.462-8.528-2.462-54.881 0-99.53 44.649-99.53 99.53v21.472c0 1.608.511 3.095 1.372 4.316-2.518 2.851-4.58 6.112-6.064 9.674-.901-11.06-6.481-20.773-14.812-27.127v-28.573c0-56.256-45.767-102.023-102.023-102.023-13.968 0-8.371-.241-27.691 1.269-26.65 2.08-50.499 16.341-64.936 38.527l-22.586-7.219c-4.68-1.5-9.539 1.854-9.775 6.786-.107 2.26-2.37 52.486 6.788 87.469-12.477 6.258-21.066 19.167-21.066 34.052 0 19.314 14.456 35.316 33.117 37.754 4.697 20.152 15.793 38.445 31.666 52.012 4.162 3.557 8.603 6.723 13.253 9.505h-15.782c-25.931 0-47.027 21.097-47.027 47.027v65.723c0 4.143 3.358 7.5 7.5 7.5h12.459c4.142 0 7.5-3.357 7.5-7.5s-3.358-7.5-7.5-7.5h-4.959v-58.223c0-17.66 14.367-32.027 32.027-32.027h21.818c3.727 22.114 23.727 38.741 47.092 37.233 21.151-1.363 37.909-17.277 41.276-37.233h21.821c17.66 0 32.028 14.367 32.028 32.027v58.223h-156.102c-4.142 0-7.5 3.357-7.5 7.5s3.358 7.5 7.5 7.5h163.603c4.142 0 7.5-3.357 7.5-7.5v-65.723c0-6.245-1.234-12.205-3.454-17.662h12.05c7.545 0 14.741-1.507 21.318-4.221-4.627 7.155-7.325 15.669-7.325 24.805v62.801c0 4.143 3.358 7.5 7.5 7.5h195.45c4.142 0 7.5-3.357 7.5-7.5v-62.801c0-9.023-2.632-17.439-7.154-24.539 6.394 2.542 13.355 3.955 20.645 3.955h16.68c4.142 0 7.5-3.357 7.5-7.5v-45.934c0-21.366-12.383-40.792-31.055-50.16zm-158.949-34.693c19.934 0 37.396-10.784 46.856-26.827 9.461 16.043 26.922 26.827 46.856 26.827h33.707c10.949 0 19.856 8.907 19.856 19.856 0 5.354-2.139 10.21-5.595 13.784-3.949 4.08-9.425 6.279-15.057 6.05-3.793-.175-7.09 2.522-7.714 6.256-5.706 34.113-35.216 60.916-72.053 60.916-26.026 0-50.337-13.759-63.418-36.641-.122-.309-.262-.612-.425-.904-3.054-5.478-5.37-11.265-6.916-17.269-.031-.12-.056-.242-.086-.362-.426-1.692-.831-3.487-1.208-5.741-.623-3.725-3.934-6.428-7.714-6.256-11.224.456-20.652-8.599-20.652-19.835 0-10.949 8.908-19.856 19.856-19.856.273 0 .545.012.816.022.32.013.635.005.947-.022h31.944zm46.979 153.411c-14.27 0-25.88-11.61-25.88-25.881v-6.982-2.521c8.512 2.612 17.401 3.837 25.756 3.837 8.629 0 17.615-1.31 26.003-3.912v9.579c0 13.825-10.896 25.153-24.55 25.847-.44.022-.883.033-1.329.033zm-59.283-40.363c-.002 0-.006 0-.009 0-5.141.002-10.081.868-14.698 2.438 4.635-6.266 7.992-13.528 9.696-21.401 2.2 2.343 4.526 4.582 6.988 6.686 5.069 4.332 10.586 8.038 16.426 11.086v1.191zm100.163-1.314c8.49-4.465 16.258-10.29 23.167-17.648 1.684 7.779 4.985 14.96 9.536 21.175-8.563-2.766-13.031-2.213-32.702-2.213v-1.314zm-380.839-213.057 18.709 5.979c3.409 1.087 7.115-.382 8.847-3.516 11.491-20.788 32.49-34.303 56.171-36.15 18.855-1.472 13.138-1.224 26.523-1.224 47.984 0 87.023 39.038 87.023 87.023v21.665c-6.554-1.411-4.481-.849-107.341-.849-7.478 0-14.641-1.662-21.095-4.663-14.199-6.602-24.967-19.685-28.121-35.807-1.205-6.16-8.787-8.013-12.837-3.684-10.819 11.566-18.383 25.267-22.49 39.486-5.157-23.328-5.574-53.097-5.389-68.26zm17.701 140.281c-.607-3.627-3.746-6.263-7.394-6.263-.101 0-.203.002-.305.006-.313.013-.626.025-.942.025-12.724 0-23.076-10.351-23.076-23.075 0-12.51 9.972-22.622 22.238-23.055.03-.001.061-.001.091-.002.558-.017 1.116-.017 1.671.006.012 0 .024 0 .036.001.023.001.046-.002.069-.001 3.741.116 6.993-2.557 7.612-6.256 1.693-10.123 5.248-19.753 10.462-28.483.745-1.247 1.524-2.476 2.336-3.685 10.324 22.929 33.407 38.43 59.433 38.43h100.295.005c3.641.168 7.433 1.267 10.702 3.214.058.035.12.058.179.091 6.682 4.041 11.11 11.361 11.11 19.739 0 12.724-10.352 23.075-23.076 23.075-.316 0-.63-.013-.943-.025-3.773-.135-7.075 2.53-7.699 6.257-6.797 40.644-41.771 68.821-81.402 68.821-39.936.001-74.653-28.466-81.402-68.82zm80.036 107.263c-14.676-.734-26.642-12.15-28.144-26.708-.011-.109-.017-.22-.027-.33-.03-.324-.055-.65-.074-.977 9.877 3.152 20.176 4.572 29.613 4.572 9.615 0 19.997-1.47 29.898-4.665-.907 16.334-14.91 28.925-31.266 28.108zm67.509-37.299h-16.057c4.65-2.782 9.091-5.948 13.253-9.505 15.872-13.566 26.969-31.859 31.665-52.012 13.941-1.821 25.533-11.214 30.505-23.902.414 3.964 1.495 7.732 3.129 11.19-18.672 9.368-31.055 28.793-31.055 50.16v36.159c-8.336-7.51-19.362-12.09-31.44-12.09zm46.441 14.365v-38.434c0-16.689 10.31-31.77 25.523-38.015 4.982 4.068 10.981 6.624 16.979 7.505 1.732 7.235 4.459 14.302 7.752 20.531v7.338c0 22.648-18.425 41.074-41.073 41.074h-9.181zm218.625 90.885h-180.45v-55.301c0-16.996 13.828-30.823 30.824-30.823h18.397c.276 22.147 18.382 40.363 40.876 40.363 22.237 0 40.596-17.936 40.877-40.363h18.652c16.996 0 30.823 13.827 30.823 30.823v55.301zm37.672-90.885h-9.182c-22.648 0-41.073-18.426-41.073-41.074v-7.338c3.342-6.322 6.042-13.388 7.752-20.531 5.635-.827 11.317-3.117 16.259-6.956.239-.185.486-.357.72-.548 15.214 6.244 25.524 21.324 25.524 38.013z" data-original="#000000" style=""/><path d="m128.12 296.416c14.68 0 26.623-11.943 26.623-26.623 0-4.143-3.358-7.5-7.5-7.5s-7.5 3.357-7.5 7.5c0 6.409-5.214 11.623-11.623 11.623s-11.624-5.214-11.624-11.623c0-4.143-3.358-7.5-7.5-7.5s-7.5 3.357-7.5 7.5c.001 14.679 11.944 26.623 26.624 26.623z" data-original="#000000" style=""/><path d="m84.168 217.564c-4.142 0-7.5 3.357-7.5 7.5v16.582c0 4.143 3.358 7.5 7.5 7.5s7.5-3.357 7.5-7.5v-16.582c0-4.142-3.358-7.5-7.5-7.5z" data-original="#000000" style=""/><path d="m172.072 249.146c4.142 0 7.5-3.357 7.5-7.5v-16.582c0-4.143-3.358-7.5-7.5-7.5s-7.5 3.357-7.5 7.5v16.582c0 4.143 3.358 7.5 7.5 7.5z" data-original="#000000" style=""/></g></g></svg>
