<svg xmlns="http://www.w3.org/2000/svg" id="choice" viewBox="0 0 24 24" fill="transparent">
<path d="M10.5882 18.5V20H6.82353V16H9.64706M7.76471 17.5L8.70588 18.5L11.5294 16M12.4706 18H17.1765M12.4706 11H17.1765M7.76471 3H4.94118C4.42071 3 4 3.448 4 4V22C4 22.552 4.42071 23 4.94118 23H19.0588C19.5793 23 20 22.552 20 22V4C20 3.448 19.5793 3 19.0588 3H16.2353M7.76471 3C7.76471 2.448 8.18587 2 8.70634 2H10.6753C10.8701 1.419 11.3859 1 12.0005 1C12.6141 1 13.1308 1.419 13.3256 2H15.2946C15.815 2 16.2353 2.448 16.2353 3M7.76471 3L7.76517 4H16.2358L16.2353 3M6.82307 13H10.5878V9H6.82307V13Z" stroke="#A6B7BE" stroke-linecap="round" stroke-linejoin="round"/>
</svg>