<svg xmlns="http://www.w3.org/2000/svg" id="circular" viewBox="0 0 24 24" fill="transparent">
<path fill-rule="evenodd" clip-rule="evenodd" d="M12 1C5.92417 1 1 5.92417 1 12C1 18.0758 5.92417 23 12 23C18.0758 23 23 18.0758 23 12C23 5.92417 18.0758 1 12 1Z" stroke="#A6B7BE" stroke-linecap="round" stroke-linejoin="round"/>
<path d="M9.028 17C7.209 15.9444 6 14.0817 6 11.9613C6 8.66883 8.91 6 12.5 6C12.669 6 12.835 6.01192 13 6.02293" stroke="#A6B7BE" stroke-linecap="round" stroke-linejoin="round"/>
<path d="M12 8L14 6L12 4" stroke="#A6B7BE" stroke-linecap="round" stroke-linejoin="round"/>
<path d="M15.4149 7C16.968 8.05815 18 9.91749 18 12.0347C18 15.3294 15.5049 18 12.4286 18C12.2837 18 12.1414 17.989 12 17.9771" stroke="#A6B7BE" stroke-linecap="round" stroke-linejoin="round"/>
<path d="M13 16L11 18L13 20" stroke="#A6B7BE" stroke-linecap="round" stroke-linejoin="round"/>
</svg>