<svg xmlns="http://www.w3.org/2000/svg" id="count" viewBox="0 0 24 24" fill="transparent">
<path fill-rule="evenodd" clip-rule="evenodd" d="M19.1739 23H4.82609C2.71313 23 1 21.2869 1 19.1739V4.82609C1 2.71313 2.71313 1 4.82609 1H19.1739C21.2869 1 23 2.71313 23 4.82609V19.1739C23 21.2869 21.2869 23 19.1739 23V23Z" stroke="#A6B7BE" stroke-linecap="round" stroke-linejoin="round"/>
<path d="M3.86951 6.73901H9.60864" stroke="#A6B7BE" stroke-linecap="round" stroke-linejoin="round"/>
<path d="M6.73914 9.60876V3.86963" stroke="#A6B7BE" stroke-linecap="round" stroke-linejoin="round"/>
<path d="M20.1304 6.73901H15.3478" stroke="#A6B7BE" stroke-linecap="round" stroke-linejoin="round"/>
<path d="M4.82605 15.3479L8.65214 20.1305" stroke="#A6B7BE" stroke-linecap="round" stroke-linejoin="round"/>
<path d="M4.82605 20.1305L8.65214 15.3479" stroke="#A6B7BE" stroke-linecap="round" stroke-linejoin="round"/>
<path d="M16.3043 15.3479L19.1739 20.1305" stroke="#A6B7BE" stroke-linecap="round" stroke-linejoin="round"/>
<path d="M12.4783 1V12.4783H23" stroke="#A6B7BE" stroke-linecap="round" stroke-linejoin="round"/>
<path d="M12.4783 23V12.4783H1" stroke="#A6B7BE" stroke-linecap="round" stroke-linejoin="round"/>
</svg>