<svg width="76" height="50" viewBox="0 0 76 50" fill="none" xmlns="http://www.w3.org/2000/svg">
<path d="M24.7644 41L21.6843 30.0425L18.6042 41H13.835L10.2582 29.0728H0V26.2607H12.9408L16.319 37.8L19.5978 26.2607H23.9695L27.149 37.8L30.5271 26.2607H34.0047L29.6329 41H24.7644Z" fill="#000000" />
<path d="M38.9741 30.7208H35.894V40.9025H38.9741V30.7208Z" fill="#000000" />
<path d="M46.7238 41C46.0283 41 45.2334 40.903 44.3392 40.806C43.5444 40.7091 42.6501 40.5151 41.8553 40.3212H41.7559V37.9939H41.8553C42.7495 38.1879 43.6437 38.2848 44.3392 38.3818C45.1341 38.4788 45.8296 38.5758 46.6245 38.5758C47.5187 38.5758 48.1148 38.3818 48.5123 38.0909C48.9097 37.8 49.1084 37.2182 49.1084 36.5394C49.1084 36.2485 49.009 36.0546 48.9097 35.8606C48.8103 35.6667 48.6116 35.5697 48.4129 35.3758C48.2142 35.2788 47.9161 35.0849 47.5187 34.9879C47.2206 34.8909 46.7238 34.794 46.227 34.697C45.4322 34.503 44.836 34.3091 44.2399 34.1152C43.6437 33.9212 43.1469 33.5334 42.7495 33.2424C42.3521 32.8546 42.054 32.4667 41.7559 31.9818C41.5572 31.497 41.4579 30.9152 41.4579 30.2364C41.4579 28.9758 41.8553 27.9091 42.7495 27.2304C43.6437 26.5516 44.9354 26.1637 46.8232 26.1637C47.5187 26.1637 48.2142 26.2607 49.009 26.3576C49.8039 26.4546 50.5988 26.6485 51.3936 26.8425H51.493V29.1697H51.3936C50.5988 28.9758 49.9033 28.8788 49.1084 28.7819C48.4129 28.6849 47.7174 28.6849 47.2206 28.6849C46.8232 28.6849 46.5251 28.6849 46.1277 28.7819C45.8296 28.7819 45.5315 28.8788 45.3328 28.9758C45.1341 29.0728 44.9354 29.2667 44.836 29.4606C44.7367 29.6546 44.6373 29.9455 44.6373 30.2364C44.6373 30.5273 44.6373 30.8182 44.7367 31.0122C44.836 31.2061 45.0347 31.4 45.2334 31.497C45.4322 31.6909 45.7302 31.7879 46.1277 31.8849C46.5251 31.9818 46.9225 32.0788 47.5187 32.2728C48.3135 32.4667 48.9097 32.6606 49.5058 32.8546C50.102 33.0485 50.5988 33.3394 50.9962 33.6303C51.3936 33.9212 51.6917 34.3091 51.8904 34.794C52.0891 35.2788 52.1885 35.7636 52.1885 36.4424C52.1885 37.9939 51.6917 39.1576 50.6981 39.9333C49.8039 40.7091 48.4129 41 46.8232 41H46.7238Z" fill="#000000" />
<path d="M54.573 40.9032V26.2609H64.9062V28.6851H57.6531V32.176H64.7075L63.7139 34.6972H57.6531V38.382H64.9062V40.9032H54.573Z" fill="#000000" />
<path d="M38.9741 26.2607H35.894V29.2667H38.9741V26.2607Z" fill="#000000" />
<path d="M25.2628 16.0788H28.0448C28.8397 16.0788 29.5352 15.8848 29.9326 15.4969C30.3301 15.1091 30.5288 14.4303 30.5288 13.5576C30.5288 12.6848 30.3301 12.006 29.9326 11.7151C29.5352 11.3273 28.9391 11.1333 28.0448 11.1333H25.2628V16.0788ZM30.8268 23.3514L27.9455 18.309H25.2628V23.3514H22.5802V9H28.2435C29.0384 9 29.8333 9.09697 30.4294 9.29091C31.0256 9.48485 31.6217 9.67878 32.0191 10.0667C32.4166 10.4545 32.7146 10.9394 32.9134 11.5212C33.1121 12.006 33.2114 12.7818 33.2114 13.6545C33.2114 15.303 32.814 16.5636 32.0191 17.2424C31.7211 17.5333 31.3236 17.7272 30.8268 17.9212H30.7275L33.9069 23.3514H30.8268Z" fill="#000000" />
<path d="M38.7757 9H36.093V23.3514H38.7757V9Z" fill="#000000" />
<path d="M45.1346 23.3514L40.3654 9H43.1474L46.923 20.9272L50.6986 9H53.3813L48.7114 23.3514H45.1346Z" fill="#000000" />
<path d="M54.7662 23.3514V9H65V11.1333H57.5482V15.0121H64.5032L63.609 17.1454H57.5482V21.1212H65V23.3514H54.7662Z" fill="#000000" />
<path d="M20.0946 13.0727C19.8958 12.2 19.5978 11.5212 19.2003 10.9394C18.8029 10.3576 18.1074 9.87272 17.4119 9.58182C16.617 9.19394 15.6235 9 14.4312 9H9.06585V18.9878H11.7485V11.1333H14.2325C14.928 11.1333 15.5241 11.2303 15.9215 11.5212C16.4183 11.7151 16.7164 12.103 16.9151 12.4909C17.1138 12.8788 17.3125 13.4606 17.4119 14.0424C17.5113 14.6242 17.5113 15.303 17.5113 15.9818C17.5113 16.6606 17.5113 17.3394 17.4119 18.0181C17.3125 18.6969 17.2132 19.1818 16.9151 19.6666C16.7164 20.1515 16.319 20.5393 15.9215 20.8302C15.4247 21.1212 14.928 21.2181 14.1331 21.2181H0V23.3514H14.4312C15.6235 23.3514 16.617 23.1575 17.4119 22.7696C18.2068 22.3818 18.8029 21.8969 19.2003 21.2181C19.5978 20.5393 19.8958 19.7636 20.0946 18.8909C20.2933 18.0181 20.2933 17.0484 20.2933 15.8848C20.2933 14.8182 20.2933 13.8485 20.0946 13.0727Z" fill="#000000" />
</svg>
