<svg width="92" height="113" viewBox="0 0 92 113" fill="none" xmlns="http://www.w3.org/2000/svg">
<path d="M82.6936 113H9.3064C4.1713 113 0 109.06 0 104.206V29.0197C0 27.7323 1.03319 26.6932 2.31311 26.6932C3.59303 26.6932 4.62621 27.7323 4.62621 29.0197V104.206C4.62621 106.493 6.72343 108.347 9.3064 108.347H82.6936C85.2689 108.347 87.3738 106.486 87.3738 104.206V8.79432C87.3738 6.50655 85.2766 4.65308 82.6936 4.65308H28.8522C27.5722 4.65308 26.5391 3.61389 26.5391 2.32654C26.5391 1.03919 27.5722 0 28.8522 0H82.6936C87.821 0 92 3.94736 92 8.79432V104.206C92 109.06 87.8287 113 82.6936 113Z" fill="#7F8589"/>
<path d="M21.859 31.3463H2.31321C1.38025 31.3463 0.532114 30.7802 0.177437 29.9116C-0.177239 29.0431 0.0155199 28.0427 0.678611 27.3757L27.2177 0.682553C27.8808 0.0156118 28.8754 -0.178266 29.739 0.178469C30.6025 0.535205 31.1654 1.38827 31.1654 2.32664V22.552C31.1654 27.399 26.9941 31.3463 21.859 31.3463ZM7.89551 26.6933H21.859C24.4342 26.6933 26.5392 24.832 26.5392 22.552V7.94135L7.89551 26.6933Z" fill="#7F8589"/>
<path d="M72.0225 49.7259H22.7224C21.4425 49.7259 20.4093 48.6867 20.4093 47.3993C20.4093 46.112 21.4425 45.0728 22.7224 45.0728H72.0147C73.2947 45.0728 74.3279 46.112 74.3279 47.3993C74.3356 48.6867 73.2947 49.7259 72.0225 49.7259Z" fill="#7F8589"/>
<path d="M72.0225 62.8941H22.7224C21.4425 62.8941 20.4093 61.8549 20.4093 60.5676C20.4093 59.2802 21.4425 58.241 22.7224 58.241H72.0147C73.2947 58.241 74.3279 59.2802 74.3279 60.5676C74.3356 61.8549 73.2947 62.8941 72.0225 62.8941Z" fill="#7F8589"/>
<path d="M72.0225 76.0623H22.7224C21.4425 76.0623 20.4093 75.0231 20.4093 73.7358C20.4093 72.4484 21.4425 71.4092 22.7224 71.4092H72.0147C73.2947 71.4092 74.3279 72.4484 74.3279 73.7358C74.3356 75.0231 73.2947 76.0623 72.0225 76.0623Z" fill="#7F8589"/>
</svg>
