<svg xmlns="http://www.w3.org/2000/svg" id="icon-map" viewBox="0 0 24 24">
<path fill-rule="evenodd" clip-rule="evenodd" d="M19.8947 16.4649L15.6842 19.132V7.53486L19.8947 4.86883V16.4649ZM13.5789 18.92L10.4211 16.5199V5.08183L13.5789 7.48086V18.92ZM4.10526 7.53486L8.31579 4.86883V16.4649L4.10526 19.132V7.53486ZM21.5316 17.832C21.8242 17.647 22 17.335 22 17V2.99981C22 2.63181 21.7863 2.2918 21.4442 2.1188C21.1021 1.9438 20.6863 1.9638 20.3632 2.1678L14.6884 5.76284L10.0263 2.2188C9.86842 2.1018 9.63158 2.0158 9.40526 2.0078C9.18842 1.9998 8.94737 2.0658 8.78421 2.1678L2.46842 6.16784C2.17579 6.35384 2 6.66685 2 6.99985V21C2 21.369 2.21368 21.708 2.55579 21.882C2.71158 21.962 2.88211 22 3.05263 22C3.25684 22 3.46 21.944 3.63684 21.832L9.31158 18.238L13.9737 21.781C14.1642 21.926 14.3968 22 14.6316 22C14.9116 22 15.0474 21.927 15.2095 21.824L21.5316 17.832Z"/>
</svg>