<svg xmlns="http://www.w3.org/2000/svg" width="57" height="96" viewBox="0 0 57 96">
    <g fill="none" fill-rule="evenodd" stroke="currentColor" stroke-linecap="round" stroke-width="2">
        <path d="M18.007 10.008L18 10H5a4 4 0 0 0-4 4v17.39c2.067-5.466 5.624-11.014 10.529-15.92a49.542 49.542 0 0 1 6.478-5.462zM1 50.994V91a4 4 0 0 0 4 4h44a4 4 0 0 0 4-4V31.092l-.142-.029"/>
        <path d="M45 13c3.311 3.311 3.016 9.43-.142 15.987a57.534 57.534 0 0 0 8 2.076C56.473 21.909 55.922 12.922 50.5 7.5 43.302.302 29.821 1.682 18.007 10.008M18.007 10.008a49.542 49.542 0 0 0-6.478 5.462C6.624 20.376 3.067 25.924.999 31.39v19.604"/>
        <path d="M45 13c-3.368-3.368-9.642-3.003-16.328.312-2.632 1.306-2.906 4.954-.577 6.744a57.893 57.893 0 0 0 16.763 8.931C48.016 22.43 48.311 16.311 45 13zM23.687 16.293c5.947 5.637 13.217 10.015 21.171 12.695M14 1H4a3 3 0 1 0 0 6h10a3 3 0 1 0 0-6zM1 39h52M1 85h52M19 66c0-4.418 8-15 8-15s8 10.582 8 15a8 8 0 0 1-16 0z"/>
    </g>
</svg>
