<svg version="1.1" id="Capa_1" xmlns="http://www.w3.org/2000/svg" xmlns:xlink="http://www.w3.org/1999/xlink" x="0px" y="0px" viewBox="0 0 512.008 512.008" xml:space="preserve"><path d="M256.002,0c-70.592,0-128,57.408-128,128s57.408,128,128,128s128-57.408,128-128S326.594,0,256.002,0z M256.002,192 c-35.296,0-64-28.704-64-64s28.704-64,64-64s64,28.704,64,64S291.298,192,256.002,192z"></path><path d="M425.73,252.448c-12.512-12.512-32.736-12.512-45.248,0c-68.608,68.608-180.288,68.608-248.928,0 c-12.512-12.512-32.736-12.512-45.248,0c-12.512,12.512-12.512,32.736,0,45.28c39.808,39.808,90.272,62.496,142.304,68.416 l-91.232,91.232c-12.512,12.512-12.512,32.736,0,45.248s32.736,12.512,45.248,0l73.376-73.376l73.376,73.376	c6.24,6.24,14.432,9.376,22.624,9.376c8.192,0,16.384-3.136,22.624-9.376c12.512-12.512,12.512-32.736,0-45.248l-91.232-91.232 c52.032-5.92,102.496-28.608,142.304-68.416C438.21,285.216,438.21,264.96,425.73,252.448z"></path></svg>