<svg xmlns="http://www.w3.org/2000/svg" id="pin" viewBox="0 0 24 26" fill="transparent">
<path d="M16.3312 20.496C18.7997 17.362 21 13.3868 21 9.56966C21 4.83677 16.9706 1 12 1C7.02944 1 3 4.83677 3 9.56966C3 13.3868 5.20026 17.362 7.66875 20.496C8.88387 22.0387 10.1195 23.321 11.0849 24.2086C11.1906 24.3058 11.2923 24.3976 11.3898 24.4839C11.7397 24.7938 12.2603 24.7938 12.6102 24.4839C12.7077 24.3976 12.8094 24.3058 12.9151 24.2086C13.8805 23.321 15.1161 22.0387 16.3312 20.496Z" stroke="#A6B7BE" stroke-linecap="round"/>
<path d="M16 10C16 12.2091 14.2091 14 12 14C9.79086 14 8 12.2091 8 10C8 7.79086 9.79086 6 12 6C14.2091 6 16 7.79086 16 10Z" stroke="#A6B7BE" stroke-linecap="round"/>
</svg>