<svg width="50" height="50" viewBox="0 0 50 50" fill="none" xmlns="http://www.w3.org/2000/svg">
<path fill-rule="evenodd" clip-rule="evenodd" d="M18.7197 14.2024C20.9904 14.0504 23.4364 14 24.999 14V16C23.4703 16 21.0732 16.0496 18.8615 16.1976C17.7546 16.2717 16.7095 16.3695 15.8494 16.4951C14.9489 16.6267 14.3756 16.7728 14.1249 16.8944C13.8087 17.0479 13.3107 17.4731 12.6828 18.1827C12.0821 18.8616 11.4463 19.7026 10.8458 20.5615C10.4647 21.1065 10.1036 21.6502 9.7807 22.1532L14.9244 22.607C21.6277 23.1984 28.3724 23.1984 35.0756 22.607L40.2193 22.1532C39.8964 21.6502 39.5353 21.1065 39.1542 20.5615C38.5537 19.7026 37.9179 18.8616 37.3172 18.1827C36.6893 17.4731 36.1913 17.0479 35.8751 16.8944C35.6244 16.7728 35.0511 16.6267 34.1506 16.4951C33.2905 16.3695 32.2454 16.2717 31.1385 16.1976C28.9268 16.0496 26.5297 16 25.001 16V14C26.5636 14 29.0096 14.0504 31.2803 14.2024C32.4147 14.2783 33.5207 14.3805 34.4574 14.5174C35.3538 14.6483 36.2231 14.8272 36.7968 15.1056C37.511 15.4521 38.2367 16.1519 38.8807 16.8798C39.552 17.6384 40.2365 18.5474 40.8596 19.4385C41.3217 20.0994 41.7581 20.7621 42.1384 21.362C42.6533 21.1816 43.3603 21 44.0632 21C45.0669 21 46.4399 21.3814 46.9652 21.5513L47.3701 21.6823L47.561 22.0528C47.6895 22.3021 47.8379 22.694 47.8833 23.1226C47.9265 23.5299 47.8957 24.195 47.368 24.7071C47.2065 24.8638 47.0191 24.9703 46.8813 25.0394C46.7308 25.1149 46.5666 25.1812 46.4045 25.2394C46.0802 25.3559 45.7005 25.4626 45.3235 25.5563C45.1756 25.593 45.0249 25.6285 44.8743 25.6625C44.9084 25.7105 44.943 25.7592 44.9779 25.8085C45.6838 26.805 46.4956 27.9827 47.047 29.0528C47.5317 29.9934 47.7818 31.1808 47.9025 32.3772C48.0248 33.5894 48.0214 34.8895 47.9509 36.1031C47.8803 37.3187 47.7413 38.4676 47.5853 39.3838C47.5073 39.8414 47.4237 40.2493 47.3399 40.5834C47.2625 40.8923 47.1671 41.213 47.0464 41.4472C46.9958 41.5454 46.9496 41.6473 46.8931 41.773L46.8868 41.7871C46.8349 41.9025 46.772 42.0425 46.7004 42.1814C46.6809 42.2193 46.6603 42.258 46.6386 42.2972C46.6333 43.1579 46.605 44.2778 46.5337 45.2288C46.4943 45.7549 46.4393 46.2651 46.3591 46.6587C46.3208 46.8469 46.2654 47.0677 46.1759 47.2631C46.1325 47.358 46.0543 47.5071 45.9194 47.6468C45.7796 47.7916 45.5018 48 45.0938 48H39.9415C39.5793 48 39.1729 47.8538 38.8634 47.5294C38.5397 47.1901 38.3959 46.7382 38.3959 46.25V44H25.001V42H42.5187C43.9939 42 44.4532 41.7521 44.617 41.6158C44.6997 41.5471 44.77 41.4561 44.8569 41.2873C44.9031 41.1976 44.9466 41.1012 45.0042 40.9731L45.0056 40.97C45.0595 40.8502 45.1255 40.7033 45.2031 40.5528C45.2007 40.5573 45.2164 40.5258 45.2453 40.4375C45.2721 40.3557 45.3033 40.2469 45.3375 40.1104C45.4059 39.8376 45.4799 39.4808 45.552 39.0577C45.696 38.2121 45.8268 37.1344 45.8932 35.9906C45.9598 34.8449 45.9605 33.6527 45.8514 32.5721C45.8217 32.2771 45.7842 31.9959 45.7392 31.7303C45.5225 31.8652 45.279 31.9876 45.0327 32.0978C44.461 32.3537 43.7667 32.5908 43.0997 32.7908C42.4273 32.9924 41.7548 33.1646 41.2138 33.2871C40.9435 33.3483 40.6999 33.3985 40.5012 33.4341C40.3358 33.4637 40.1151 33.5 39.9416 33.5C39.3071 33.5 38.9102 33.0689 38.7544 32.8775C38.555 32.6323 38.4004 32.3405 38.286 32.0814C38.1677 31.8135 38.0708 31.5311 38.0022 31.2744C37.9385 31.0358 37.8807 30.7517 37.8807 30.5C37.8807 29.8293 38.2653 29.3248 38.7667 28.9193C39.2509 28.5277 39.9867 28.1101 41.0264 27.6056C41.667 27.2947 42.2439 26.747 42.712 26.1445C42.2402 25.4808 41.8121 24.8647 41.597 24.4472C41.5526 24.361 41.4798 24.2286 41.3828 24.0588L35.2622 24.5988C28.4348 25.2011 21.5652 25.2011 14.7378 24.5988L8.61721 24.0588C8.52018 24.2286 8.44745 24.361 8.40302 24.4472C8.1879 24.8647 7.75983 25.4808 7.28796 26.1445C7.75605 26.747 8.33295 27.2947 8.97358 27.6056C10.0133 28.1101 10.7491 28.5277 11.2333 28.9193C11.7347 29.3248 12.1193 29.8293 12.1193 30.5C12.1193 30.7517 12.0615 31.0358 11.9978 31.2744C11.9292 31.5311 11.8323 31.8135 11.714 32.0814C11.5996 32.3405 11.445 32.6323 11.2456 32.8775C11.0898 33.0689 10.6929 33.5 10.0584 33.5C9.88487 33.5 9.66415 33.4637 9.49878 33.4341C9.30014 33.3985 9.05647 33.3483 8.78622 33.2871C8.24523 33.1646 7.5727 32.9924 6.90034 32.7908C6.23333 32.5908 5.53901 32.3537 4.96729 32.0978C4.72101 31.9876 4.47754 31.8652 4.26082 31.7303C4.21576 31.9959 4.17832 32.2771 4.14856 32.5721C4.03952 33.6527 4.04022 34.8449 4.10675 35.9906C4.17318 37.1344 4.30405 38.2121 4.44805 39.0577C4.52011 39.4808 4.59406 39.8376 4.66249 40.1104C4.69673 40.2469 4.72792 40.3557 4.75471 40.4375C4.77901 40.5117 4.79393 40.5458 4.7967 40.5521C4.87421 40.7025 4.94048 40.8501 4.99435 40.9699L4.9958 40.9731C5.0534 41.1012 5.0969 41.1976 5.1431 41.2873C5.23003 41.4561 5.30033 41.5471 5.38296 41.6158C5.54677 41.7521 6.00609 42 7.48128 42H24.999V44H11.6041V46.25C11.6041 46.7382 11.4603 47.1901 11.1366 47.5294C10.8271 47.8538 10.4207 48 10.0585 48H4.9062C4.49819 48 4.22036 47.7916 4.08055 47.6468C3.94568 47.5071 3.86755 47.358 3.82408 47.2631C3.73461 47.0677 3.67922 46.8469 3.64091 46.6587C3.56073 46.2651 3.50571 45.7549 3.46628 45.2288C3.39501 44.2778 3.36668 43.1579 3.36144 42.2972C3.33968 42.258 3.31913 42.2193 3.29961 42.1814C3.22806 42.0425 3.16514 41.9025 3.11328 41.7872L3.10691 41.773C3.05038 41.6473 3.00422 41.5454 2.95361 41.4472C2.83294 41.213 2.73753 40.8923 2.66007 40.5834C2.57626 40.2493 2.49266 39.8414 2.41472 39.3838C2.25871 38.4676 2.11971 37.3187 2.04912 36.1031C1.97863 34.8895 1.97515 33.5894 2.09746 32.3772C2.21818 31.1808 2.46834 29.9934 2.95305 29.0528C3.50441 27.9827 4.31617 26.805 5.02213 25.8085C5.05704 25.7592 5.09156 25.7105 5.12569 25.6625C4.97506 25.6285 4.82444 25.593 4.67654 25.5563C4.29948 25.4626 3.91977 25.3559 3.59545 25.2394C3.43344 25.1812 3.2692 25.1149 3.11871 25.0394C2.98091 24.9703 2.79355 24.8638 2.63204 24.7071C2.1043 24.195 2.07347 23.5299 2.11668 23.1226C2.16214 22.694 2.31055 22.3021 2.43902 22.0528L2.6299 21.6823L3.03482 21.5513C3.56012 21.3814 4.93309 21 5.93681 21C6.63966 21 7.34672 21.1816 7.86159 21.362C8.24194 20.7621 8.67829 20.0994 9.14041 19.4385C9.76352 18.5474 10.448 17.6384 11.1193 16.8798C11.7633 16.1519 12.489 15.4521 13.2032 15.1056C13.7769 14.8272 14.6462 14.6483 15.5426 14.5174C16.4793 14.3805 17.5853 14.2783 18.7197 14.2024ZM6.79209 23.1291C6.51803 23.0559 6.21379 23 5.93681 23C5.45556 23 4.72097 23.1588 4.16917 23.3073L4.16889 23.3093C4.20867 23.3258 4.25583 23.344 4.31089 23.3638C4.54042 23.4462 4.84336 23.5332 5.18758 23.6187C5.5766 23.7154 5.99243 23.8037 6.36985 23.8767C6.44887 23.7521 6.5128 23.6438 6.5597 23.5528C6.61201 23.4513 6.69071 23.3074 6.79209 23.1291ZM5.45367 43.8025C5.46937 44.2407 5.49154 44.6806 5.52175 45.0837C5.54859 45.4418 5.58053 45.7529 5.61647 46H9.54323V44H7.48128C6.68353 44 6.01494 43.9386 5.45367 43.8025ZM5.07202 29.4433C5.12337 29.6215 5.1902 29.8021 5.27692 29.9812C5.28966 29.9909 5.30707 30.0035 5.33008 30.0189C5.4368 30.0902 5.60214 30.1796 5.83025 30.2816C6.2839 30.4846 6.88098 30.6917 7.50873 30.8799C8.13114 31.0665 8.75675 31.2267 9.25461 31.3394C9.44294 31.3821 9.60944 31.4171 9.74787 31.444C9.77058 31.4002 9.79475 31.3501 9.81972 31.2936C9.89462 31.124 9.95872 30.9377 10.0028 30.7725C10.0258 30.6865 10.0395 30.6208 10.0475 30.5755C10.021 30.5479 9.97884 30.5082 9.91397 30.4557C9.62533 30.2223 9.07311 29.8899 8.05191 29.3944C7.26409 29.0122 6.60431 28.4483 6.0762 27.8658C5.7118 28.4003 5.36398 28.9361 5.07202 29.4433ZM10.0881 30.6246C10.0881 30.6246 10.0858 30.6219 10.083 30.6166C10.087 30.622 10.0881 30.6246 10.0881 30.6246ZM43.2079 23.1291C43.3093 23.3074 43.388 23.4513 43.4403 23.5528C43.4872 23.6438 43.5511 23.7521 43.6302 23.8767C44.0076 23.8037 44.4234 23.7154 44.8124 23.6187C45.1566 23.5332 45.4596 23.4462 45.6891 23.3638C45.7442 23.344 45.7913 23.3258 45.8311 23.3093L45.8308 23.3073C45.279 23.1588 44.5444 23 44.0632 23C43.7862 23 43.482 23.0559 43.2079 23.1291ZM43.9238 27.8658C43.3957 28.4483 42.7359 29.0122 41.9481 29.3944C40.9269 29.8899 40.3747 30.2223 40.086 30.4557C40.0212 30.5082 39.979 30.5479 39.9525 30.5755C39.9605 30.6208 39.9742 30.6865 39.9972 30.7725C40.0413 30.9377 40.1054 31.124 40.1803 31.2936C40.2052 31.3501 40.2294 31.4002 40.2521 31.444C40.3906 31.4171 40.5571 31.3821 40.7454 31.3394C41.2433 31.2267 41.8689 31.0665 42.4913 30.8799C43.119 30.6917 43.7161 30.4846 44.1697 30.2816C44.3979 30.1796 44.5632 30.0902 44.6699 30.0189C44.6929 30.0035 44.7103 29.9909 44.7231 29.9811C44.8098 29.8022 44.8766 29.6216 44.928 29.4433C44.636 28.936 44.2882 28.4003 43.9238 27.8658ZM39.9119 30.6246C39.9119 30.6246 39.9131 30.622 39.9169 30.6166C39.9142 30.6219 39.9119 30.6246 39.9119 30.6246ZM40.4568 44V46H44.3835C44.4195 45.7529 44.4514 45.4418 44.4782 45.0837C44.5085 44.6806 44.5306 44.2407 44.5463 43.8025C43.9851 43.9386 43.3165 44 42.5187 44H40.4568ZM17.897 29H17.9115C18.5383 29 19.5258 29.1434 20.4459 29.3347C21.3591 29.5246 22.3698 29.7953 23.0093 30.1056C23.2874 30.2405 23.6861 30.345 24.1175 30.4129C24.5388 30.4792 24.9217 30.5 25.1248 30.5C25.4992 30.5 26.0602 30.4283 26.7253 30.1056C27.3648 29.7953 28.3755 29.5246 29.2887 29.3347C30.2088 29.1434 31.1963 29 31.8231 29H31.8376C32.3472 29 33.1576 29 33.9127 29.0666C34.2928 29.1002 34.6923 29.1532 35.05 29.2424C35.3678 29.3217 35.8236 29.4685 36.1578 29.7924C36.4072 30.034 36.5712 30.3785 36.6694 30.6123C36.7858 30.8892 36.8888 31.2085 36.9643 31.5231C37.0385 31.8325 37.0959 32.1773 37.0998 32.498C37.1018 32.6578 37.0911 32.8446 37.0459 33.0327C37.0035 33.2093 36.9089 33.4788 36.6735 33.7072C36.4668 33.9077 36.1745 34.0491 35.9906 34.1331C35.7608 34.2382 35.4823 34.3473 35.1801 34.4547C34.5733 34.6703 33.8168 34.8982 33.0489 35.0926C32.2838 35.2863 31.4804 35.4535 30.7847 35.539C30.438 35.5815 30.0942 35.6069 29.7831 35.5993C29.5012 35.5924 29.1219 35.5577 28.7855 35.3944C28.5239 35.2675 28.3422 35.1794 28.2015 35.1147C28.0591 35.0492 27.9911 35.023 27.9545 35.0112C27.9525 35.0105 27.9499 35.0092 27.9499 35.0092C27.9411 35.0047 27.9321 35 27.7007 35H22.0339C21.8025 35 21.7935 35.0047 21.7847 35.0092C21.7847 35.0092 21.7822 35.0105 21.7802 35.0112C21.7435 35.023 21.6756 35.0492 21.5331 35.1147C21.3924 35.1794 21.2108 35.2675 20.9491 35.3944C20.6127 35.5577 20.2334 35.5924 19.9516 35.5993C19.6404 35.6069 19.2966 35.5815 18.95 35.539C18.2542 35.4535 17.4508 35.2863 16.6857 35.0926C15.9178 34.8982 15.1613 34.6703 14.5545 34.4547C14.2524 34.3473 13.9739 34.2382 13.744 34.1331C13.5601 34.0491 13.2678 33.9077 13.0611 33.7072C12.8257 33.4788 12.7312 33.2093 12.6887 33.0327C12.6435 32.8446 12.6328 32.6578 12.6348 32.498C12.6387 32.1773 12.6961 31.8325 12.7703 31.5231C12.8458 31.2085 12.9488 30.8892 13.0652 30.6123C13.1634 30.3785 13.3274 30.034 13.5768 29.7924C13.911 29.4685 14.3669 29.3217 14.6846 29.2424C15.0423 29.1532 15.4418 29.1002 15.822 29.0666C16.577 29 17.3875 29 17.897 29ZM15.0383 31.2269C15.0198 31.263 14.9978 31.3098 14.9735 31.3676C14.9022 31.5373 14.8308 31.7547 14.7775 31.9767C14.7426 32.1221 14.7195 32.253 14.7069 32.3614C14.8525 32.4243 15.0397 32.4972 15.2631 32.5766C15.7997 32.7672 16.4924 32.9768 17.2059 33.1574C17.9223 33.3387 18.6325 33.484 19.2087 33.5548C19.4981 33.5903 19.73 33.6041 19.8998 33.5999C19.9957 33.5976 20.0471 33.59 20.0658 33.5869C20.0814 33.5793 20.0969 33.5718 20.1122 33.5644C20.5449 33.3543 20.8638 33.1994 21.1284 33.1138C21.4822 32.9994 21.7578 32.9997 21.9991 33C22.0108 33 22.0224 33 22.0339 33H27.7007C27.7122 33 27.7238 33 27.7355 33C27.9768 32.9997 28.2524 32.9994 28.6062 33.1138C28.8708 33.1994 29.1897 33.3543 29.6224 33.5644C29.6377 33.5718 29.6532 33.5793 29.6688 33.5869C29.6875 33.59 29.7389 33.5976 29.8348 33.5999C30.0046 33.6041 30.2365 33.5903 30.5259 33.5548C31.1022 33.484 31.8124 33.3387 32.5287 33.1574C33.2422 32.9768 33.935 32.7672 34.4715 32.5766C34.695 32.4972 34.8821 32.4243 35.0277 32.3614C35.0152 32.253 34.992 32.1221 34.9571 31.9767C34.9038 31.7547 34.8325 31.5373 34.7612 31.3676C34.7369 31.3098 34.7148 31.263 34.6963 31.2269C34.6628 31.2147 34.6113 31.198 34.5368 31.1794C34.3309 31.1281 34.0542 31.0873 33.7261 31.0584C33.0716 31.0006 32.345 31 31.8231 31C31.4195 31 30.6037 31.1066 29.7205 31.2903C28.8304 31.4754 28.0379 31.7047 27.6469 31.8944C26.6633 32.3717 25.7808 32.5 25.1248 32.5C24.8127 32.5 24.3195 32.4708 23.7876 32.3871C23.2658 32.305 22.6339 32.1595 22.0877 31.8944C21.6967 31.7047 20.9042 31.4754 20.0141 31.2903C19.1309 31.1066 18.3151 31 17.9115 31C17.3896 31 16.663 31.0006 16.0086 31.0584C15.6804 31.0873 15.4037 31.1281 15.1978 31.1794C15.1233 31.198 15.0718 31.2147 15.0383 31.2269Z" />
</svg>
