<?xml version="1.0"?>
<svg xmlns="http://www.w3.org/2000/svg" xmlns:xlink="http://www.w3.org/1999/xlink" xmlns:svgjs="http://svgjs.com/svgjs" version="1.1" width="512" height="512" x="0" y="0" viewBox="0 0 512 512" style="enable-background:new 0 0 512 512" xml:space="preserve"><g><g xmlns="http://www.w3.org/2000/svg"><path d="m162.348 228.674v60c0 12.407 10.094 22.5 22.5 22.5s22.5-10.093 22.5-22.5v-60c0-12.407-10.094-22.5-22.5-22.5s-22.5 10.094-22.5 22.5zm30 0v60c0 4.135-3.364 7.5-7.5 7.5s-7.5-3.365-7.5-7.5v-60c0-4.136 3.364-7.5 7.5-7.5s7.5 3.365 7.5 7.5z" data-original="#000000" style=""/><path d="m132.348 228.674v60c0 28.949 23.552 52.5 52.5 52.5s52.5-23.551 52.5-52.5v-60c0-28.948-23.552-52.5-52.5-52.5s-52.5 23.552-52.5 52.5zm90 0v60c0 20.678-16.822 37.5-37.5 37.5s-37.5-16.822-37.5-37.5v-60c0-20.677 16.822-37.5 37.5-37.5s37.5 16.823 37.5 37.5z" data-original="#000000" style=""/><path d="m282.347 228.674v60c0 12.407 10.094 22.5 22.5 22.5s22.5-10.093 22.5-22.5v-60c0-12.407-10.093-22.5-22.499-22.5-12.408 0-22.501 10.094-22.501 22.5zm30 0v60c0 4.135-3.364 7.5-7.5 7.5s-7.5-3.365-7.5-7.5v-60c0-4.136 3.365-7.5 7.501-7.5 4.134 0 7.499 3.365 7.499 7.5z" data-original="#000000" style=""/><path d="m252.348 228.674v60c0 28.949 23.551 52.5 52.499 52.5s52.5-23.551 52.5-52.5v-60c0-28.948-23.551-52.5-52.499-52.5s-52.5 23.552-52.5 52.5zm89.999 0v60c0 20.678-16.822 37.5-37.5 37.5-20.677 0-37.499-16.822-37.499-37.5v-60c0-20.677 16.822-37.5 37.5-37.5 20.676.001 37.499 16.823 37.499 37.5z" data-original="#000000" style=""/><path d="m117.349 341.174v-165h-42.135l-22.501 45h19.636v120zm-32.865-149.999h17.864v135h-15v-120h-10.364z" data-original="#000000" style=""/><path d="m439.122 322.424c12.406 0 22.5-10.093 22.5-22.5s-10.094-22.5-22.5-22.5-22.5 10.093-22.5 22.5 10.094 22.5 22.5 22.5zm0-30c4.136 0 7.5 3.364 7.5 7.5 0 4.135-3.364 7.5-7.5 7.5s-7.5-3.365-7.5-7.5c0-4.136 3.364-7.5 7.5-7.5z" data-original="#000000" style=""/><path d="m416.622 217.425c0-12.407-10.094-22.5-22.5-22.5s-22.5 10.093-22.5 22.5 10.094 22.5 22.5 22.5 22.5-10.093 22.5-22.5zm-30 0c0-4.135 3.364-7.5 7.5-7.5s7.5 3.365 7.5 7.5c0 4.136-3.364 7.5-7.5 7.5s-7.5-3.364-7.5-7.5z" data-original="#000000" style=""/><path d="m361.6 251.174h110.043v15h-110.043z" transform="matrix(.707 -.707 .707 .707 -60.879 370.382)" data-original="#000000" style=""/><path d="m353.499 60h15v15h-15z" data-original="#000000" style=""/><path d="m323.499 45h15v15h-15z" data-original="#000000" style=""/><path d="m424.21 424.203h15v14.999h-15z" transform="matrix(.699 -.715 .715 .699 -178.774 438.791)" data-original="#000000" style=""/><path d="m437.02 74.98c-48.352-48.351-112.64-74.98-181.02-74.98s-132.668 26.629-181.02 74.98c-48.351 48.353-74.98 112.64-74.98 181.02s26.629 132.667 74.98 181.02c48.352 48.351 112.64 74.98 181.02 74.98 59.826 0 118.035-21.08 163.903-59.357l-9.611-11.517c-43.176 36.031-97.972 55.874-154.292 55.874-64.374 0-124.894-25.068-170.413-70.587s-70.587-106.039-70.587-170.413 25.068-124.894 70.587-170.413 106.039-70.587 170.413-70.587 124.894 25.068 170.413 70.587 70.587 106.039 70.587 170.413c0 56.283-19.823 111.056-55.819 154.227l11.521 9.606c38.238-45.862 59.298-104.046 59.298-163.833 0-68.38-26.629-132.667-74.98-181.02z" data-original="#000000" style=""/></g></g></svg>
