<svg xmlns="http://www.w3.org/2000/svg" id="reward" fill="none" viewBox="0 0 24 24">
<path fill-rule="evenodd" clip-rule="evenodd" d="M20 9C20 9.67388 18.9864 10.2056 18.8198 10.8278C18.6485 11.4715 19.2546 12.4381 18.9289 13.0009C18.5986 13.5722 17.4551 13.528 16.9911 13.9911C16.5271 14.4551 16.5722 15.5986 16.0009 15.9289C15.4372 16.2546 14.4715 15.6475 13.8278 15.8198C13.2056 15.9864 12.6739 17 12 17C11.3261 17 10.7934 15.9864 10.1722 15.8198C9.52847 15.6475 8.56188 16.2546 7.99906 15.9289C7.42776 15.5986 7.472 14.4551 7.00894 13.9911C6.54494 13.528 5.40141 13.5722 5.07106 13.0009C4.74541 12.4372 5.35153 11.4706 5.18024 10.8278C5.01365 10.2056 4 9.67388 4 9C4 8.32612 5.01365 7.79435 5.18024 7.17224C5.35153 6.52847 4.74541 5.56188 5.07106 4.99906C5.40141 4.42776 6.54494 4.472 7.00894 4.00894C7.47294 3.54494 7.42776 2.40141 7.99906 2.07106C8.56282 1.74541 9.52847 2.35247 10.1722 2.18024C10.7944 2.01365 11.3261 1 12 1C12.6739 1 13.2066 2.01365 13.8278 2.18024C14.4715 2.35247 15.4381 1.74541 16.0009 2.07106C16.5722 2.40141 16.528 3.54494 16.9911 4.00894C17.4551 4.472 18.5986 4.42776 18.9289 4.99906C19.2546 5.56282 18.6485 6.52941 18.8198 7.17224C18.9864 7.79435 20 8.32612 20 9V9Z" stroke="currentColor" stroke-linecap="round" stroke-linejoin="round"/>
<path fill-rule="evenodd" clip-rule="evenodd" d="M17 9C17 11.7618 14.7618 14 12 14C9.23818 14 7 11.7618 7 9C7 6.23818 9.23818 4 12 4C14.7618 4 17 6.23818 17 9V9Z" stroke="currentColor" stroke-linecap="round" stroke-linejoin="round"/>
<path d="M16.8889 15L20 23L16.4444 21.1176L13.7778 23L12 17.3529" stroke="currentColor" stroke-linecap="round" stroke-linejoin="round"/>
<path d="M7.29412 15L4 23L7.76471 21.1176L10.5882 23L12.5 19" stroke="currentColor" stroke-linecap="round" stroke-linejoin="round"/>
</svg>