<svg width="60" height="50" viewBox="0 0 60 50" fill="none" xmlns="http://www.w3.org/2000/svg">
<path fill-rule="evenodd" clip-rule="evenodd" d="M7.58887 16.8122C9.92647 13.0978 7.30802 8 2.67456 8H0L6.85617 46.5H35.6938V43.3886C35.6938 38.8006 31.8433 35.1526 27.262 35.4003L17.0356 35.953C16.98 35.637 16.908 35.2468 16.8182 34.7965C16.5674 33.5385 16.1774 31.8054 15.6198 29.9054C14.5195 26.1566 12.713 21.563 9.89557 18.7876C9.22027 18.1224 8.25957 17.3397 7.58887 16.8122ZM15.2039 37.1412L15.333 38.048L27.37 37.3973C30.8059 37.2116 33.6938 39.9476 33.6938 43.3886V44.5H8.53147L2.38763 10H2.67456C5.91643 10 7.64905 13.8183 5.51426 16.258C5.09501 16.7372 5.1655 17.4756 5.6786 17.8639C6.07328 18.1625 7.59814 19.3318 8.49207 20.2124C10.9184 22.6025 12.6119 26.7588 13.7007 30.4687C14.2376 32.298 14.6144 33.9714 14.8568 35.1875C14.9779 35.795 15.0651 36.2869 15.1219 36.6253C15.1503 36.7945 15.171 36.9253 15.1846 37.0128C15.1913 37.0566 15.1963 37.0895 15.1995 37.1111L15.2029 37.1348L15.2037 37.1401L15.2039 37.1412Z" />
<path d="M29.3005 22.9328C29.3005 24.2468 28.7785 25.0568 27.2665 25.0568C26.0425 25.0568 24.9085 24.9128 23.3965 24.5348V26.5148C24.7465 26.9288 26.1145 27.1628 27.4825 27.1628C30.3445 27.1628 31.8385 25.6868 31.8385 22.9328C31.8385 19.9628 30.2905 18.6308 27.2845 18.6308C26.8705 18.6308 26.6185 18.6308 26.2765 18.6848L26.4745 15.9848H30.9385L31.7485 13.9148H24.2965L23.8465 20.8988C24.7285 20.7728 25.7185 20.7008 26.5645 20.7008C28.5805 20.7008 29.3005 21.1508 29.3005 22.9328ZM37.7009 28.4228H40.0589L44.3789 13.0508H41.9669L37.7009 28.4228ZM50.8168 27.0008H53.4268L58.7368 15.6968V13.9148H50.1688V16.0028H56.0008L50.8168 27.0008Z" />
</svg>
