<svg width="50" height="50" viewBox="0 0 50 50" fill="none" xmlns="http://www.w3.org/2000/svg">
<path fill-rule="evenodd" clip-rule="evenodd" d="M8 5V13H10V5H8ZM7 3C6.44772 3 6 3.44772 6 4V14C6 14.5523 6.44772 15 7 15H11C11.5523 15 12 14.5523 12 14V10H22.1707C22.472 10.8524 23.1476 11.528 24 11.8293V38.1707C23.1476 38.472 22.472 39.1476 22.1707 40H12V36C12 35.4477 11.5523 35 11 35H7C6.44772 35 6 35.4477 6 36V46C6 46.5523 6.44772 47 7 47H11C11.5523 47 12 46.5523 12 46V42H22.1707C22.5825 43.1652 23.6938 44 25 44C26.3062 44 27.4175 43.1652 27.8293 42H38V46C38 46.5523 38.4477 47 39 47H43C43.5523 47 44 46.5523 44 46V36C44 35.4477 43.5523 35 43 35H39C38.4477 35 38 35.4477 38 36V40H27.8293C27.528 39.1476 26.8524 38.472 26 38.1707V11.8293C26.8524 11.528 27.528 10.8524 27.8293 10H38V14C38 14.5523 38.4477 15 39 15H43C43.5523 15 44 14.5523 44 14V4C44 3.44772 43.5523 3 43 3H39C38.4477 3 38 3.44772 38 4V8H27.8293C27.4175 6.83481 26.3062 6 25 6C23.6938 6 22.5825 6.83481 22.1707 8H12V4C12 3.44772 11.5523 3 11 3H7ZM40 13H42V5H40V13ZM8 37V45H10V37H8ZM42 45H40V37H42V45Z" fill="#000000" />
</svg>
