<?xml version="1.0"?>
<svg xmlns="http://www.w3.org/2000/svg" xmlns:xlink="http://www.w3.org/1999/xlink" xmlns:svgjs="http://svgjs.com/svgjs" version="1.1" width="512" height="512" x="0" y="0" viewBox="0 0 64 64" style="enable-background:new 0 0 512 512" xml:space="preserve"><g><g xmlns="http://www.w3.org/2000/svg" id="stock"><path d="m38 28h-12a1 1 0 0 0 -1 1v32a1 1 0 0 0 1 1h12a1 1 0 0 0 1-1v-32a1 1 0 0 0 -1-1zm-1 32h-10v-30h10z" data-original="#000000" style=""/><path d="m17 19h-12a1 1 0 0 0 -1 1v41a1 1 0 0 0 1 1h12a1 1 0 0 0 1-1v-41a1 1 0 0 0 -1-1zm-1 41h-10v-39h10z" data-original="#000000" style=""/><path d="m59 32h-12a1 1 0 0 0 -1 1v28a1 1 0 0 0 1 1h12a1 1 0 0 0 1-1v-28a1 1 0 0 0 -1-1zm-1 28h-10v-26h10z" data-original="#000000" style=""/><path d="m56.76 22.35a10.992 10.992 0 1 0 -16.76-9.35 10.837 10.837 0 0 0 1.34 5.25l-5.34 5.34-14.29-14.3a1.008 1.008 0 0 0 -1.42 0l-4.79 4.8-12.79-12.8-1.42 1.42 13.5 13.5a1.008 1.008 0 0 0 1.42 0l4.79-4.8 14.29 14.3a1.014 1.014 0 0 0 1.42 0l5.76-5.77a11 11 0 0 0 8.53 4.06 10.856 10.856 0 0 0 3.87-.72l6.42 6.43 1.42-1.42zm-5.76-.35a9 9 0 1 1 9-9 9.014 9.014 0 0 1 -9 9z" data-original="#000000" style=""/><path d="m50 10v2h2a2.006 2.006 0 0 1 2 2v2a2.006 2.006 0 0 1 -2 2v2h-2v-2h-2v-2h4v-2h-2a2.006 2.006 0 0 1 -2-2v-2a2.006 2.006 0 0 1 2-2v-2h2v2h2v2z" data-original="#000000" style=""/></g></g></svg>
