<?xml version="1.0"?>
<svg xmlns="http://www.w3.org/2000/svg" xmlns:xlink="http://www.w3.org/1999/xlink" xmlns:svgjs="http://svgjs.com/svgjs" version="1.1" width="512" height="512" x="0" y="0" viewBox="0 0 512 512" style="enable-background:new 0 0 512 512" xml:space="preserve"><g><g xmlns="http://www.w3.org/2000/svg" id="outline"><path d="m156.115 273.007-70.793 39.329-46.637 7.773a8 8 0 0 0 -6.275 5.361l-16 48a8 8 0 0 0 .435 6.108l16 32a8 8 0 0 0 5.215 4.183l23.057 5.764a47.96 47.96 0 0 0 84.425 2.475h220.916a47.953 47.953 0 0 0 83.084 0h30.458a8 8 0 0 0 7.845-6.431l8-40a8 8 0 0 0 -.69-5.147l-16-32a8 8 0 0 0 -6.023-4.341l-109.694-15.671-54.232-46.484a8 8 0 0 0 -5.206-1.926h-35.056l-13.789-27.578a8 8 0 0 0 -7.155-4.422h-24a8 8 0 0 0 -7.155 4.422l-13.789 27.578h-43.056a8.006 8.006 0 0 0 -3.885 1.007zm-52.115 158.993a32 32 0 1 1 32-32 32.036 32.036 0 0 1 -32 32zm120-56h-16v16h16v16h-72.679a47.468 47.468 0 0 0 0-16h8.679v-16h-14.458a47.983 47.983 0 0 0 -89.542 24c0 1.278.065 2.541.164 3.8l-10.654-2.669-12.872-25.745 13.428-40.286 43.249-7.208a7.989 7.989 0 0 0 2.57-.9l24.686-13.714 12.773 19.159a8 8 0 0 0 6.656 3.563h88zm184 56a32 32 0 1 1 32-32 32.036 32.036 0 0 1 -32 32zm58.719-80.673 12.9 25.8-6.178 30.873h-18.12a47.98 47.98 0 0 0 -88.863-32h-14.458v16h8.679a47.468 47.468 0 0 0 0 16h-120.679v-32h16v-16h-16v-24h119.432zm-165.678-63.327 37.333 32h-98.374v-32zm-72.1-32h14.112l8 16h-30.109zm-4.941 32v32h-83.719l-9.681-14.517 31.473-17.483z" data-original="#000000" style=""/><circle cx="408" cy="400" r="16" data-original="#000000" style=""/><circle cx="104" cy="400" r="16" data-original="#000000" style=""/><path d="m336 360h16v16h-16z" data-original="#000000" style=""/><path d="m320 376h16v16h-16z" data-original="#000000" style=""/><path d="m304 360h16v16h-16z" data-original="#000000" style=""/><path d="m288 376h16v16h-16z" data-original="#000000" style=""/><path d="m272 360h16v16h-16z" data-original="#000000" style=""/><path d="m256 376h16v16h-16z" data-original="#000000" style=""/><path d="m192 360h16v16h-16z" data-original="#000000" style=""/><path d="m176 376h16v16h-16z" data-original="#000000" style=""/><path d="m160 360h16v16h-16z" data-original="#000000" style=""/><path d="m272 120a32 32 0 1 0 -32 32 32.036 32.036 0 0 0 32-32zm-48 0a16 16 0 1 1 16 16 16.018 16.018 0 0 1 -16-16z" data-original="#000000" style=""/><path d="m240 223.883a8.176 8.176 0 0 0 6.682-3.479l47.3-67.573a55.144 55.144 0 0 0 10.018-31.778v-1.053a64 64 0 0 0 -60.4-63.9 62.886 62.886 0 0 0 -47.121 17.379 65.754 65.754 0 0 0 -20.479 47.574 55.149 55.149 0 0 0 10.017 31.778l47.311 67.587a8.168 8.168 0 0 0 6.672 3.465zm-48-102.83a49.688 49.688 0 0 1 15.478-35.953 47.077 47.077 0 0 1 32.568-13.1q1.329 0 2.669.074a47.993 47.993 0 0 1 45.285 47.926v1.054a39.227 39.227 0 0 1 -7.124 22.6l-40.876 58.394-40.876-58.393a39.227 39.227 0 0 1 -7.124-22.602z" data-original="#000000" style=""/><path d="m88 296a8 8 0 0 0 0-16h-16a8 8 0 0 0 0 16z" data-original="#000000" style=""/><path d="m104 248h-64a8 8 0 0 0 0 16h64a8 8 0 0 0 0-16z" data-original="#000000" style=""/><path d="m16 288a8 8 0 0 0 8 8h16a8 8 0 0 0 0-16h-16a8 8 0 0 0 -8 8z" data-original="#000000" style=""/></g></g></svg>
