<svg width="29" height="25" viewBox="0 0 29 25" fill="none" xmlns="http://www.w3.org/2000/svg">
<path fill-rule="evenodd" clip-rule="evenodd" d="M1.98626 11.2241C9.7122 7.86881 14.8555 5.63932 17.4382 4.55769C24.7888 1.48938 26.334 0.959605 27.3274 0.937531C27.5481 0.937531 28.0337 0.981679 28.3649 1.24657C28.6297 1.46731 28.696 1.75427 28.7401 1.97502C28.7843 2.19576 28.8284 2.65931 28.7843 3.0125C28.3869 7.20659 26.6651 17.3828 25.7822 22.0625C25.4069 24.0492 24.6785 24.7114 23.9721 24.7776C22.4269 24.91 21.257 23.7622 19.778 22.7909C17.4382 21.2678 16.1358 20.3186 13.8621 18.8176C11.2353 17.0958 12.935 16.1466 14.4361 14.6014C14.8334 14.2041 21.6102 8.02333 21.7426 7.47148C21.7647 7.40525 21.7647 7.14036 21.6102 7.00792C21.4556 6.87547 21.2349 6.91962 21.0583 6.96377C20.8155 7.00792 17.107 9.48022 9.8888 14.3586C8.82924 15.0871 7.88005 15.4402 7.01916 15.4182C6.06997 15.3961 4.25989 14.8884 2.8913 14.4469C1.23574 13.9171 -0.0887106 13.6302 0.02166 12.703C0.0878825 12.2174 0.750106 11.7318 1.98626 11.2241Z" fill="currentColor"/>
</svg>
