<svg width="103" height="102" viewBox="0 0 103 102" fill="none" xmlns="http://www.w3.org/2000/svg">
<path d="M81.5637 21.4671C81.5637 21.4671 88.2875 18.8241 87.7439 25.1997C87.5641 27.8248 85.9065 37.0156 84.6247 46.9552L80.2177 76.4007C80.2177 76.4007 79.8556 80.7135 76.4921 81.4727C73.1285 82.2316 68.0713 78.871 67.1342 78.1236C66.3848 77.5633 53.087 69.1631 48.4013 65.0515C47.0894 63.9302 45.5875 61.6846 48.5719 59.0518L68.1529 40.2511C70.3904 37.9953 72.6197 32.74 63.2885 39.1395L37.1611 57.0208C37.1611 57.0208 34.1746 58.9037 28.561 57.2318L16.3975 53.5154C16.3975 53.5154 11.9025 50.7156 19.5607 47.8825C38.2339 39.0202 61.2068 29.9588 81.5637 21.4671Z" fill="currentColor"/>
</svg>
