<svg version="1.1" id="Capa_1" xmlns="http://www.w3.org/2000/svg" xmlns:xlink="http://www.w3.org/1999/xlink" x="0px" y="0px" viewBox="0 0 25.6 29" style="enable-background:new 0 0 25.6 29;" xml:space="preserve"><style type="text/css">.st0{fill:#F00044;}.st1{fill:#08FFF9;}</style><path class="st0" d="M8.7,15c-2.3,0-4.2,1.9-4.1,4.2c0,1.5,0.8,2.7,2,3.5c-0.4-0.6-0.6-1.4-0.7-2.1c0-2.3,1.8-4.2,4.1-4.2 c0.5,0,0.9,0.1,1.3,0.2V12c-0.4-0.1-0.9-0.1-1.3-0.1c0,0,0,0-0.1,0v3.4C9.6,15.1,9.1,15,8.7,15z"></path><path class="st0" d="M18.6,1.3L18.6,1.3h-1.2c0.3,1.7,1.3,3.2,2.6,4.2C19.2,4.4,18.7,2.9,18.6,1.3z"></path><path class="st0" d="M25.6,8.3c-0.4,0-0.9,0-1.3-0.1v3.3c-1.5,0-3-0.3-4.5-0.9c-0.9-0.4-1.8-0.9-2.5-1.5l0,10.1 c0,2.3-0.9,4.4-2.5,6c-1.3,1.3-3,2.1-4.8,2.4c-0.4,0.1-0.9,0.1-1.3,0.1c-1.9,0-3.8-0.6-5.3-1.8c0.2,0.2,0.4,0.4,0.6,0.6 C5.5,28.1,7.7,29,10,29c0.4,0,0.9,0,1.3-0.1c1.8-0.3,3.5-1.1,4.8-2.4c1.6-1.6,2.5-3.7,2.5-6l-0.1-10.1c0.8,0.6,1.6,1.1,2.5,1.5 c1.4,0.6,2.9,0.9,4.5,0.9"></path><path class="st1" d="M3.9,14.4c1.6-1.6,3.8-2.5,6.1-2.5v-1.2c-0.4-0.1-0.9-0.1-1.3-0.1c-2.3,0-4.5,0.9-6.1,2.5 C0.9,14.7,0,16.9,0,19.1c0,2.3,0.9,4.4,2.5,6.1c0.3,0.3,0.5,0.5,0.8,0.7c-1.3-1.5-2-3.4-2-5.5C1.4,18.2,2.3,16,3.9,14.4z"></path><path class="st1" d="M24.3,8.2V6.9h0c-1.6,0-3-0.5-4.2-1.4C21.1,6.9,22.6,7.8,24.3,8.2z"></path><path class="st1" d="M9.8,24.5c0.5,0,1.1,0,1.5-0.2c1.6-0.5,2.8-2.1,2.8-3.9l0-6.8V1.3h3.3c-0.1-0.4-0.1-0.9-0.1-1.3h-4.5v12.4 l0,6.8c0,1.8-1.2,3.3-2.8,3.9c-0.5,0.2-1,0.2-1.5,0.2c-0.7,0-1.3-0.2-1.9-0.6C7.2,23.7,8.4,24.5,9.8,24.5L9.8,24.5z"></path><path d="M10,27.6c1.8-0.3,3.5-1.1,4.8-2.4c1.6-1.6,2.5-3.7,2.5-6l0-10.1c0.8,0.6,1.6,1.1,2.5,1.5c1.4,0.6,2.9,0.9,4.5,0.9V8.2 c-1.7-0.3-3.2-1.3-4.2-2.6c-1.3-1-2.3-2.5-2.6-4.2h-3.3v12.4l0,6.8c0,1.8-1.2,3.3-2.8,3.9c-0.5,0.2-1,0.2-1.5,0.2 c-1.4-0.1-2.6-0.8-3.3-1.9c-1.2-0.7-2-2-2-3.5c0-2.3,1.8-4.2,4.1-4.2c0.5,0,0.9,0.1,1.3,0.2v-3.4c-2.3,0-4.5,0.9-6.1,2.5 c-1.6,1.6-2.5,3.8-2.5,6c0,2,0.7,3.9,2,5.5c1.5,1.2,3.4,1.8,5.3,1.8C9.1,27.7,9.5,27.7,10,27.6L10,27.6z"></path></svg>