<svg id="_Слой_2" data-name="Слой 2" xmlns="http://www.w3.org/2000/svg" viewBox="0 0 48 48">
  <defs>
    <style>
      .cls-1 {
        fill: #07f;
      }

      .cls-2 {
        fill: #fff;
      }
    </style>
  </defs>
  <g id="_Слой_1-2" data-name="Слой 1">
    <path class="cls-1" d="M0,23.04C0,12.18,0,6.75,3.37,3.37S12.18,0,23.04,0h1.92c10.86,0,16.29,0,19.67,3.37,3.37,3.37,3.37,8.8,3.37,19.67v1.92c0,10.86,0,16.29-3.37,19.67-3.37,3.37-8.8,3.37-19.67,3.37h-1.92c-10.86,0-16.29,0-19.67-3.37C0,41.25,0,35.82,0,24.96v-1.92Z"></path>
    <path class="cls-2" d="M25.54,34.58c-10.94,0-17.18-7.5-17.44-19.98h5.48c.18,9.16,4.22,13.04,7.42,13.84V14.6h5.16v7.9c3.16-.34,6.48-3.94,7.6-7.9h5.16c-.86,4.88-4.46,8.48-7.02,9.96,2.56,1.2,6.66,4.34,8.22,10.02h-5.68c-1.22-3.8-4.26-6.74-8.28-7.14v7.14h-.62Z"></path>
  </g>
</svg>