<svg width="102" height="102" viewBox="0 0 102 102" fill="none" xmlns="http://www.w3.org/2000/svg">
<path d="M61.3773 50.7937C59.5263 50.1656 59.5197 47.7476 59.4005 46.064C58.9218 40.0674 61.2084 30.9043 58.4238 27.0188C56.4536 24.7071 46.9746 24.9452 41.1982 25.2775C39.5787 25.4941 37.6156 25.8126 36.2304 26.4495C34.8451 27.0864 33.461 28.1409 33.4636 29.0873C33.4673 30.4546 36.936 30.2363 38.2095 32.0211C39.6017 33.9133 39.6129 38.0152 39.6221 41.3829C39.6327 45.276 38.9514 50.4372 37.221 50.6508C34.562 50.7624 33.0538 48.3451 31.6619 46.5606C28.8785 43.0961 26.0927 38.7863 23.9989 34.5823C22.9536 32.3759 22.3663 29.9561 20.8621 29.0139C18.5464 27.5451 14.3852 27.4521 10.3391 27.5675C6.6408 27.682 1.32102 27.2755 0.287165 29.2788C-0.516809 31.4902 1.22359 33.5903 2.15313 35.3794C6.91661 44.7321 12.0246 52.9287 18.2891 60.6978C24.0899 67.9429 29.5353 73.7172 40.1771 76.7393C43.1864 77.573 56.3675 79.9585 59.0179 76.6879C59.9392 75.4225 59.7021 72.5808 60.1587 70.4747C60.6153 68.3686 61.1865 66.2622 63.3832 66.1518C65.2322 66.0424 66.2756 67.5113 67.4361 68.5622C68.7116 69.7172 69.7535 70.6607 70.681 71.7123C72.8835 73.7067 75.2026 76.435 77.9794 77.4815C81.7967 78.9462 87.6912 78.5091 93.2385 78.2818C97.7469 78.1651 100.981 77.3144 101.322 74.8921C101.55 72.9954 99.227 70.2671 97.8357 68.6915C94.3558 64.8078 92.7363 63.6538 88.7949 60.0846C87.0559 58.5099 84.8544 56.832 84.8492 54.9393C84.7314 53.7812 85.7678 52.7276 86.6893 51.5666C90.7207 46.083 94.7564 42.1789 98.4395 36.4841C99.4742 34.7974 101.894 30.8977 100.964 29.0042C99.9187 26.9022 94.1395 27.5478 90.5555 27.5575C85.9322 27.5701 79.9211 27.27 78.7657 28.1151C76.5725 29.4883 75.6539 31.7035 74.6203 33.8111C72.3219 38.6602 69.2137 43.6125 65.9874 47.3056C64.8332 48.5717 62.6471 51.2078 61.3736 50.7903L61.3773 50.7937Z" fill="currentColor"/>
</svg>
