<?xml version="1.0"?>
<svg xmlns="http://www.w3.org/2000/svg" xmlns:xlink="http://www.w3.org/1999/xlink" xmlns:svgjs="http://svgjs.com/svgjs" version="1.1" width="512" height="512" x="0" y="0" viewBox="0 0 128 128" style="enable-background:new 0 0 512 512" xml:space="preserve" class=""><g><g xmlns="http://www.w3.org/2000/svg" fill="rgb(0,0,0)"><path d="m89.249 39.321a1.75 1.75 0 0 0 -1.237.513l-30.478 30.478-17.54-17.541a1.8 1.8 0 0 0 -2.474 0l-7.071 7.072a1.75 1.75 0 0 0 0 2.474l25.851 25.849a1.748 1.748 0 0 0 2.474 0l38.783-38.786a1.751 1.751 0 0 0 0-2.475l-7.071-7.071a1.75 1.75 0 0 0 -1.237-.513zm-31.715 45.133-23.373-23.374 4.6-4.6 17.539 17.543a1.748 1.748 0 0 0 2.474 0l30.475-30.477 4.6 4.6z" data-original="#000000" style="" class=""/><path d="m64 16.332a47.668 47.668 0 1 0 47.668 47.668 47.722 47.722 0 0 0 -47.668-47.668zm0 91.836a44.168 44.168 0 1 1 44.168-44.168 44.218 44.218 0 0 1 -44.168 44.168z" data-original="#000000" style="" class=""/><path d="m126.029 69.613a8.925 8.925 0 0 0 0-11.226l-2.868-3.58a5.483 5.483 0 0 1 -.983-4.959l1.28-4.391a9.035 9.035 0 0 0 -4.306-10.389l-4.007-2.2a5.482 5.482 0 0 1 -2.815-4.2l-.5-4.555a8.924 8.924 0 0 0 -7.941-7.941l-4.555-.5a5.479 5.479 0 0 1 -4.2-2.814l-2.2-4.008a8.924 8.924 0 0 0 -10.39-4.306l-4.39 1.279a5.491 5.491 0 0 1 -4.961-.984l-3.58-2.868a8.928 8.928 0 0 0 -11.226 0l-3.58 2.868a5.5 5.5 0 0 1 -4.959.983l-4.391-1.28a9.033 9.033 0 0 0 -10.389 4.306l-2.2 4.007a5.482 5.482 0 0 1 -4.2 2.815l-4.555.5a8.924 8.924 0 0 0 -7.941 7.941l-.5 4.555a5.479 5.479 0 0 1 -2.814 4.2l-4.008 2.2a8.927 8.927 0 0 0 -4.306 10.39l1.281 4.389a5.491 5.491 0 0 1 -.984 4.961l-2.868 3.58a8.925 8.925 0 0 0 0 11.226l2.868 3.58a5.483 5.483 0 0 1 .983 4.959l-1.28 4.391a9.035 9.035 0 0 0 4.304 10.39l4.007 2.2a5.482 5.482 0 0 1 2.815 4.2l.5 4.555a8.924 8.924 0 0 0 7.941 7.941l4.555.5a5.479 5.479 0 0 1 4.2 2.814l2.2 4.008a8.924 8.924 0 0 0 10.39 4.306l4.389-1.281a5.5 5.5 0 0 1 4.961.984l3.58 2.868a8.925 8.925 0 0 0 11.226 0l3.58-2.868a5.486 5.486 0 0 1 4.959-.983l4.391 1.28a8.926 8.926 0 0 0 10.389-4.306l2.2-4.007a5.482 5.482 0 0 1 4.2-2.815l4.555-.5a8.924 8.924 0 0 0 7.941-7.941l.5-4.555a5.479 5.479 0 0 1 2.814-4.2l4.008-2.2a8.927 8.927 0 0 0 4.306-10.39l-1.281-4.389a5.491 5.491 0 0 1 .984-4.961zm-5.6 1.393a8.993 8.993 0 0 0 -1.612 8.128l1.282 4.389a5.447 5.447 0 0 1 -2.628 6.339l-4.009 2.2a8.98 8.98 0 0 0 -4.61 6.891l-.5 4.555a5.45 5.45 0 0 1 -4.846 4.846l-4.556.5a8.984 8.984 0 0 0 -6.89 4.611l-2.2 4.008a5.45 5.45 0 0 1 -6.338 2.628l-4.39-1.281a8.984 8.984 0 0 0 -8.127 1.611l-3.58 2.868a5.446 5.446 0 0 1 -6.852 0l-3.58-2.868a8.991 8.991 0 0 0 -8.128-1.612l-4.388 1.281a5.453 5.453 0 0 1 -6.339-2.628l-2.2-4.009a8.98 8.98 0 0 0 -6.891-4.61l-4.555-.5a5.45 5.45 0 0 1 -4.846-4.846l-.5-4.556a8.984 8.984 0 0 0 -4.611-6.89l-4.008-2.2a5.512 5.512 0 0 1 -2.627-6.338l1.281-4.39a8.988 8.988 0 0 0 -1.611-8.127l-2.87-3.58a5.448 5.448 0 0 1 0-6.852l2.868-3.58a8.993 8.993 0 0 0 1.612-8.128l-1.28-4.389a5.447 5.447 0 0 1 2.628-6.339l4.009-2.2a8.98 8.98 0 0 0 4.61-6.891l.5-4.555a5.45 5.45 0 0 1 4.853-4.843l4.556-.5a8.984 8.984 0 0 0 6.89-4.611l2.2-4.008a5.516 5.516 0 0 1 6.331-2.63l4.39 1.281a8.986 8.986 0 0 0 8.127-1.611l3.58-2.87a5.447 5.447 0 0 1 6.852 0l3.58 2.868a9 9 0 0 0 8.128 1.612l4.389-1.28a5.454 5.454 0 0 1 6.339 2.628l2.2 4.009a8.98 8.98 0 0 0 6.891 4.61l4.555.5a5.45 5.45 0 0 1 4.846 4.846l.5 4.556a8.984 8.984 0 0 0 4.611 6.89l4.008 2.2a5.513 5.513 0 0 1 2.628 6.338l-1.281 4.39a8.988 8.988 0 0 0 1.611 8.127l2.868 3.58a5.448 5.448 0 0 1 0 6.852z" data-original="#000000" style="" class=""/></g></g></svg>
