<svg xmlns="http://www.w3.org/2000/svg" width="96" height="96" viewBox="0 0 96 96">
    <g fill="none" fill-rule="evenodd" stroke="currentColor" stroke-width="2">
        <path d="M95 48c0 25.957-21.043 47-47 47S1 73.957 1 48C1 22.042 22.043 1 48 1s47 21.042 47 47z"/>
        <path d="M86 48c0 20.987-17.013 38-38 38S10 68.987 10 48s17.013-38 38-38 38 17.013 38 38z"/>
        <path d="M56 48a8 8 0 1 1-16 0 8 8 0 0 1 16 0zM48 29c12.416 0 24.18 1.286 34.728 3.575C76.812 19.277 63.493 10 48 10c-15.493 0-28.812 9.277-34.728 22.575C23.82 30.286 35.584 29 48 29zM10.067 50.191c.981 17.245 13.46 31.406 29.892 34.948.025-.544.041-1.09.041-1.639 0-17.296-13.109-31.528-29.933-33.309zM85.933 50.191C69.109 51.972 56 66.204 56 83.501c0 .548.016 1.094.04 1.638 16.434-3.542 28.912-17.703 29.893-34.948z"/>
    </g>
</svg>
