<svg width="120" height="120" viewBox="0 0 120 120" fill="none" xmlns="http://www.w3.org/2000/svg">
<rect width="120" height="120" fill="black"/>
<path d="M76.0893 55H62.2381C61.9357 55 61.6484 55.121 61.4367 55.3327C61.225 55.5444 61.104 55.8317 61.104 56.1341V64.1484C61.104 64.4509 61.225 64.7382 61.4367 64.965C61.6484 65.1767 61.9357 65.2977 62.2381 65.2977H76.0893C76.3917 65.2977 76.679 65.1767 76.8907 64.965C77.1024 64.7533 77.2234 64.466 77.2234 64.1484V56.1341C77.2234 55.8317 77.1024 55.5444 76.8907 55.3327C76.6941 55.121 76.4068 55 76.0893 55ZM64.1736 63.1353V57.1624V57.1472C64.1736 57.1472 64.1736 57.1321 64.1888 57.1321L64.2039 57.117H64.219H74.1235H74.1386C74.1386 57.117 74.1537 57.117 74.1537 57.1321L74.1689 57.1472V57.1624V63.1202C74.1689 63.1353 74.1689 63.1504 74.1537 63.1504C74.1386 63.1655 74.1235 63.1655 74.1235 63.1655H64.219H64.2039C64.2039 63.1655 64.1888 63.1655 64.1888 63.1504C64.1888 63.1353 64.1736 63.1353 64.1736 63.1353Z" fill="white"/>
<path d="M21.2742 55H18.4163C18.3861 55 18.3558 55.0151 18.3407 55.0302C18.3256 55.0454 18.3105 55.0756 18.3105 55.1058V63.1353V63.1504C18.3105 63.1504 18.3105 63.1655 18.2953 63.1655L18.2802 63.1807H18.2651H8.82936C8.81424 63.1807 8.79911 63.1807 8.79911 63.1655C8.78399 63.1504 8.78399 63.1353 8.78399 63.1353V61.4266C8.78399 61.3963 8.76887 61.3661 8.75375 61.351C8.73863 61.3359 8.70839 61.3207 8.67814 61.3207H5.82021C5.78996 61.3207 5.75972 61.3359 5.7446 61.351C5.72948 61.3812 5.71436 61.3963 5.71436 61.4266V64.1484C5.71436 64.4509 5.83533 64.7382 6.04703 64.965C6.25872 65.1767 6.54603 65.2977 6.84846 65.2977H20.2309C20.5333 65.2977 20.8206 65.1767 21.0323 64.965C21.244 64.7533 21.365 64.466 21.365 64.1484V55.1058C21.365 55.0907 21.365 55.0756 21.3498 55.0605C21.3498 55.0454 21.3347 55.0302 21.3347 55.0302C21.3196 55.0151 21.3196 55.0151 21.3045 55.0151C21.3045 55 21.2894 55 21.2742 55Z" fill="white"/>
<path d="M58.261 55H42.5348C42.5046 55 42.4743 55.0151 42.4592 55.0302C42.4441 55.0454 42.429 55.0756 42.429 55.1059V57.0111C42.429 57.0414 42.4441 57.0716 42.4592 57.0868C42.4743 57.1019 42.5046 57.117 42.5348 57.117H48.8102H48.8253C48.8253 57.117 48.8404 57.117 48.8404 57.1321L48.8555 57.1472V57.1624V65.1918C48.8555 65.222 48.8707 65.2523 48.8858 65.2674C48.9009 65.2825 48.9311 65.2977 48.9614 65.2977H51.8193C51.8496 65.2977 51.8798 65.2825 51.8949 65.2674C51.9101 65.2523 51.9252 65.222 51.9252 65.1918V57.1624V57.1472C51.9252 57.1472 51.9252 57.1321 51.9403 57.1321L51.9554 57.117H51.9705H58.2459C58.2761 57.117 58.3064 57.1019 58.3215 57.0868C58.3366 57.0716 58.3518 57.0414 58.3518 57.0111V55.1059C58.3518 55.0756 58.3366 55.0454 58.3215 55.0302C58.3215 55.0151 58.2913 55 58.261 55Z" fill="white"/>
<path d="M95.4596 55H92.6017C92.5714 55 92.5412 55.0151 92.5261 55.0302C92.511 55.0454 92.4958 55.0756 92.4958 55.1059V63.1353V63.1504C92.4958 63.1504 92.4958 63.1655 92.4807 63.1655C92.4656 63.1655 92.4656 63.1807 92.4656 63.1807H92.4505H83.1055H83.0903C83.0903 63.1807 83.0752 63.1807 83.0752 63.1655L83.0601 63.1504V63.1353V55.1059C83.0601 55.0907 83.0601 55.0756 83.045 55.0605C83.045 55.0454 83.0299 55.0302 83.0147 55.0302C82.9996 55.0151 82.9996 55.0151 82.9845 55.0151C82.9694 55.0151 82.9543 55 82.9391 55H80.0812C80.0661 55 80.0509 55 80.0358 55.0151C80.0207 55.0151 80.0056 55.0302 80.0056 55.0302C79.9905 55.0454 79.9905 55.0454 79.9905 55.0605C79.9905 55.0756 79.9753 55.0907 79.9753 55.1059V64.1484C79.9753 64.4509 80.0963 64.7382 80.308 64.965C80.5197 65.1767 80.807 65.2977 81.1094 65.2977H94.4162C94.7187 65.2977 95.006 65.1767 95.2177 64.965C95.4294 64.7533 95.5503 64.466 95.5503 64.1484V55.1059C95.5503 55.0756 95.5352 55.0454 95.5201 55.0302C95.5201 55.0151 95.4899 55 95.4596 55Z" fill="white"/>
<path d="M114.24 65.1162L108.404 61.109H112.955C113.258 61.109 113.545 60.9881 113.757 60.7764C113.968 60.5647 114.089 60.2774 114.089 59.9749V56.1492C114.089 55.998 114.059 55.8468 113.998 55.7107C113.938 55.5746 113.862 55.4385 113.757 55.3327C113.651 55.2268 113.53 55.1512 113.378 55.0907C113.242 55.0302 113.091 55 112.94 55H98.4083C98.3932 55 98.3781 55 98.363 55.0151C98.3479 55.0151 98.3327 55.0302 98.3327 55.0302C98.3176 55.0454 98.3176 55.0454 98.3176 55.0605C98.3176 55.0756 98.3025 55.0907 98.3025 55.1059V65.1918C98.3025 65.222 98.3176 65.2523 98.3327 65.2674C98.3479 65.2825 98.3781 65.2977 98.4083 65.2977H101.266C101.297 65.2977 101.327 65.2825 101.342 65.2674C101.357 65.2523 101.372 65.222 101.372 65.1918V59.3701L109.961 65.2674C110.006 65.2977 110.052 65.3128 110.112 65.3128H114.195C114.21 65.3128 114.24 65.3128 114.256 65.2977C114.271 65.2825 114.286 65.2674 114.286 65.2523C114.286 65.2372 114.286 65.2069 114.286 65.1918C114.271 65.1464 114.256 65.1162 114.24 65.1162ZM101.417 57.117H110.974H110.989C110.989 57.117 111.004 57.117 111.004 57.1321L111.02 57.1472V57.1624V58.9316V58.9467C111.02 58.9467 111.02 58.9618 111.004 58.9618L110.989 58.9769H110.974H101.417H101.402C101.402 58.9769 101.387 58.9769 101.387 58.9618L101.372 58.9467V58.9316V57.1624V57.1472C101.372 57.1472 101.372 57.1321 101.387 57.1321L101.402 57.117H101.417Z" fill="white"/>
<path d="M39.5861 57.117C39.6163 57.117 39.6466 57.1019 39.6617 57.0868C39.6768 57.0716 39.692 57.0414 39.692 57.0111V55.1059C39.692 55.0907 39.692 55.0756 39.6768 55.0605C39.6768 55.0454 39.6617 55.0302 39.6617 55.0302C39.6466 55.0151 39.6466 55.0151 39.6315 55.0151C39.6163 55 39.6012 55 39.5861 55H25.2662C25.115 55 24.9637 55.0302 24.8276 55.0907C24.6916 55.1512 24.5555 55.2268 24.4496 55.3327C24.3438 55.4385 24.253 55.5595 24.2077 55.7107C24.1472 55.8468 24.1169 55.998 24.1169 56.1492V64.1636C24.1169 64.466 24.2379 64.7533 24.4496 64.9801C24.6613 65.1918 24.9486 65.3128 25.251 65.3128H39.5861C39.6163 65.3128 39.6466 65.2977 39.6617 65.2825C39.6768 65.2674 39.692 65.2372 39.692 65.2069V63.2865C39.692 63.2714 39.692 63.2563 39.6768 63.2411C39.6768 63.226 39.6617 63.2109 39.6617 63.2109C39.6466 63.1958 39.6466 63.1958 39.6315 63.1807C39.6163 63.1807 39.6012 63.1655 39.5861 63.1655H27.2319H27.2168C27.2168 63.1655 27.2017 63.1655 27.2017 63.1504L27.1866 63.1353V63.1202V61.2603V61.2451C27.1866 61.2451 27.1866 61.23 27.2017 61.23C27.2168 61.23 27.2168 61.2149 27.2168 61.2149H27.2319H38.7847C38.7998 61.2149 38.8149 61.2149 38.83 61.2149C38.8452 61.2149 38.8603 61.1998 38.8603 61.1998C38.8754 61.1846 38.8754 61.1846 38.8905 61.1695C38.8905 61.1544 38.9056 61.1393 38.9056 61.1242V59.2037C38.9056 59.1886 38.9056 59.1735 38.8905 59.1584C38.8905 59.1433 38.8754 59.1281 38.8603 59.1281C38.8452 59.113 38.8452 59.113 38.83 59.113C38.8149 59.113 38.7998 59.0979 38.7847 59.0979H27.2319C27.2168 59.0979 27.2017 59.0979 27.2017 59.0828C27.1866 59.0677 27.1866 59.0525 27.1866 59.0525V57.1624V57.1472C27.1866 57.1472 27.1866 57.1321 27.2017 57.1321L27.2168 57.117H27.2319H39.5861Z" fill="white"/>
</svg>
