<svg viewBox="0 0 168 168" fill="none" xmlns="http://www.w3.org/2000/svg">
<rect fill="white"/>
<path fill-rule="evenodd" clip-rule="evenodd" d="M76.9527 58.0223C64.2537 58.2678 36.6667 58.8752 28.8058 59.6413C18.4889 60.6468 15.4915 60.4186 13.1831 64.2587C10.8746 68.0989 11.317 76.8307 12.5932 83.2311C13.872 89.6315 14.9526 91.5061 18.4407 94.6606C25.1931 100.769 54.1505 106.394 71.952 108.628C83.1002 110.028 85.9908 109.947 97.3449 108.463C115.223 106.125 142.967 100.623 149.56 94.6606C153.048 91.5063 154.128 89.6315 155.407 83.2311C156.683 76.8307 157.126 68.0989 154.817 64.2587C152.509 60.4186 149.511 60.647 139.194 59.6413C132.089 58.9487 108.857 58.3858 95.0822 58.1027C88.8077 57.9736 83.1713 57.902 76.9527 58.0223Z" fill="white"/>
<path d="M76.9602 59.2753C70.612 59.4029 60.5214 59.6263 50.9673 59.9173C41.5149 60.2063 32.665 60.563 28.7497 60.9596L25.2744 61.2952C18.4965 61.9343 16.2109 62.1507 14.7287 64.7125V64.721C13.8618 66.2193 13.4575 68.7473 13.3711 71.641C13.2592 75.3691 13.6965 79.6033 14.3753 83.1398C14.9778 86.2867 15.5219 88.2951 16.2999 89.8486C17.0346 91.3187 18.0566 92.4758 19.6278 93.9545C22.2718 96.4414 29.0523 98.9468 37.3098 101.188C48.4631 104.216 62.1155 106.663 72.1806 107.977C77.6899 108.695 81.1424 109.035 84.5568 109.004C87.961 108.973 91.4796 108.569 97.116 107.804C107.194 106.434 120.419 104.012 131.194 101.051C139.222 98.8433 145.784 96.3893 148.372 93.9545C149.943 92.4758 150.963 91.3187 151.7 89.8486C152.476 88.2951 153.022 86.2867 153.625 83.1398C154.304 79.6033 154.741 75.3691 154.629 71.641C154.542 68.7473 154.138 66.2193 153.271 64.721V64.7125C151.792 62.1515 149.504 61.9343 142.726 61.2952L139.25 60.9596C135.711 60.601 128.145 60.2753 119.75 60.0033C111.251 59.7278 101.982 59.5065 95.0948 59.3599C91.9347 59.2923 88.9448 59.2394 85.9983 59.2203C83.039 59.2013 80.0746 59.2133 76.9602 59.2753ZM50.83 55.7058C60.3028 55.4168 70.4595 55.1919 76.8738 55.0637C80.0085 55.0009 83.0059 54.989 86.0161 55.0087C89.0389 55.0284 92.0389 55.0813 95.1812 55.1483C102.14 55.2969 111.468 55.5182 119.888 55.7917C128.412 56.0672 136.095 56.3985 139.695 56.7636L143.135 57.099C151.614 57.8989 154.476 58.1709 157.072 62.6582C158.31 64.7894 158.877 67.996 158.981 71.5254C159.101 75.5623 158.633 80.115 157.909 83.8996C157.23 87.4411 156.587 89.759 155.626 91.6823C154.621 93.6873 153.342 95.1603 151.41 96.9778C148.245 99.9554 141.03 102.734 132.373 105.114C121.413 108.127 107.959 110.59 97.7109 111.983C91.9347 112.767 88.2915 113.183 84.5898 113.216C80.8983 113.249 77.2933 112.898 71.601 112.156C61.3579 110.819 47.4716 108.33 36.1327 105.252C27.2523 102.841 19.8159 100.012 16.5897 96.9778C14.6575 95.1603 13.3787 93.688 12.3745 91.6823C11.4109 89.759 10.7703 87.4411 10.0915 83.8996C9.36689 80.115 8.89911 75.5623 9.0186 71.5254C9.12283 67.996 9.68976 64.7894 10.9228 62.6561C13.5236 58.1709 16.3863 57.8989 24.865 57.099L28.3048 56.7636C32.2861 56.3604 41.2555 55.9982 50.83 55.7058Z" fill="#202020"/>
<path fill-rule="evenodd" clip-rule="evenodd" d="M50.6269 97.7403H77.9012C80.6241 97.7403 83.3647 95.6603 84.0257 93.0939L85.4418 87.5017C85.9249 85.6241 84.9461 84.0977 83.2554 84.035C84.3079 83.7444 85.1571 82.9627 85.6198 81.4127L87.2443 75.1149C87.9104 72.5499 86.2376 70.4765 83.5122 70.4765H47.1083L45.321 77.1983H77.741C79.1012 77.1983 79.4521 78.0799 79.1699 79.1708C78.8953 80.261 78.0945 81.1494 76.7267 81.1494H62.1184H58.5921H55.0557L50.6269 97.7403ZM60.5319 87.0642H76.5538C77.9165 87.0642 78.2749 87.9526 78.0004 89.0428C77.7258 90.1355 76.9224 91.022 75.5623 91.022H59.4819L60.5319 87.0642Z" fill="#202020"/>
<path fill-rule="evenodd" clip-rule="evenodd" d="M88.1082 97.7403H111.31C114.04 97.7403 116.799 95.6637 117.482 93.1074L120.658 81.1494H107.641L106.072 87.0642H112.024C112.024 87.0642 111.798 87.9526 111.505 89.0428C111.216 90.1355 109.876 91.022 108.513 91.022H94.4717C93.109 91.022 92.2802 89.9834 92.6158 88.707L95.0565 79.5066C95.3997 78.2302 96.7853 77.1983 98.1429 77.1983H121.703C121.703 77.1983 122.104 75.6955 122.595 73.8384C123.093 71.9809 121.278 70.4765 118.553 70.4765H95.3336C92.6107 70.4765 89.8421 72.5499 89.1658 75.1115L89.1048 75.27C89.0819 75.3647 89.0692 75.4556 89.0438 75.5523L87.4193 81.8521C87.1752 82.649 86.8625 83.289 86.5015 83.8071C86.5015 83.8071 86.5116 83.8172 86.5193 83.8293C87.3659 84.918 87.6328 86.4156 87.2388 87.9354L85.8201 93.5227C85.6015 94.3838 85.2074 95.1909 84.6964 95.9204C85.3015 97.0211 86.5193 97.7403 88.1082 97.7403Z" fill="#202020"/>
</svg>
