<svg width="120" height="120" viewBox="0 0 120 120" fill="none" xmlns="http://www.w3.org/2000/svg">
<rect width="120" height="120" fill="black"/>
<path d="M74.8254 55H62.0654C61.4842 55 61.0129 55.4711 61.0129 56.0521V63.4223C61.0129 64.0037 61.4842 64.4745 62.0654 64.4745H74.8254C75.4071 64.4745 75.8779 64.0037 75.8779 63.4223V56.0521C75.8779 55.4711 75.4071 55 74.8254 55ZM73.051 62.4814C73.051 62.5082 73.0303 62.5294 73.0035 62.5294H63.8881C63.8613 62.5294 63.8396 62.5082 63.8396 62.4814V56.9931C63.8396 56.9666 63.8613 56.9456 63.8881 56.9456H73.0035C73.0303 56.9456 73.051 56.9666 73.051 56.9931V62.4814Z" fill="white"/>
<path d="M58.3983 55H43.9071C43.8543 55 43.8123 55.043 43.8123 55.0955V56.8501C43.8123 56.9021 43.8543 56.9456 43.9071 56.9456H49.6908C49.718 56.9456 49.7386 56.9666 49.7386 56.9931V64.3796C49.7386 64.4313 49.7825 64.4745 49.8354 64.4745H52.4704C52.5232 64.4745 52.5663 64.4313 52.5663 64.3796V56.9931C52.5663 56.9666 52.5877 56.9456 52.6146 56.9456H58.3983C58.4512 56.9456 58.4935 56.9021 58.4935 56.8501V55.0955C58.4935 55.043 58.4512 55 58.3983 55Z" fill="white"/>
<path d="M92.6606 55H90.0247C89.9717 55 89.9289 55.043 89.9289 55.0955V62.4814C89.9289 62.5082 89.908 62.5294 89.8812 62.5294H81.2724C81.2456 62.5294 81.2249 62.5082 81.2249 62.4814V55.0955C81.2249 55.043 81.1818 55 81.1281 55H78.4932C78.4403 55 78.3972 55.043 78.3972 55.0955V63.4223C78.3972 64.0037 78.8688 64.4745 79.4497 64.4745H91.7038C92.285 64.4745 92.7555 64.0037 92.7555 63.4223V55.0955C92.7555 55.043 92.7135 55 92.6606 55Z" fill="white"/>
<path d="M104.577 60.6121H108.767C109.349 60.6121 109.821 60.1413 109.821 59.5591V56.0531C109.821 55.4707 109.349 55 108.767 55H95.3709C95.3172 55 95.2749 55.043 95.2749 55.0955V64.3796C95.2749 64.4313 95.3172 64.4745 95.3709 64.4745H98.0068C98.0587 64.4745 98.1017 64.4313 98.1017 64.3796V59.0139L106.01 64.4332C106.05 64.46 106.097 64.4745 106.146 64.4745H109.904C109.998 64.4745 110.036 64.3534 109.958 64.3005L104.577 60.6121ZM98.1017 58.6189V56.9931C98.1017 56.9666 98.1232 56.945 98.1503 56.945H106.945C106.971 56.945 106.994 56.9666 106.994 56.9931V58.6189C106.994 58.6454 106.971 58.6666 106.945 58.6666H98.1503C98.1232 58.6666 98.1017 58.6454 98.1017 58.6189Z" fill="white"/>
<path d="M41.1968 55H28.0002C27.4193 55 26.9478 55.4707 26.9478 56.0531V63.4223C26.9478 64.0037 27.4193 64.4745 28.0002 64.4745H41.1968C41.2496 64.4745 41.2919 64.4313 41.2919 64.3796V62.6244C41.2919 62.5724 41.2496 62.5289 41.1968 62.5289H29.8229C29.796 62.5289 29.7747 62.5079 29.7747 62.4814V60.7581C29.7747 60.7313 29.796 60.7103 29.8229 60.7103H40.4688C40.5218 60.7103 40.5648 60.6672 40.5648 60.6138V58.8606C40.5648 58.8073 40.5218 58.7652 40.4688 58.7652H29.8229C29.796 58.7652 29.7747 58.7427 29.7747 58.7171V56.9931C29.7747 56.9666 29.796 56.945 29.8229 56.945H41.1968C41.2496 56.945 41.2919 56.9021 41.2919 56.8501V55.0955C41.2919 55.043 41.2496 55 41.1968 55Z" fill="white"/>
<path d="M10.0952 62.5296C10.0423 62.5296 10 62.5727 10 62.6249V64.3795C10 64.4319 10.0423 64.4745 10.0952 64.4745C14.5221 64.4745 18.9489 64.4745 23.3758 64.4745C23.9578 64.4745 24.4284 64.0039 24.4284 63.4221V55.0953C24.4284 55.0431 24.3864 55 24.3324 55H21.6976C21.6447 55 21.6013 55.0431 21.6013 55.0953V62.4812C21.6013 62.508 21.5801 62.5293 21.5541 62.5293C17.7344 62.5293 13.9146 62.5296 10.0952 62.5296Z" fill="white"/>
</svg>
