<svg width="59" height="24" viewBox="0 0 59 24" fill="none" xmlns="http://www.w3.org/2000/svg">
<path fill-rule="evenodd" clip-rule="evenodd" d="M26.7283 1.22839C21.7333 1.32818 10.8823 1.57504 7.79033 1.88642C3.73233 2.29509 2.55335 2.20237 1.64535 3.76313C0.737346 5.32393 0.911336 8.8729 1.41334 11.4743C1.91634 14.0757 2.34134 14.8376 3.71334 16.1197C6.36934 18.6024 17.7593 20.8887 24.7613 21.7968C29.1463 22.3655 30.2833 22.3327 34.7493 21.7294C41.7813 20.7792 52.6943 18.5429 55.2873 16.1197C56.6593 14.8377 57.0844 14.0757 57.5873 11.4743C58.0893 8.8729 58.2633 5.32393 57.3553 3.76313C56.4473 2.20237 55.2683 2.29519 51.2104 1.88642C48.4154 1.60492 39.2773 1.37615 33.8593 1.26109C31.3913 1.20862 29.1743 1.1795 26.7283 1.22839Z" fill="#202020"/>
<path d="M26.7313 1.73765C24.2343 1.7895 20.2653 1.88031 16.5073 1.99861C12.7893 2.11607 9.30832 2.26101 7.76832 2.42224L6.40131 2.55862C3.73531 2.8184 2.83632 2.90634 2.25332 3.94756V3.95101C1.91232 4.55999 1.75331 5.58745 1.71931 6.76357C1.67531 8.27884 1.84731 9.99977 2.11431 11.4372C2.35131 12.7162 2.56531 13.5325 2.87131 14.1639C3.16031 14.7614 3.5623 15.2317 4.1803 15.8327C5.2203 16.8435 7.88731 17.8618 11.1353 18.7727C15.5223 20.0032 20.8923 20.9981 24.8513 21.532C27.0183 21.8239 28.3763 21.9619 29.7193 21.9494C31.0583 21.937 32.4423 21.7726 34.6593 21.4616C38.6233 20.9047 43.8253 19.9205 48.0633 18.7169C51.2213 17.8197 53.8023 16.8223 54.8203 15.8327C55.4383 15.2317 55.8393 14.7614 56.1293 14.1639C56.4343 13.5325 56.6493 12.7162 56.8863 11.4372C57.1533 9.99977 57.3253 8.27884 57.2813 6.76357C57.2473 5.58745 57.0883 4.55999 56.7473 3.95101V3.94756C56.1653 2.90664 55.2653 2.8184 52.5993 2.55862L51.2323 2.42224C49.8403 2.27647 46.8643 2.14411 43.5623 2.03355C40.2193 1.92155 36.5733 1.83161 33.8643 1.77202C32.6213 1.74455 31.4453 1.72305 30.2863 1.71532C29.1223 1.70759 27.9563 1.71244 26.7313 1.73765ZM16.4533 0.286849C20.1793 0.169388 24.1743 0.078004 26.6973 0.025888C27.9303 0.00038 29.1093 -0.00447099 30.2933 0.00352601C31.4823 0.011561 32.6623 0.033051 33.8983 0.060265C36.6353 0.120682 40.3043 0.210629 43.6163 0.321789C46.9693 0.433759 49.9913 0.568389 51.4073 0.716779L52.7603 0.853109C56.0953 1.17824 57.2213 1.2888 58.2423 3.1126C58.7293 3.97879 58.9523 5.28211 58.9933 6.71661C59.0403 8.35734 58.8563 10.2078 58.5713 11.746C58.3043 13.1854 58.0513 14.1275 57.6733 14.9092C57.2783 15.7241 56.7753 16.3228 56.0153 17.0615C54.7703 18.2717 51.9323 19.4012 48.5273 20.3685C44.2163 21.593 38.9243 22.5939 34.8933 23.1602C32.6213 23.479 31.1883 23.648 29.7323 23.6612C28.2803 23.6746 26.8623 23.5322 24.6233 23.2306C20.5943 22.6872 15.1323 21.6755 10.6723 20.4244C7.17931 19.4447 4.25431 18.2946 2.98531 17.0615C2.22531 16.3228 1.72231 15.7244 1.32731 14.9092C0.948307 14.1275 0.696312 13.1854 0.429312 11.746C0.144312 10.2078 -0.0396847 8.35734 0.00731528 6.71661C0.0483153 5.28211 0.271308 3.97879 0.756308 3.11173C1.77931 1.2888 2.90532 1.17824 6.24032 0.853109L7.59331 0.716779C9.15931 0.552919 12.6873 0.405709 16.4533 0.286849Z" fill="#CCCCCC"/>
<path fill-rule="evenodd" clip-rule="evenodd" d="M16.3733 17.3714H27.1013C28.1723 17.3714 29.2503 16.526 29.5103 15.4829L30.0673 13.21C30.2573 12.4469 29.8723 11.8265 29.2073 11.801C29.6213 11.6829 29.9553 11.3652 30.1373 10.7352L30.7763 8.17548C31.0383 7.13297 30.3803 6.29028 29.3083 6.29028H14.9893L14.2863 9.02227H27.0383C27.5733 9.02227 27.7113 9.38057 27.6003 9.82397C27.4923 10.2671 27.1773 10.6282 26.6393 10.6282H20.8933H19.5063H18.1153L16.3733 17.3714ZM20.2693 13.0322H26.5713C27.1073 13.0322 27.2483 13.3933 27.1403 13.8364C27.0323 14.2805 26.7163 14.6408 26.1813 14.6408H19.8563L20.2693 13.0322Z" fill="white"/>
<path fill-rule="evenodd" clip-rule="evenodd" d="M31.1163 17.3714H40.2423C41.3163 17.3714 42.4013 16.5274 42.6703 15.4884L43.9193 10.6282H38.7993L38.1823 13.0322H40.5233C40.5233 13.0322 40.4343 13.3933 40.3193 13.8364C40.2053 14.2805 39.6783 14.6408 39.1423 14.6408H33.6193C33.0833 14.6408 32.7573 14.2187 32.8893 13.6999L33.8493 9.96047C33.9843 9.44167 34.5293 9.02227 35.0633 9.02227H44.3303C44.3303 9.02227 44.4883 8.41147 44.6813 7.65667C44.8773 6.90169 44.1633 6.29028 43.0913 6.29028H33.9583C32.8873 6.29028 31.7983 7.13297 31.5323 8.17412L31.5083 8.23852C31.4993 8.27702 31.4943 8.31398 31.4843 8.35329L30.8453 10.9138C30.7493 11.2377 30.6263 11.4978 30.4843 11.7084C30.4843 11.7084 30.4883 11.7125 30.4913 11.7174C30.8243 12.1599 30.9293 12.7686 30.7743 13.3863L30.2163 15.6572C30.1303 16.0072 29.9753 16.3352 29.7743 16.6317C30.0123 17.0791 30.4913 17.3714 31.1163 17.3714Z" fill="white"/>
</svg>
