<svg width="231" height="16" fill="none" xmlns="http://www.w3.org/2000/svg"><g clip-path="url(#clip0_24058_644)"><g clip-path="url(#clip1_24058_644)" fill="#000"><path d="M63.166 0L51.91 8.124V0h-5.25v16h5.25v-3.077L56.925 9.3l6.207 6.7h5.938l-8.226-9.511L69.853 0h-6.688zM87.62 10.78c0 .22-.11.334-.336.334a1.331 1.331 0 01-.875-.458l-5.823-8.311A4.84 4.84 0 0078.755.616 5.142 5.142 0 0076.259 0c-4.08 0-6.123 1.742-6.126 5.225V16h5.25V5.225a.279.279 0 01.084-.248.31.31 0 01.258-.086c.344.036.659.2.875.458l5.823 8.311a4.816 4.816 0 001.83 1.732c.76.412 1.622.623 2.497.613 4.087 0 6.13-1.74 6.126-5.22V0h-5.255v10.78zm14.421-7.002h11.972V0h-11.972c-4.86 0-7.29 1.926-7.29 5.779v4.442c0 3.856 2.43 5.782 7.29 5.779h11.962v-3.778h-11.962c-1.361 0-2.039-.664-2.039-2.001v-.33h14.001V6.113h-13.992V5.78c0-1.331.677-1.998 2.03-2.001zm43.293.888v.559c0 3.108 2.244 4.663 6.732 4.666h8.174c.961 0 1.442.293 1.442.889v.554c0 .595-.481.888-1.442.888h-14.906V16h14.877c4.487 0 6.731-1.555 6.731-4.666v-.554c0-3.114-2.244-4.67-6.731-4.667h-8.174c-.962 0-1.443-.297-1.443-.888v-.559c0-.59.481-.888 1.443-.888h14.876V0h-14.867c-4.471 0-6.709 1.555-6.712 4.666zM190.382 0h-21.584v3.778h8.169V16h5.251V3.778h8.164V0zm10.886 0a6.936 6.936 0 00-2.639.397 6.689 6.689 0 00-2.26 1.357L183.805 16h5.798l2.996-3.334h8.386V16h5.25V4.666C206.232 1.556 204.576 0 201.268 0zm-.283 8.888h-5.011l3.366-4.121a3.424 3.424 0 011.645-.99v5.111zm27.296-.375c.939-.705 1.409-1.801 1.409-3.288v-.559c0-3.11-2.236-4.666-6.708-4.666h-14.867v3.778h14.877c.962 0 1.442.298 1.442.888v.559c0 .59-.48.888-1.442.888h-14.886V16h5.25V9.891h9.617c.997 0 1.883 2.037 2.659 6.109h5.241c-.42-3.495-1.284-5.991-2.592-7.487zm-89.38 3.127c0 .22-.106.335-.313.335h-5.731c-.207 0-.313-.115-.313-.335V0h-4.832v11.64c0 .22-.106.335-.313.335h-5.75c-.207 0-.313-.115-.313-.335V0h-4.808v10.78c0 3.48 1.88 5.22 5.64 5.22h4.746a7.307 7.307 0 003.221-.627 7.297 7.297 0 003.222.627h4.741c3.76 0 5.64-1.74 5.64-5.22V0h-4.837v11.64zM14.228.28H8.713L0 15.72h5.515L14.228.28zm7.794 7.175L26.07.279H15.574l-4.049 7.176h10.497zm-.616 1.09H10.91L6.86 15.72h10.497l4.048-7.176zm1.347 0l-4.049 7.176H31.49l4.049-7.176H22.753zM27.417.28l-4.049 7.175h12.785L40.202.279H27.417z"/></g></g><defs><clipPath id="clip0_24058_644"><path fill="#fff" d="M0 0h231v16H0z"/></clipPath><clipPath id="clip1_24058_644"><path fill="#fff" d="M0 0h230.882v16H0z"/></clipPath></defs></svg>