<svg width="43" height="62" viewBox="0 0 43 62" fill="none" xmlns="http://www.w3.org/2000/svg">
<g clip-path="url(#clip0_1988_281)">
<path opacity="0.2" d="M35 58.4C35 60.4 28.8 62 21.2 62C13.6 62 7.40002 60.4 7.40002 58.4C7.40002 56.4 13.6 54.8 21.2 54.8C28.8 54.7 35 56.4 35 58.4Z" fill="#05141F"/>
<path d="M21.4 0C9.6 0 0 9.6 0 21.4C0 34 21.4 58.5 21.4 58.5C21.4 58.5 42.8 35 42.8 21.4C42.8 9.6 33.2 0 21.4 0ZM21.4 33.7C14.1 33.7 8.2 27.8 8.2 20.5C8.2 13.2 14.1 7.3 21.4 7.3C28.7 7.3 34.6 13.2 34.6 20.5C34.6 27.8 28.7 33.7 21.4 33.7Z" fill="#010101"/>
<path d="M21.7 38.4C30.9232 38.4 38.4 30.9232 38.4 21.7C38.4 12.4768 30.9232 5 21.7 5C12.4768 5 5 12.4768 5 21.7C5 30.9232 12.4768 38.4 21.7 38.4Z" fill="white"/>
<path fill-rule="evenodd" clip-rule="evenodd" d="M20.0436 17.6246C17.4191 17.6753 11.7178 17.8009 10.0932 17.9592C7.96106 18.167 7.3416 18.1198 6.86452 18.9135C6.38744 19.7071 6.47886 21.5117 6.74262 22.8344C7.0069 24.1572 7.23021 24.5446 7.95108 25.1965C9.34659 26.4589 15.3311 27.6215 19.0101 28.0832C21.314 28.3724 21.9114 28.3557 24.258 28.0489C27.9527 27.5658 33.6866 26.4287 35.049 25.1965C35.7699 24.5446 35.9932 24.1572 36.2575 22.8344C36.5212 21.5117 36.6126 19.7071 36.1356 18.9135C35.6585 18.1198 35.039 18.167 32.9069 17.9592C31.4383 17.8161 26.6371 17.6997 23.7903 17.6412C22.4936 17.6145 21.3288 17.5997 20.0436 17.6246Z" fill="#202020"/>
<path d="M20.0451 17.8836C18.7331 17.9099 16.6478 17.9561 14.6732 18.0163C12.7197 18.076 10.8908 18.1497 10.0816 18.2317L9.36337 18.301C7.9626 18.4331 7.49025 18.4778 7.18393 19.0073V19.009C7.00477 19.3187 6.92122 19.8411 6.90335 20.4391C6.88024 21.2096 6.97061 22.0847 7.1109 22.8156C7.23542 23.4659 7.34786 23.881 7.50864 24.202C7.66049 24.5059 7.8717 24.745 8.19641 25.0506C8.74284 25.5646 10.1441 26.0823 11.8507 26.5455C14.1557 27.1712 16.9772 27.6771 19.0573 27.9486C20.1959 28.097 20.9094 28.1672 21.6151 28.1608C22.3186 28.1545 23.0458 28.0709 24.2106 27.9128C26.2934 27.6296 29.0266 27.1292 31.2533 26.5171C32.9126 26.0609 34.2687 25.5538 34.8036 25.0506C35.1283 24.745 35.339 24.5059 35.4914 24.202C35.6516 23.881 35.7646 23.4659 35.8891 22.8156C36.0294 22.0847 36.1198 21.2096 36.0966 20.4391C36.0788 19.8411 35.9952 19.3187 35.8161 19.009V19.0073C35.5103 18.478 35.0374 18.4331 33.6366 18.301L32.9184 18.2317C32.187 18.1575 30.6234 18.0902 28.8884 18.034C27.132 17.9771 25.2163 17.9313 23.7929 17.901C23.1398 17.8871 22.5219 17.8761 21.913 17.8722C21.3014 17.8683 20.6888 17.8707 20.0451 17.8836ZM14.6449 17.1459C16.6026 17.0861 18.7016 17.0397 20.0273 17.0132C20.6751 17.0002 21.2946 16.9977 21.9167 17.0018C22.5414 17.0059 23.1614 17.0168 23.8108 17.0306C25.2489 17.0614 27.1766 17.1071 28.9168 17.1636C30.6785 17.2206 32.2663 17.289 33.0103 17.3645L33.7212 17.4338C35.4735 17.5991 36.0651 17.6553 36.6016 18.5827C36.8574 19.0231 36.9746 19.6858 36.9962 20.4153C37.0209 21.2495 36.9242 22.1904 36.7744 22.9726C36.6341 23.7045 36.5012 24.1835 36.3026 24.581C36.0951 24.9954 35.8308 25.2998 35.4315 25.6754C34.7773 26.2908 33.2862 26.8651 31.4971 27.357C29.2321 27.9796 26.4515 28.4885 24.3336 28.7765C23.1398 28.9386 22.3869 29.0245 21.6219 29.0312C20.859 29.038 20.1139 28.9656 18.9375 28.8123C16.8206 28.536 13.9508 28.0215 11.6074 27.3854C9.77214 26.8872 8.23529 26.3024 7.56854 25.6754C7.16922 25.2998 6.90493 24.9955 6.69739 24.581C6.49826 24.1835 6.36586 23.7045 6.22557 22.9726C6.07582 22.1904 5.97915 21.2495 6.00384 20.4153C6.02539 19.6858 6.14255 19.0231 6.39738 18.5823C6.93488 17.6553 7.52651 17.5991 9.27878 17.4338L9.98966 17.3645C10.8125 17.2811 12.6661 17.2063 14.6449 17.1459Z" fill="#CCCCCC"/>
<path fill-rule="evenodd" clip-rule="evenodd" d="M14.6029 25.833H20.2396C20.8023 25.833 21.3687 25.4031 21.5053 24.8727L21.798 23.717C21.8978 23.329 21.6955 23.0135 21.3461 23.0006C21.5636 22.9405 21.7391 22.779 21.8347 22.4586L22.1705 21.1571C22.3082 20.627 21.9624 20.1985 21.3992 20.1985H13.8757L13.5063 21.5876H20.2065C20.4876 21.5876 20.5601 21.7698 20.5018 21.9953C20.445 22.2206 20.2795 22.4042 19.9968 22.4042H16.9778H16.249H15.5182L14.6029 25.833ZM16.6499 23.6266H19.9611C20.2427 23.6266 20.3168 23.8102 20.2601 24.0355C20.2033 24.2613 20.0373 24.4445 19.7562 24.4445H16.4329L16.6499 23.6266Z" fill="white"/>
<path fill-rule="evenodd" clip-rule="evenodd" d="M22.349 25.833H27.144C27.7083 25.833 28.2784 25.4038 28.4197 24.8755L29.076 22.4042H26.3858L26.0616 23.6266H27.2916C27.2916 23.6266 27.2449 23.8102 27.1845 24.0355C27.1246 24.2613 26.8477 24.4445 26.566 24.4445H23.6642C23.3825 24.4445 23.2112 24.2299 23.2806 23.9661L23.785 22.0647C23.8559 21.8009 24.1423 21.5876 24.4229 21.5876H29.2919C29.2919 21.5876 29.3749 21.2771 29.4763 20.8933C29.5793 20.5094 29.2042 20.1985 28.6409 20.1985H23.8423C23.2795 20.1985 22.7074 20.627 22.5676 21.1564L22.555 21.1891C22.5503 21.2087 22.5476 21.2275 22.5424 21.2475L22.2066 22.5494C22.1562 22.7141 22.0916 22.8464 22.017 22.9535C22.017 22.9535 22.0191 22.9556 22.0206 22.9581C22.1956 23.1831 22.2508 23.4926 22.1693 23.8067L21.8762 24.9614C21.831 25.1393 21.7495 25.3061 21.6439 25.4569C21.769 25.6844 22.0206 25.833 22.349 25.833Z" fill="white"/>
</g>
<defs>
<clipPath id="clip0_1988_281">
<rect width="42.8" height="62" fill="white"/>
</clipPath>
</defs>
</svg>
