<svg width="43" height="62" viewBox="0 0 43 62" fill="none" xmlns="http://www.w3.org/2000/svg">
<g clip-path="url(#clip0_2484_2)">
<mask id="mask0_2484_2" style="mask-type:luminance" maskUnits="userSpaceOnUse" x="0" y="0" width="43" height="62">
<path d="M42.8 0H0V62H42.8V0Z" fill="white"/>
</mask>
<g mask="url(#mask0_2484_2)">
<path opacity="0.2" d="M35 58.4C35 60.4 28.8 62 21.2 62C13.6 62 7.39999 60.4 7.39999 58.4C7.39999 56.4 13.6 54.8 21.2 54.8C28.8 54.7 35 56.4 35 58.4Z" fill="#05141F"/>
<path d="M21.4 0C9.6 0 0 9.6 0 21.4C0 34 21.4 58.5 21.4 58.5C21.4 58.5 42.8 35 42.8 21.4C42.8 9.6 33.2 0 21.4 0ZM21.4 33.7C14.1 33.7 8.2 27.8 8.2 20.5C8.2 13.2 14.1 7.3 21.4 7.3C28.7 7.3 34.6 13.2 34.6 20.5C34.6 27.8 28.7 33.7 21.4 33.7Z" fill="#05141F"/>
<path d="M21.7 38.4C30.9232 38.4 38.4 30.9232 38.4 21.7C38.4 12.4768 30.9232 5 21.7 5C12.4769 5 5 12.4768 5 21.7C5 30.9232 12.4769 38.4 21.7 38.4Z" fill="white"/>
<path d="M25.4476 20H21.6196C21.4453 20 21.3039 20.1413 21.3039 20.3156V22.5267C21.3039 22.7011 21.4453 22.8423 21.6196 22.8423H25.4476C25.6221 22.8423 25.7633 22.7011 25.7633 22.5267V20.3156C25.7633 20.1413 25.6221 20 25.4476 20ZM24.9153 22.2444C24.9153 22.2525 24.9091 22.2588 24.901 22.2588H22.1664C22.1584 22.2588 22.1519 22.2525 22.1519 22.2444V20.5979C22.1519 20.59 22.1584 20.5837 22.1664 20.5837H24.901C24.9091 20.5837 24.9153 20.59 24.9153 20.5979V22.2444Z" fill="#020203"/>
<path d="M20.5195 20H16.1721C16.1563 20 16.1437 20.0129 16.1437 20.0286V20.555C16.1437 20.5706 16.1563 20.5837 16.1721 20.5837H17.9072C17.9154 20.5837 17.9216 20.59 17.9216 20.5979V22.8139C17.9216 22.8294 17.9348 22.8423 17.9506 22.8423H18.7411C18.757 22.8423 18.7699 22.8294 18.7699 22.8139V20.5979C18.7699 20.59 18.7763 20.5837 18.7844 20.5837H20.5195C20.5354 20.5837 20.5481 20.5706 20.5481 20.555V20.0286C20.5481 20.0129 20.5354 20 20.5195 20Z" fill="#020203"/>
<path d="M30.7982 20H30.0074C29.9915 20 29.9787 20.0129 29.9787 20.0286V22.2444C29.9787 22.2525 29.9724 22.2588 29.9644 22.2588H27.3817C27.3737 22.2588 27.3675 22.2525 27.3675 22.2444V20.0286C27.3675 20.0129 27.3545 20 27.3384 20H26.548C26.5321 20 26.5192 20.0129 26.5192 20.0286V22.5267C26.5192 22.7011 26.6606 22.8423 26.8349 22.8423H30.5112C30.6855 22.8423 30.8267 22.7011 30.8267 22.5267V20.0286C30.8267 20.0129 30.8141 20 30.7982 20Z" fill="#020203"/>
<path d="M34.373 21.6836H35.6302C35.8048 21.6836 35.9462 21.5424 35.9462 21.3677V20.3159C35.9462 20.1412 35.8048 20 35.6302 20H31.6112C31.5951 20 31.5825 20.0129 31.5825 20.0286V22.8139C31.5825 22.8294 31.5951 22.8423 31.6112 22.8423H32.402C32.4176 22.8423 32.4305 22.8294 32.4305 22.8139V21.2042L34.8031 22.83C34.815 22.838 34.8292 22.8423 34.8437 22.8423H35.9712C35.9995 22.8423 36.0108 22.806 35.9873 22.7901L34.373 21.6836ZM32.4305 21.0857V20.5979C32.4305 20.59 32.4369 20.5835 32.4451 20.5835H35.0836C35.0914 20.5835 35.0982 20.59 35.0982 20.5979V21.0857C35.0982 21.0936 35.0914 21.1 35.0836 21.1H32.4451C32.4369 21.1 32.4305 21.0936 32.4305 21.0857Z" fill="#020203"/>
<path d="M15.3591 20H11.4001C11.2258 20 11.0844 20.1412 11.0844 20.3159V22.5267C11.0844 22.7011 11.2258 22.8423 11.4001 22.8423H15.3591C15.3749 22.8423 15.3876 22.8294 15.3876 22.8139V22.2873C15.3876 22.2717 15.3749 22.2587 15.3591 22.2587H11.9469C11.9388 22.2587 11.9324 22.2524 11.9324 22.2444V21.7274C11.9324 21.7194 11.9388 21.7131 11.9469 21.7131H15.1407C15.1566 21.7131 15.1695 21.7002 15.1695 21.6841V21.1582C15.1695 21.1422 15.1566 21.1295 15.1407 21.1295H11.9469C11.9388 21.1295 11.9324 21.1228 11.9324 21.1151V20.5979C11.9324 20.59 11.9388 20.5835 11.9469 20.5835H15.3591C15.3749 20.5835 15.3876 20.5706 15.3876 20.555V20.0286C15.3876 20.0129 15.3749 20 15.3591 20Z" fill="#020203"/>
<path d="M6.02857 22.2589C6.0127 22.2589 6 22.2718 6 22.2875V22.8139C6 22.8296 6.0127 22.8423 6.02857 22.8423C7.35665 22.8423 8.68467 22.8423 10.0127 22.8423C10.1874 22.8423 10.3285 22.7012 10.3285 22.5266V20.0286C10.3285 20.0129 10.3159 20 10.2997 20H9.50929C9.49341 20 9.48039 20.0129 9.48039 20.0286V22.2444C9.48039 22.2524 9.47403 22.2588 9.46622 22.2588C8.32032 22.2588 7.17437 22.2589 6.02857 22.2589Z" fill="#020203"/>
</g>
</g>
<defs>
<clipPath id="clip0_2484_2">
<rect width="43" height="62" fill="white"/>
</clipPath>
</defs>
</svg>
