<svg viewBox="0 0 43 62" fill="none" xmlns="http://www.w3.org/2000/svg">
<g clip-path="url(#clip0_1201_70)">
<path opacity="0.2" d="M35 58.4C35 60.4 28.8 62 21.2 62C13.6 62 7.39999 60.4 7.39999 58.4C7.39999 56.4 13.6 54.8 21.2 54.8C28.8 54.7 35 56.4 35 58.4Z" fill="#05141F"/>
<path d="M21.4 0C9.6 0 0 9.6 0 21.4C0 34 21.4 58.5 21.4 58.5C21.4 58.5 42.8 35 42.8 21.4C42.8 9.6 33.2 0 21.4 0ZM21.4 33.7C14.1 33.7 8.2 27.8 8.2 20.5C8.2 13.2 14.1 7.3 21.4 7.3C28.7 7.3 34.6 13.2 34.6 20.5C34.6 27.8 28.7 33.7 21.4 33.7Z" fill="#05141F"/>
<path d="M21.4 38.2C30.6232 38.2 38.1 30.7232 38.1 21.5C38.1 12.2768 30.6232 4.8 21.4 4.8C12.1769 4.8 4.70001 12.2768 4.70001 21.5C4.70001 30.7232 12.1769 38.2 21.4 38.2Z" fill="white"/>
<path d="M25.7975 20H22.0978C22.017 20 21.9403 20.0323 21.8837 20.0889C21.8272 20.1454 21.7949 20.2221 21.7949 20.3029V22.4436C21.7949 22.5244 21.8272 22.6011 21.8837 22.6617C21.9403 22.7182 22.017 22.7506 22.0978 22.7506H25.7975C25.8783 22.7506 25.955 22.7182 26.0116 22.6617C26.0681 22.6052 26.1004 22.5284 26.1004 22.4436V20.3029C26.1004 20.2221 26.0681 20.1454 26.0116 20.0889C25.9591 20.0323 25.8823 20 25.7975 20ZM22.6148 22.173V20.5776V20.5735C22.6148 20.5735 22.6148 20.5695 22.6188 20.5695L22.6229 20.5655H22.6269H25.2724H25.2765C25.2765 20.5655 25.2805 20.5655 25.2805 20.5695L25.2846 20.5735V20.5776V22.1689C25.2846 22.173 25.2846 22.177 25.2805 22.177C25.2765 22.1811 25.2724 22.1811 25.2724 22.1811H22.6269H22.6229C22.6229 22.1811 22.6188 22.1811 22.6188 22.177C22.6188 22.173 22.6148 22.173 22.6148 22.173Z" fill="black"/>
<path d="M11.1561 20H10.3928C10.3847 20 10.3766 20.004 10.3726 20.0081C10.3685 20.0121 10.3645 20.0202 10.3645 20.0283V22.173V22.177C10.3645 22.177 10.3645 22.1811 10.3604 22.1811L10.3564 22.1851H10.3524H7.83203C7.82799 22.1851 7.82396 22.1851 7.82396 22.1811C7.81992 22.177 7.81992 22.173 7.81992 22.173V21.7166C7.81992 21.7085 7.81588 21.7004 7.81184 21.6964C7.8078 21.6923 7.79972 21.6883 7.79164 21.6883H7.02827C7.02019 21.6883 7.01212 21.6923 7.00808 21.6964C7.00404 21.7045 7 21.7085 7 21.7166V22.4436C7 22.5244 7.03231 22.6011 7.08886 22.6617C7.1454 22.7182 7.22214 22.7506 7.30292 22.7506H10.8774C10.9582 22.7506 11.035 22.7182 11.0915 22.6617C11.1481 22.6052 11.1804 22.5284 11.1804 22.4436V20.0283C11.1804 20.0242 11.1804 20.0202 11.1763 20.0162C11.1763 20.0121 11.1723 20.0081 11.1723 20.0081C11.1682 20.004 11.1682 20.004 11.1642 20.004C11.1642 20 11.1602 20 11.1561 20Z" fill="black"/>
<path d="M21.0355 20H16.8349C16.8269 20 16.8188 20.004 16.8147 20.0081C16.8107 20.0121 16.8067 20.0202 16.8067 20.0283V20.5372C16.8067 20.5453 16.8107 20.5533 16.8147 20.5574C16.8188 20.5614 16.8269 20.5655 16.8349 20.5655H18.5111H18.5152C18.5152 20.5655 18.5192 20.5655 18.5192 20.5695L18.5232 20.5735V20.5776V22.7223C18.5232 22.7304 18.5273 22.7384 18.5313 22.7425C18.5354 22.7465 18.5434 22.7506 18.5515 22.7506H19.3149C19.323 22.7506 19.331 22.7465 19.3351 22.7425C19.3391 22.7384 19.3432 22.7304 19.3432 22.7223V20.5776V20.5735C19.3432 20.5735 19.3432 20.5695 19.3472 20.5695L19.3512 20.5655H19.3553H21.0315C21.0395 20.5655 21.0476 20.5614 21.0517 20.5574C21.0557 20.5533 21.0597 20.5453 21.0597 20.5372V20.0283C21.0597 20.0202 21.0557 20.0121 21.0517 20.0081C21.0517 20.004 21.0436 20 21.0355 20Z" fill="black"/>
<path d="M30.9714 20H30.2081C30.2 20 30.1919 20.004 30.1879 20.0081C30.1838 20.0121 30.1798 20.0202 30.1798 20.0283V22.173V22.177C30.1798 22.177 30.1798 22.1811 30.1758 22.1811C30.1717 22.1811 30.1717 22.1851 30.1717 22.1851H30.1677H27.6716H27.6675C27.6675 22.1851 27.6635 22.1851 27.6635 22.1811L27.6595 22.177V22.173V20.0283C27.6595 20.0242 27.6595 20.0202 27.6554 20.0162C27.6554 20.0121 27.6514 20.0081 27.6473 20.0081C27.6433 20.004 27.6433 20.004 27.6393 20.004C27.6352 20.004 27.6312 20 27.6272 20H26.8638C26.8597 20 26.8557 20 26.8517 20.004C26.8476 20.004 26.8436 20.0081 26.8436 20.0081C26.8395 20.0121 26.8395 20.0121 26.8395 20.0162C26.8395 20.0202 26.8355 20.0242 26.8355 20.0283V22.4436C26.8355 22.5244 26.8678 22.6011 26.9244 22.6617C26.9809 22.7182 27.0577 22.7506 27.1384 22.7506H30.6928C30.7735 22.7506 30.8503 22.7182 30.9068 22.6617C30.9634 22.6052 30.9957 22.5284 30.9957 22.4436V20.0283C30.9957 20.0202 30.9916 20.0121 30.9876 20.0081C30.9876 20.004 30.9795 20 30.9714 20Z" fill="black"/>
<path d="M35.9879 22.7021L34.4288 21.6318H35.6446C35.7253 21.6318 35.8021 21.5994 35.8586 21.5429C35.9152 21.4864 35.9475 21.4096 35.9475 21.3288V20.307C35.9475 20.2666 35.9394 20.2262 35.9233 20.1898C35.9071 20.1535 35.8869 20.1171 35.8586 20.0889C35.8304 20.0606 35.798 20.0404 35.7577 20.0242C35.7213 20.0081 35.6809 20 35.6405 20H31.759C31.755 20 31.751 20 31.7469 20.004C31.7429 20.004 31.7389 20.0081 31.7389 20.0081C31.7348 20.0121 31.7348 20.0121 31.7348 20.0162C31.7348 20.0202 31.7308 20.0242 31.7308 20.0283V22.7223C31.7308 22.7304 31.7348 22.7384 31.7389 22.7425C31.7429 22.7465 31.751 22.7506 31.759 22.7506H32.5224C32.5305 22.7506 32.5386 22.7465 32.5426 22.7425C32.5467 22.7384 32.5507 22.7304 32.5507 22.7223V21.1673L34.8448 22.7425C34.857 22.7506 34.8691 22.7546 34.8852 22.7546H35.9758C35.9798 22.7546 35.9879 22.7546 35.9919 22.7506C35.996 22.7465 36 22.7425 36 22.7384C36 22.7344 36 22.7263 36 22.7223C35.996 22.7102 35.9919 22.7021 35.9879 22.7021ZM32.5628 20.5655H35.1155H35.1195C35.1195 20.5655 35.1235 20.5655 35.1235 20.5695L35.1276 20.5735V20.5776V21.0501V21.0542C35.1276 21.0542 35.1276 21.0582 35.1235 21.0582L35.1195 21.0623H35.1155H32.5628H32.5588C32.5588 21.0623 32.5547 21.0623 32.5547 21.0582L32.5507 21.0542V21.0501V20.5776V20.5735C32.5507 20.5735 32.5507 20.5695 32.5547 20.5695L32.5588 20.5655H32.5628Z" fill="black"/>
<path d="M16.0474 20.5655C16.0554 20.5655 16.0635 20.5614 16.0676 20.5574C16.0716 20.5533 16.0756 20.5453 16.0756 20.5372V20.0283C16.0756 20.0242 16.0756 20.0202 16.0716 20.0162C16.0716 20.0121 16.0676 20.0081 16.0676 20.0081C16.0635 20.004 16.0635 20.004 16.0595 20.004C16.0554 20 16.0514 20 16.0474 20H12.2224C12.182 20 12.1417 20.0081 12.1053 20.0242C12.0689 20.0404 12.0326 20.0606 12.0043 20.0889C11.9761 20.1171 11.9518 20.1494 11.9397 20.1898C11.9235 20.2262 11.9155 20.2666 11.9155 20.307V22.4476C11.9155 22.5284 11.9478 22.6052 12.0043 22.6657C12.0609 22.7223 12.1376 22.7546 12.2184 22.7546H16.0474C16.0554 22.7546 16.0635 22.7506 16.0676 22.7465C16.0716 22.7425 16.0756 22.7344 16.0756 22.7263V22.2134C16.0756 22.2093 16.0756 22.2053 16.0716 22.2013C16.0716 22.1972 16.0676 22.1932 16.0676 22.1932C16.0635 22.1891 16.0635 22.1891 16.0595 22.1851C16.0554 22.1851 16.0514 22.1811 16.0474 22.1811H12.7475H12.7435C12.7435 22.1811 12.7394 22.1811 12.7394 22.177L12.7354 22.173V22.1689V21.6721V21.6681C12.7354 21.6681 12.7354 21.6641 12.7394 21.6641C12.7435 21.6641 12.7435 21.66 12.7435 21.66H12.7475H15.8333C15.8373 21.66 15.8414 21.66 15.8454 21.66C15.8494 21.66 15.8535 21.656 15.8535 21.656C15.8575 21.6519 15.8575 21.6519 15.8616 21.6479C15.8616 21.6439 15.8656 21.6398 15.8656 21.6358V21.1228C15.8656 21.1188 15.8656 21.1148 15.8616 21.1107C15.8616 21.1067 15.8575 21.1026 15.8535 21.1026C15.8494 21.0986 15.8494 21.0986 15.8454 21.0986C15.8414 21.0986 15.8373 21.0946 15.8333 21.0946H12.7475C12.7435 21.0946 12.7394 21.0946 12.7394 21.0905C12.7354 21.0865 12.7354 21.0825 12.7354 21.0825V20.5776V20.5735C12.7354 20.5735 12.7354 20.5695 12.7394 20.5695L12.7435 20.5655H12.7475H16.0474Z" fill="black"/>
</g>
<defs>
<clipPath id="clip0_1201_70">
<rect width="42.8" height="62" fill="white"/>
</clipPath>
</defs>
</svg>
