<svg width="43" height="62" viewBox="0 0 43 62" fill="none" xmlns="http://www.w3.org/2000/svg">
<g clip-path="url(#clip0_2443_2)">
<path opacity="0.2" d="M35 58.4C35 60.4 28.8 62 21.2 62C13.6 62 7.40002 60.4 7.40002 58.4C7.40002 56.4 13.6 54.8 21.2 54.8C28.8 54.7 35 56.4 35 58.4Z" fill="#05141F"/>
<path d="M21.4 0C9.6 0 0 9.6 0 21.4C0 34 21.4 58.5 21.4 58.5C21.4 58.5 42.8 35 42.8 21.4C42.8 9.6 33.2 0 21.4 0ZM21.4 33.7C14.1 33.7 8.2 27.8 8.2 20.5C8.2 13.2 14.1 7.3 21.4 7.3C28.7 7.3 34.6 13.2 34.6 20.5C34.6 27.8 28.7 33.7 21.4 33.7Z" fill="#05141F"/>
<path d="M21.4 0C9.6 0 0 9.6 0 21.4C0 34 21.4 58.5 21.4 58.5C21.4 58.5 42.8 35 42.8 21.4C42.8 9.6 33.2 0 21.4 0ZM21.4 33.7C14.1 33.7 8.2 27.8 8.2 20.5C8.2 13.2 14.1 7.3 21.4 7.3C28.7 7.3 34.6 13.2 34.6 20.5C34.6 27.8 28.7 33.7 21.4 33.7Z" fill="black"/>
<path d="M21.7 38.4C30.9232 38.4 38.4 30.9232 38.4 21.7C38.4 12.4768 30.9232 5 21.7 5C12.4768 5 5 12.4768 5 21.7C5 30.9232 12.4768 38.4 21.7 38.4Z" fill="white"/>
<path fill-rule="evenodd" clip-rule="evenodd" d="M14.0685 16.0007H17.9096L11.8411 26.7544H8L14.0685 16.0007ZM26.1573 16L23.3379 20.998H16.027L18.847 16H26.1573ZM22.9078 21.7571H22.9089L22.9082 21.7564L22.9078 21.7571ZM15.5986 21.7571H22.9078L20.0889 26.7544H12.7779L15.5986 21.7571ZM21.027 26.7551L23.8471 21.7571H32.7523L29.9322 26.7551H21.027ZM24.2754 20.998L27.0955 16.0007L36 16L33.1799 20.998H24.2754Z" fill="black"/>
</g>
<defs>
<clipPath id="clip0_2443_2">
<rect width="42.8" height="62" fill="white"/>
</clipPath>
</defs>
</svg>
