<svg width="71" height="15" viewBox="0 0 71 15" fill="none" xmlns="http://www.w3.org/2000/svg">
<rect width="71" height="15" fill="white"/>
<path fill-rule="evenodd" clip-rule="evenodd" d="M0.666658 9.0025V14.375C0.666658 14.72 0.946658 15 1.29166 15H2.63666C2.78467 15 2.92789 14.9475 3.04082 14.8518C3.15375 14.7562 3.22905 14.6235 3.25332 14.4775L3.58332 12.5H14.4167L14.7458 14.4775C14.7701 14.6235 14.8454 14.7562 14.9583 14.8518C15.0713 14.9475 15.2145 15 15.3625 15H16.7083C16.8741 15 17.0331 14.9342 17.1503 14.8169C17.2675 14.6997 17.3333 14.5408 17.3333 14.375V9.0025C17.3334 8.02285 17.0434 7.06511 16.5 6.25L15.85 5.275C15.792 5.1882 15.7424 5.09612 15.7017 5H16.53C16.6461 5 16.76 4.96764 16.8587 4.90655C16.9575 4.84547 17.0373 4.75807 17.0892 4.65417L17.2975 4.2375C17.345 4.14228 17.3675 4.03649 17.3627 3.93017C17.3579 3.82384 17.326 3.72051 17.2701 3.62995C17.2142 3.53939 17.136 3.46462 17.0431 3.41271C16.9502 3.3608 16.8456 3.33348 16.7392 3.33333H15.3333L15.075 2.045C14.9964 1.65263 14.8065 1.2912 14.5279 1.00391C14.2493 0.716626 13.8939 0.515647 13.5042 0.425C12.2858 0.141667 10.7842 0 8.99999 0C7.21499 0 5.71416 0.141667 4.49582 0.425C4.10591 0.515505 3.75032 0.716423 3.4716 1.00372C3.19287 1.29101 3.00281 1.65252 2.92416 2.045L2.66582 3.33333H1.26166C1.15523 3.33348 1.0506 3.3608 0.957683 3.41271C0.86477 3.46462 0.786651 3.53939 0.730731 3.62995C0.674812 3.72051 0.642943 3.82384 0.638147 3.93017C0.633351 4.03649 0.655786 4.14228 0.703325 4.2375L0.911658 4.65417C0.963467 4.75794 1.04313 4.84525 1.14174 4.90633C1.24034 4.96741 1.354 4.99984 1.46999 5H2.29916C2.25844 5.09611 2.20878 5.18818 2.15082 5.275L1.49999 6.25C0.956658 7.065 0.666658 8.0225 0.666658 9.0025ZM13.9675 5.00333C14.0249 5.29156 14.1202 5.57092 14.2508 5.83417H3.74916C3.87999 5.57167 3.97499 5.2925 4.03249 5.00333L4.55916 2.3725C4.5747 2.29384 4.61261 2.22134 4.66834 2.16369C4.72407 2.10605 4.79524 2.0657 4.87332 2.0475C5.95499 1.7975 7.33332 1.66667 8.99999 1.66667C10.6667 1.66667 12.045 1.79667 13.1267 2.04833C13.2048 2.06633 13.2761 2.10649 13.3319 2.16399C13.3878 2.22149 13.4259 2.29389 13.4417 2.3725L13.9675 5.00333ZM3.58332 10C3.91485 10 4.23279 9.8683 4.46721 9.63388C4.70163 9.39946 4.83332 9.08152 4.83332 8.75C4.83332 8.41848 4.70163 8.10054 4.46721 7.86612C4.23279 7.6317 3.91485 7.5 3.58332 7.5C3.2518 7.5 2.93386 7.6317 2.69944 7.86612C2.46502 8.10054 2.33332 8.41848 2.33332 8.75C2.33332 9.08152 2.46502 9.39946 2.69944 9.63388C2.93386 9.8683 3.2518 10 3.58332 10ZM15.6667 8.75C15.6667 9.08152 15.535 9.39946 15.3005 9.63388C15.0661 9.8683 14.7482 10 14.4167 10C14.0851 10 13.7672 9.8683 13.5328 9.63388C13.2984 9.39946 13.1667 9.08152 13.1667 8.75C13.1667 8.41848 13.2984 8.10054 13.5328 7.86612C13.7672 7.6317 14.0851 7.5 14.4167 7.5C14.7482 7.5 15.0661 7.6317 15.3005 7.86612C15.535 8.10054 15.6667 8.41848 15.6667 8.75Z" fill="black"/>
<path d="M63.9695 12V3.27271H67.4127C68.0718 3.27271 68.6343 3.3906 69.1002 3.6264C69.5689 3.85935 69.9254 4.19032 70.1698 4.6193C70.4169 5.04543 70.5405 5.54685 70.5405 6.12356C70.5405 6.7031 70.4155 7.20168 70.1655 7.6193C69.9155 8.03407 69.5533 8.35225 69.0789 8.57384C68.6073 8.79543 68.0362 8.90623 67.3658 8.90623H65.0604V7.42327H67.0675C67.4198 7.42327 67.7124 7.37498 67.9453 7.27839C68.1783 7.1818 68.3516 7.03691 68.4652 6.84373C68.5817 6.65055 68.6399 6.41049 68.6399 6.12356C68.6399 5.83378 68.5817 5.58947 68.4652 5.3906C68.3516 5.19174 68.1769 5.04117 67.9411 4.9389C67.7081 4.83378 67.4141 4.78123 67.059 4.78123H65.8147V12H63.9695ZM68.6826 8.02839L70.8516 12H68.8147L66.6925 8.02839H68.6826Z" fill="black"/>
<path d="M56.6218 12V3.27271H62.5025V4.79401H58.467V6.87356H62.2V8.39486H58.467V10.4787H62.5196V12H56.6218Z" fill="black"/>
<path d="M49.8132 12V3.27271H51.6584V10.4787H55.3999V12H49.8132Z" fill="black"/>
<path d="M42.3409 12H40.3636L43.3764 3.27271H45.7543L48.7628 12H46.7855L44.5994 5.26702H44.5313L42.3409 12ZM42.2173 8.56958H46.8878V10.0099H42.2173V8.56958Z" fill="black"/>
<path d="M33.489 12V3.27271H39.3697V4.79401H35.3342V6.87356H39.0671V8.39486H35.3342V10.4787H39.3867V12H33.489Z" fill="black"/>
<path d="M27.8523 12H24.7585V3.27271H27.8779C28.7557 3.27271 29.5114 3.44742 30.1449 3.79685C30.7784 4.14344 31.2656 4.64202 31.6066 5.29259C31.9503 5.94316 32.1222 6.72157 32.1222 7.62782C32.1222 8.53691 31.9503 9.31816 31.6066 9.97157C31.2656 10.625 30.7756 11.1264 30.1364 11.4758C29.5 11.8253 28.7387 12 27.8523 12ZM26.6037 10.419H27.7756C28.321 10.419 28.7799 10.3224 29.152 10.1292C29.527 9.93322 29.8083 9.63066 29.9958 9.22157C30.1861 8.80964 30.2813 8.27839 30.2813 7.62782C30.2813 6.98293 30.1861 6.45594 29.9958 6.04685C29.8083 5.63776 29.5284 5.33663 29.1563 5.14344C28.7841 4.95026 28.3253 4.85367 27.7799 4.85367H26.6037V10.419Z" fill="black"/>
</svg>
