<svg width="245" height="143" viewBox="0 0 245 143" fill="none" xmlns="http://www.w3.org/2000/svg">
<g clip-path="url(#clip0_2422_243)">
<path d="M0 109.19H27.2513C32.4786 109.19 35.7434 110.403 37.0636 112.829C37.5007 113.641 37.7237 114.944 37.7237 116.745V119.448C37.7237 122.686 36.2161 124.827 33.1833 125.889C36.3053 126.763 37.8664 128.752 37.8664 131.856V135.219C37.8664 140.259 34.1556 142.784 26.7339 142.784H0V109.19ZM11.3555 116.371V122.249H23.8795C25.6368 122.124 26.5199 121.536 26.5199 120.474V118.235C26.5199 117.62 26.1006 117.093 25.271 116.647C24.7358 116.46 24.263 116.371 23.8795 116.371H11.3555ZM11.3555 129.528V135.505H23.817C25.5208 135.38 26.3771 134.755 26.3771 133.64V131.491C26.3771 130.376 25.4494 129.724 23.594 129.537H11.3555V129.528Z" fill="white"/>
<path d="M44.7617 135.79V116.469C44.7617 116.041 44.8331 115.541 44.9847 114.97C45.957 111.117 49.5429 109.19 55.7514 109.19H79.1938V116.371H58.7576C58.6059 116.433 58.3651 116.496 58.0261 116.558C56.7594 116.87 56.1261 117.521 56.1261 118.521V122.258H79.2027V129.537H56.1261V133.266C56.1261 134.639 57.0984 135.389 59.0519 135.505H79.1938V142.784H57.366C48.972 142.784 44.7706 140.455 44.7706 135.79" fill="white"/>
<path d="M85.5629 134.577V109.19H96.9183V134.015C96.9183 135.014 97.8728 135.514 99.7728 135.514H119.843L119.772 142.793H98.747C98.069 142.793 97.4268 142.766 96.847 142.703C92.8418 142.516 89.9605 141.785 88.2032 140.509C86.446 139.233 85.5629 137.262 85.5629 134.586" fill="white"/>
<path d="M124.607 133.275V117.504C124.607 114.39 125.561 112.232 127.461 111.019C129.361 109.805 132.733 109.199 137.568 109.199H158.959V116.389H138.005C136.836 116.514 136.149 116.977 135.953 117.789V134.122C136.248 134.925 137.05 135.398 138.371 135.523H147.38C149.574 135.523 150.77 135.023 150.975 134.024V123.471H162.339V134.202C162.339 136.379 161.991 137.904 161.313 138.778C159.36 141.454 155.819 142.792 150.689 142.792H137.657C132.965 142.792 129.522 142.043 127.327 140.554C126.052 139.679 125.249 138.689 124.91 137.565C124.714 136.825 124.616 135.389 124.616 133.275" fill="white"/>
<path d="M169.217 135.79V116.469C169.217 116.041 169.288 115.541 169.431 114.97C170.412 111.117 173.998 109.19 180.197 109.19H203.64V116.371H183.195C183.052 116.433 182.811 116.496 182.472 116.558C181.197 116.87 180.563 117.521 180.563 118.521V122.258H203.64V129.537H180.563V133.266C180.563 134.639 181.544 135.389 183.489 135.505H203.64V142.784H181.812C173.409 142.784 169.217 140.455 169.217 135.79Z" fill="white"/>
<path d="M210.018 135.79V116.469C210.018 116.041 210.089 115.541 210.232 114.97C211.213 111.117 214.799 109.19 220.999 109.19H244.441V116.371H224.005C223.853 116.433 223.612 116.496 223.273 116.558C221.998 116.87 221.373 117.521 221.373 118.521V122.258H244.45V129.537H221.373V133.266C221.373 134.639 222.346 135.389 224.308 135.505H244.45V142.784H222.622C214.219 142.784 210.027 140.455 210.027 135.79" fill="white"/>
<path d="M122.231 93.16C122.231 93.16 142.671 92.32 174.221 85.84C204.831 79.36 217.171 75.56 229.081 69.08C238.751 63.38 241.321 55.09 242.721 45.62C244.111 37.67 244.561 26.29 244.431 21.78C244.271 15.97 243.481 6.71 231.111 4.76C218.641 2.72 195.861 2.06 193.051 1.86C190.241 1.66 161.911 0.67 152.221 0.38C142.531 0.09 122.221 0 122.221 0C122.221 0 102.121 0.09 92.2214 0.38C82.5314 0.67 54.2014 1.66 51.3914 1.86C48.5814 2.06 25.8014 2.72 13.3314 4.76C0.971372 6.72 0.191371 15.98 0.0213715 21.79C-0.108629 26.29 0.341372 37.68 1.73137 45.63C3.13137 55.1 5.70137 63.39 15.3714 69.09C27.2814 75.56 39.6214 79.36 70.2314 85.85C101.791 92.33 122.221 93.17 122.221 93.17L122.231 93.16Z" fill="url(#paint0_radial_2422_243)"/>
<path d="M122.231 91.9C122.231 91.9 144.371 90.24 172.461 84.6C199.571 78.74 215.441 75.19 227.181 68.81C236.721 63.2 239.681 55.64 241.061 46.31C242.431 38.48 242.691 27.26 242.751 22.82C242.831 16.54 241.811 7.96998 229.611 6.04998C217.321 4.02998 194.841 3.38998 192.081 3.18998C189.311 2.98998 161.371 2.00998 151.811 1.72998C142.251 1.44998 122.221 1.34998 122.221 1.34998C122.221 1.34998 102.391 1.43998 92.6314 1.72998C82.8714 2.01998 55.1314 2.98998 52.3614 3.18998C49.5914 3.38998 27.1214 4.03998 14.8314 6.04998C2.64136 7.95998 1.62136 16.53 1.70136 22.81C1.76136 27.25 2.02136 38.47 3.39136 46.3C4.77136 55.63 7.74136 63.19 17.2714 68.8C29.0114 75.18 44.8914 78.73 71.9914 84.59C100.081 90.23 122.221 91.89 122.221 91.89L122.231 91.9Z" fill="url(#paint1_linear_2422_243)"/>
<path d="M122.231 91.12C122.231 91.12 141.931 89.86 172.851 83.7C202.851 77.55 215.651 73.51 226.961 67.89C234.801 63.18 238.711 54.56 240.091 45.56C240.841 38.61 241.971 24.59 241.781 20.32C241.591 16.05 241.091 8.63 228.971 6.78C219.031 5.76 194.721 4.16 191.971 3.97C189.221 3.78 161.591 2.69 152.091 2.63C142.591 2.57 122.241 2.63 122.241 2.63C122.241 2.63 101.891 2.57 92.3913 2.63C82.8913 2.69 55.2613 3.78 52.5113 3.97C49.7613 4.16 25.4513 5.76 15.5113 6.78C3.37135 8.63 2.87135 16.05 2.68135 20.33C2.49135 24.61 3.62135 38.62 4.37135 45.57C5.75135 54.56 9.66135 63.18 17.5013 67.9C28.8113 73.51 41.6114 77.55 71.6114 83.71C102.541 89.86 122.231 91.13 122.231 91.13V91.12Z" fill="url(#paint2_radial_2422_243)"/>
<path d="M122.231 89.63C122.231 89.63 141.121 88.42 170.941 82.51C199.861 76.6 211.791 72.83 222.701 67.43C230.111 63.39 234.291 55.02 235.621 46.38C236.341 39.7 237.121 27.22 236.941 23.12C236.761 19.02 236.741 10.41 225.051 8.64002C215.471 7.66002 192.031 6.13002 189.371 5.94002C186.711 5.75002 160.081 4.71002 150.921 4.65002C141.761 4.59002 122.241 4.65002 122.241 4.65002C122.241 4.65002 102.721 4.59002 93.5614 4.65002C84.4014 4.71002 57.7614 5.75002 55.1114 5.94002C52.4614 6.13002 29.0214 7.66002 19.4314 8.64002C7.74138 10.42 7.72138 19.02 7.54138 23.12C7.36138 27.22 8.13138 39.7 8.86138 46.38C10.1914 55.02 14.3714 63.39 21.7814 67.43C32.6914 72.82 44.6114 76.59 73.5414 82.51C103.361 88.42 122.251 89.63 122.251 89.63H122.231Z" fill="url(#paint3_linear_2422_243)"/>
<path d="M122.231 88.18C122.231 88.18 140.971 87 170.561 81.27C199.261 75.54 211.101 71.88 221.921 66.65C229.281 62.73 233.421 54.61 234.741 46.23C235.461 39.75 236.221 27.65 236.041 23.67C235.861 19.69 235.841 11.34 224.241 9.62C214.731 8.67 191.471 7.18 188.841 7.01C186.211 6.84 159.781 5.82 150.691 5.76C141.601 5.7 122.231 5.76 122.231 5.76C122.231 5.76 102.861 5.7 93.7714 5.76C84.6814 5.82 58.2514 6.83 55.6214 7.01C52.9914 7.19 29.7314 8.67 20.2214 9.62C8.62141 11.34 8.60141 19.69 8.42141 23.67C8.24141 27.65 9.01141 39.75 9.72141 46.23C11.0414 54.61 15.1814 62.73 22.5414 66.65C33.3614 71.88 45.2014 75.54 73.9014 81.27C103.491 87 122.231 88.18 122.231 88.18Z" fill="url(#paint4_linear_2422_243)"/>
<path d="M122.231 87.54C122.231 87.54 140.881 86.38 170.331 80.74C198.891 75.1 210.671 71.5 221.441 66.36C228.761 62.5 232.761 54.38 234.071 46.13C234.781 39.76 235.681 27.99 235.501 24.08C235.321 20.17 235.301 11.96 223.761 10.26C214.301 9.32002 191.151 7.86002 188.531 7.69002C185.911 7.52002 159.611 6.52002 150.561 6.46002C141.511 6.40002 122.241 6.46002 122.241 6.46002C122.241 6.46002 102.961 6.40002 93.9214 6.46002C84.8814 6.52002 58.5714 7.51002 55.9514 7.69002C53.3314 7.87002 30.1814 9.33002 20.7214 10.26C9.17142 11.96 9.15142 20.16 8.98142 24.08C8.81142 28 9.69142 39.76 10.4114 46.13C11.7214 54.37 15.7214 62.5 23.0414 66.36C33.8114 71.5 45.5914 75.1 74.1514 80.74C103.601 86.38 122.251 87.54 122.251 87.54H122.231Z" fill="url(#paint5_linear_2422_243)"/>
<path d="M121.321 23.66H70.6014L68.6514 31.17H111.791C113.461 31.21 114.781 31.31 115.571 32.24C116.321 33.12 116.261 34.38 116.081 35.49C115.531 38.79 110.501 39.24 110.281 39.24L81.7414 39.19L75.8814 61.09H112.731C114.651 61.09 117.071 60.25 118.661 59.05C120.501 57.63 121.271 54.26 121.551 52.98C121.591 52.82 121.621 52.69 121.641 52.59C121.881 51.63 122.621 47.27 122.791 45.56C122.841 45.02 122.911 43.36 120.211 42.93L117.671 42.39L120.191 41.4C122.551 40.81 123.021 38.52 123.041 38.42C123.061 38.34 123.941 34.43 125.451 28.29C125.801 26.87 125.681 25.77 125.091 25.02C124.051 23.69 121.771 23.63 121.331 23.63V23.66H121.321ZM114.551 49.56C113.771 52.43 112.071 53.66 108.881 53.7H107.651C102.511 53.7 86.9114 53.55 86.7514 53.55H85.4514L85.8114 52.28L87.5214 46.33L87.7314 45.62H88.4714L110.521 45.5H110.761C111.621 45.5 113.211 45.67 114.101 46.81C114.491 47.31 114.891 48.19 114.561 49.56H114.551Z" fill="url(#paint6_linear_2422_243)"/>
<path d="M136.321 35.18C137.311 31.37 141.711 31.18 141.891 31.17C142.171 31.17 155.181 31.2 164.921 31.2C169.701 31.2 172.871 31.2 174.381 31.18C175.911 26.85 175.771 26.52 175.091 25.16C174.251 23.75 172.201 23.59 171.361 23.59C171.161 23.59 171.041 23.59 171.021 23.6H170.941C170.821 23.6 158.471 23.54 149.241 23.54C143.831 23.54 140.541 23.56 139.451 23.6H139.301C135.761 23.72 135.461 23.74 133.401 24.9C130.731 26.68 130.031 29.93 128.961 34.85L128.831 35.44C128.031 39.1 127.221 40.95 126.701 41.85C128.021 43.79 128.041 45.93 128.041 46.03V46.14L128.011 46.25L126.311 53.66C125.431 57.5 124.981 58.6 124.251 59.84C125.041 60.88 126.261 61 126.801 61H127.111C127.241 61 140.121 61.08 150.141 61.08C156.021 61.08 159.771 61.05 161.291 61C165.521 60.85 167.631 56.9 167.921 56.32L172.051 39.44H156.251L154.631 45.68H163.351L162.971 46.96L162.221 49.47C160.891 53.62 157.011 53.81 156.851 53.82C156.821 53.82 149.641 53.85 143.701 53.85C140.251 53.85 137.911 53.85 136.761 53.82C135.341 53.8 134.251 53.33 133.541 52.42C132.331 50.89 132.741 48.77 132.801 48.53C132.841 48.39 135.521 38.28 136.331 35.18H136.321Z" fill="url(#paint7_linear_2422_243)"/>
<path d="M126.611 27.21C126.621 27 126.631 26.8 126.621 26.61C126.621 26.5 126.601 26.39 126.581 26.29C126.561 26.13 126.541 25.97 126.501 25.82C126.481 25.72 126.441 25.62 126.411 25.53C126.371 25.4 126.321 25.27 126.271 25.15C126.231 25.06 126.181 24.98 126.141 24.89C126.081 24.78 126.011 24.67 125.941 24.57C125.891 24.5 125.831 24.42 125.771 24.35C125.691 24.26 125.611 24.17 125.521 24.09C125.461 24.03 125.391 23.97 125.331 23.91C125.241 23.83 125.141 23.76 125.041 23.69C124.971 23.64 124.901 23.59 124.831 23.55C124.721 23.48 124.611 23.43 124.501 23.37C124.431 23.34 124.371 23.3 124.301 23.27C124.171 23.21 124.041 23.16 123.921 23.12C123.871 23.1 123.811 23.08 123.761 23.06C123.581 23 123.401 22.95 123.221 22.9C123.191 22.9 123.171 22.9 123.141 22.88C122.991 22.84 122.841 22.81 122.701 22.79C122.641 22.78 122.581 22.77 122.531 22.76C122.431 22.74 122.321 22.73 122.231 22.72C122.171 22.72 122.111 22.71 122.061 22.7C121.981 22.7 121.901 22.68 121.821 22.68H69.8413L67.3713 32.17H111.791C114.511 32.23 115.531 32.48 115.101 35.35C114.671 38.22 110.281 38.25 110.281 38.25L80.9813 38.2L74.5913 62.09H112.741C112.891 62.09 113.051 62.09 113.211 62.07C113.341 62.07 113.461 62.07 113.591 62.05C113.751 62.03 113.901 62.01 114.061 61.98C114.191 61.96 114.321 61.95 114.451 61.92C114.611 61.89 114.771 61.85 114.931 61.81C115.061 61.78 115.191 61.76 115.321 61.72C115.481 61.68 115.641 61.62 115.801 61.57C115.931 61.53 116.061 61.5 116.191 61.45C116.351 61.39 116.511 61.33 116.671 61.26C116.791 61.21 116.911 61.17 117.031 61.12C117.191 61.05 117.341 60.97 117.501 60.9C117.611 60.85 117.731 60.8 117.841 60.74C118.001 60.66 118.151 60.56 118.311 60.47C118.411 60.41 118.511 60.36 118.601 60.31C118.841 60.16 119.071 60 119.291 59.84C121.651 58.02 122.391 53.83 122.641 52.83C122.891 51.83 123.641 47.41 123.821 45.66C124.041 43.43 122.301 42.56 120.551 42.28C123.591 41.52 124.051 38.6 124.051 38.6C124.051 38.6 124.931 34.73 126.451 28.53C126.541 28.16 126.601 27.81 126.631 27.49C126.641 27.38 126.631 27.28 126.641 27.18L126.611 27.21ZM125.451 28.33C123.951 34.47 122.961 38.16 122.941 38.23C122.921 38.33 122.821 39.9 120.191 41.43L117.671 42.42L119.261 42.78C121.961 43.21 122.951 44.57 122.731 46.08C122.491 47.78 121.641 51.63 121.411 52.59C121.391 52.69 121.361 52.82 121.321 52.98C121.031 54.25 120.201 57.53 118.361 58.95C116.781 60.15 114.651 61.11 112.731 61.11H75.8813L81.7413 39.21L110.281 39.26C110.491 39.26 115.651 39.01 116.201 35.35C116.371 34.24 116.681 33.1 115.931 32.21C115.141 31.28 113.461 31.23 111.791 31.19H68.6513L70.6013 23.68H121.321C121.771 23.68 124.041 23.75 125.081 25.07C125.671 25.82 125.791 26.92 125.441 28.34H125.451V28.33Z" fill="url(#paint8_linear_2422_243)"/>
<path d="M110.771 45.51H110.531L88.4814 45.62H87.7414L87.5314 46.34L85.8214 52.29L85.4614 53.54H86.7614C86.9214 53.55 102.521 53.71 107.661 53.71H108.891C112.081 53.67 113.781 52.44 114.561 49.57C114.891 48.2 114.491 47.32 114.101 46.82C113.211 45.68 111.621 45.51 110.761 45.51H110.771ZM113.691 48.83C113.691 48.99 113.651 49.16 113.611 49.34C113.051 51.38 112.011 52.68 108.891 52.72H102.771C102.051 52.72 101.311 52.72 100.541 52.71H100.501C99.7214 52.71 98.9214 52.7 98.1214 52.69H97.8214C96.7114 52.69 95.6114 52.67 94.5514 52.66H93.4714C92.9914 52.66 92.5314 52.66 92.0814 52.65H89.8014C89.2314 52.65 88.7414 52.65 88.3114 52.64H87.8214C87.1714 52.64 86.7814 52.63 86.7814 52.63L88.4914 46.68L110.561 46.57H110.931C110.991 46.57 111.061 46.57 111.141 46.58C111.221 46.58 111.311 46.58 111.401 46.6C111.431 46.6 111.451 46.6 111.481 46.61C111.551 46.61 111.611 46.63 111.681 46.64C111.721 46.64 111.751 46.65 111.791 46.66C111.851 46.66 111.921 46.69 111.981 46.7C112.021 46.7 112.061 46.72 112.101 46.73C112.161 46.75 112.231 46.77 112.291 46.79C112.331 46.8 112.371 46.82 112.401 46.83C112.471 46.86 112.531 46.89 112.601 46.92C112.631 46.94 112.671 46.95 112.701 46.97C112.791 47.02 112.881 47.07 112.961 47.13H112.981C113.071 47.19 113.151 47.26 113.221 47.34C113.241 47.36 113.261 47.39 113.281 47.42C113.331 47.48 113.381 47.54 113.421 47.6C113.441 47.63 113.461 47.67 113.481 47.71C113.511 47.77 113.551 47.84 113.571 47.91C113.591 47.95 113.601 48 113.621 48.04C113.641 48.11 113.661 48.19 113.671 48.27C113.671 48.32 113.691 48.37 113.691 48.42V48.86V48.83Z" fill="url(#paint9_radial_2422_243)"/>
<path d="M137.281 35.43C138.101 32.29 141.931 32.16 141.931 32.16H175.061C176.941 26.89 176.821 26.45 175.941 24.69C175.821 24.48 175.671 24.29 175.521 24.12C175.491 24.08 175.451 24.05 175.421 24.01C175.261 23.85 175.101 23.71 174.921 23.58L174.831 23.52C174.671 23.41 174.501 23.31 174.331 23.23C174.291 23.21 174.261 23.19 174.221 23.18C174.031 23.09 173.841 23.02 173.641 22.95C173.601 22.94 173.551 22.92 173.511 22.91C173.331 22.85 173.151 22.81 172.971 22.77C172.951 22.77 172.931 22.77 172.921 22.76C172.731 22.72 172.551 22.69 172.371 22.67C172.331 22.67 172.291 22.66 172.251 22.66C172.081 22.64 171.921 22.63 171.781 22.62H171.741C171.601 22.62 171.481 22.62 171.371 22.61H139.401C138.241 22.65 137.401 22.68 136.711 22.74C135.201 22.87 134.471 23.15 132.871 24.06C129.731 26.13 129.041 29.77 127.851 35.24C126.661 40.71 125.361 41.9 125.361 41.9C126.931 43.72 127.071 45.16 127.011 45.69C126.951 46.22 126.771 47.22 126.321 49.17C126.191 49.76 126.041 50.41 125.871 51.13C125.711 51.85 125.531 52.62 125.341 53.45C124.961 55.1 124.671 56.23 124.401 57.06C124.311 57.34 124.231 57.58 124.141 57.81C123.801 58.7 123.411 59 123.001 59.66C123.111 59.88 123.321 60.27 123.451 60.45C123.481 60.49 123.511 60.53 123.541 60.56C123.671 60.72 123.811 60.87 123.961 61C123.981 61.02 124.011 61.04 124.031 61.06C124.161 61.17 124.301 61.27 124.441 61.36C124.471 61.38 124.491 61.4 124.521 61.41C124.671 61.5 124.831 61.58 124.981 61.64C125.011 61.65 125.051 61.67 125.081 61.68C125.231 61.74 125.381 61.79 125.521 61.83H125.541C125.691 61.87 125.841 61.9 125.971 61.92C126.001 61.92 126.031 61.93 126.061 61.94C126.191 61.96 126.311 61.97 126.421 61.98H135.361C136.101 61.98 136.881 61.98 137.671 61.99H159.311C159.561 61.99 159.801 61.99 160.021 61.98C160.241 61.98 160.431 61.98 160.621 61.97H160.771C160.951 61.97 161.121 61.97 161.261 61.96C166.471 61.77 168.051 57.96 168.801 56.62C169.551 55.28 173.401 38.34 173.401 38.34L155.421 38.41L154.351 42.52L153.281 46.63H161.951L161.821 47.08C161.781 47.23 161.721 47.43 161.641 47.69C161.591 47.87 161.531 48.07 161.451 48.31C161.381 48.55 161.301 48.83 161.201 49.14C160.991 49.8 160.701 50.34 160.371 50.78C159.931 51.37 159.421 51.79 158.921 52.08C158.801 52.15 158.671 52.22 158.551 52.28C158.311 52.4 158.071 52.49 157.861 52.56C157.751 52.59 157.651 52.62 157.551 52.65C157.361 52.7 157.191 52.73 157.061 52.75C156.861 52.78 156.751 52.78 156.751 52.78H136.711C132.821 52.72 133.781 48.59 133.781 48.59C133.781 48.59 136.391 38.52 137.211 35.38L137.281 35.43ZM133.541 52.42C134.261 53.32 135.341 53.79 136.761 53.82C137.911 53.84 140.251 53.85 143.701 53.85C149.641 53.85 156.811 53.82 156.851 53.82C157.011 53.82 160.891 53.62 162.221 49.47L162.971 46.96L163.351 45.68H154.631L156.251 39.44H172.051L167.921 56.32C167.631 56.91 165.511 60.85 161.291 61C159.761 61.06 156.011 61.08 150.141 61.08C140.121 61.08 127.241 61 127.111 61H126.801C126.271 61 125.041 60.88 124.251 59.84C125.421 58.43 125.951 56.22 126.421 53.67L128.031 46.14C128.031 46.14 128.171 45.5 128.211 45.03C128.251 44.56 128.011 43.79 126.691 41.85C127.211 40.95 128.021 39.09 128.821 35.44L128.951 34.85C130.021 29.93 130.731 26.68 133.391 24.9C135.441 23.74 135.751 23.73 139.291 23.61H139.441C140.521 23.57 143.811 23.55 149.231 23.55C158.461 23.55 170.811 23.61 170.931 23.61H171.011C171.011 23.61 171.151 23.61 171.351 23.61C172.191 23.61 174.241 23.76 175.081 25.18C175.761 26.54 175.901 26.86 174.371 31.2C172.861 31.21 169.691 31.22 164.911 31.22C155.181 31.22 142.161 31.19 141.881 31.19C141.691 31.19 137.301 31.38 136.311 35.2C135.501 38.3 132.821 48.41 132.781 48.55C132.731 48.79 132.311 50.91 133.521 52.44H133.541V52.42Z" fill="url(#paint10_linear_2422_243)"/>
</g>
<defs>
<radialGradient id="paint0_radial_2422_243" cx="0" cy="0" r="1" gradientUnits="userSpaceOnUse" gradientTransform="translate(121.27 13.3756) rotate(90.71) scale(94.98 158.617)">
<stop stop-color="#808080"/>
<stop offset="0.53" stop-color="#404040"/>
<stop offset="0.74" stop-color="#4C4C4C"/>
<stop offset="0.98" stop-color="#575757"/>
</radialGradient>
<linearGradient id="paint1_linear_2422_243" x1="122.231" y1="91.9" x2="122.231" y2="1.34998" gradientUnits="userSpaceOnUse">
<stop/>
<stop offset="0.07" stop-color="#0C0C0C"/>
<stop offset="0.19" stop-color="#1A1A1A"/>
<stop offset="0.33" stop-color="#232323"/>
<stop offset="0.55" stop-color="#262626"/>
<stop offset="0.98" stop-color="#292929"/>
</linearGradient>
<radialGradient id="paint2_radial_2422_243" cx="0" cy="0" r="1" gradientUnits="userSpaceOnUse" gradientTransform="translate(122.568 -5.6059) rotate(89.84) scale(112.79 150.011)">
<stop offset="0.63" stop-color="#949494"/>
<stop offset="0.65" stop-color="#9F9F9F"/>
<stop offset="0.7" stop-color="#BEBEBE"/>
<stop offset="0.76" stop-color="#F0F0F0"/>
<stop offset="0.77" stop-color="white"/>
<stop offset="0.79" stop-color="#DADADA"/>
<stop offset="0.81" stop-color="#A7A7A7"/>
<stop offset="0.83" stop-color="#888888"/>
<stop offset="0.84" stop-color="#7D7D7D"/>
<stop offset="0.92" stop-color="#919191"/>
<stop offset="1" stop-color="white"/>
</radialGradient>
<linearGradient id="paint3_linear_2422_243" x1="122.241" y1="89.63" x2="122.241" y2="4.62002" gradientUnits="userSpaceOnUse">
<stop offset="0.11" stop-color="#DBDBDB"/>
<stop offset="0.88" stop-color="#363636"/>
</linearGradient>
<linearGradient id="paint4_linear_2422_243" x1="121.701" y1="99.19" x2="122.411" y2="-0.549994" gradientUnits="userSpaceOnUse">
<stop offset="0.11"/>
<stop offset="0.41" stop-color="#3C3C3C"/>
<stop offset="0.68" stop-color="#6A6A6A"/>
<stop offset="0.88" stop-color="#868686"/>
<stop offset="1" stop-color="#919191"/>
</linearGradient>
<linearGradient id="paint5_linear_2422_243" x1="122.241" y1="8.27002" x2="122.241" y2="73.17" gradientUnits="userSpaceOnUse">
<stop offset="0.11" stop-color="#363636"/>
<stop offset="0.78"/>
</linearGradient>
<linearGradient id="paint6_linear_2422_243" x1="97.1514" y1="23.63" x2="97.1514" y2="61.09" gradientUnits="userSpaceOnUse">
<stop stop-color="white"/>
<stop offset="0.16" stop-color="#F3F3F3"/>
<stop offset="0.36" stop-color="#CECECE"/>
<stop offset="0.37" stop-color="#AEAEAE"/>
<stop offset="0.38" stop-color="#ABABAB"/>
<stop offset="0.48" stop-color="#979797"/>
<stop offset="0.58" stop-color="#8B8B8B"/>
<stop offset="0.68" stop-color="#878787"/>
<stop offset="1" stop-color="#303030"/>
</linearGradient>
<linearGradient id="paint7_linear_2422_243" x1="149.921" y1="23.54" x2="149.921" y2="61.08" gradientUnits="userSpaceOnUse">
<stop stop-color="white"/>
<stop offset="0.16" stop-color="#F3F3F3"/>
<stop offset="0.36" stop-color="#CECECE"/>
<stop offset="0.37" stop-color="#AEAEAE"/>
<stop offset="0.38" stop-color="#ABABAB"/>
<stop offset="0.48" stop-color="#979797"/>
<stop offset="0.58" stop-color="#8B8B8B"/>
<stop offset="0.68" stop-color="#878787"/>
<stop offset="1" stop-color="#303030"/>
</linearGradient>
<linearGradient id="paint8_linear_2422_243" x1="95.6813" y1="21.56" x2="102.791" y2="63.44" gradientUnits="userSpaceOnUse">
<stop stop-color="#F9F9F9"/>
<stop offset="0.07" stop-color="#C9C9C9"/>
<stop offset="0.13" stop-color="#A0A0A0"/>
<stop offset="0.19" stop-color="#818181"/>
<stop offset="0.25" stop-color="#6B6B6B"/>
<stop offset="0.31" stop-color="#5D5D5D"/>
<stop offset="0.36" stop-color="#595959"/>
<stop offset="0.45" stop-color="#5A5A5A"/>
<stop offset="0.48" stop-color="#616161"/>
<stop offset="0.5" stop-color="#6D6D6D"/>
<stop offset="0.52" stop-color="#818181"/>
<stop offset="0.77" stop-color="#A8A8A8"/>
<stop offset="0.79" stop-color="#838383"/>
<stop offset="0.82" stop-color="#626262"/>
<stop offset="0.84" stop-color="#464646"/>
<stop offset="0.87" stop-color="#313131"/>
<stop offset="0.9" stop-color="#222222"/>
<stop offset="0.94" stop-color="#191919"/>
<stop offset="1" stop-color="#171717"/>
</linearGradient>
<radialGradient id="paint9_radial_2422_243" cx="0" cy="0" r="1" gradientUnits="userSpaceOnUse" gradientTransform="translate(100.121 55.3856) rotate(-88.99) scale(12.96 17.6256)">
<stop offset="0.44" stop-color="white"/>
<stop offset="1" stop-color="#4D4D4D"/>
</radialGradient>
<linearGradient id="paint10_linear_2422_243" x1="145.451" y1="19.42" x2="153.261" y2="62.06" gradientUnits="userSpaceOnUse">
<stop stop-color="#F9F9F9"/>
<stop offset="0.07" stop-color="#C9C9C9"/>
<stop offset="0.13" stop-color="#A0A0A0"/>
<stop offset="0.19" stop-color="#818181"/>
<stop offset="0.25" stop-color="#6B6B6B"/>
<stop offset="0.31" stop-color="#5D5D5D"/>
<stop offset="0.36" stop-color="#595959"/>
<stop offset="0.45" stop-color="#5A5A5A"/>
<stop offset="0.48" stop-color="#616161"/>
<stop offset="0.5" stop-color="#6D6D6D"/>
<stop offset="0.52" stop-color="#818181"/>
<stop offset="0.79" stop-color="#A8A8A8"/>
<stop offset="0.81" stop-color="#828282"/>
<stop offset="0.83" stop-color="#616161"/>
<stop offset="0.85" stop-color="#464646"/>
<stop offset="0.87" stop-color="#313131"/>
<stop offset="0.9" stop-color="#222222"/>
<stop offset="0.93" stop-color="#191919"/>
<stop offset="0.98" stop-color="#171717"/>
</linearGradient>
<clipPath id="clip0_2422_243">
<rect width="245" height="143" fill="white"/>
</clipPath>
</defs>
</svg>
