<?xml version="1.0" encoding="UTF-8"?>
<svg id="_Слой_2" data-name="Слой 2" xmlns="http://www.w3.org/2000/svg" xmlns:xlink="http://www.w3.org/1999/xlink" viewBox="0 0 538.84 93.17">
  <defs>
    <style>
      .cls-1 {
        fill: url(#linear-gradient-2);
      }

      .cls-2 {
        fill: url(#linear-gradient-6);
      }

      .cls-3 {
        fill: url(#radial-gradient);
      }

      .cls-4 {
        fill: url(#linear-gradient-5);
      }

      .cls-5 {
        fill: url(#radial-gradient-2);
      }

      .cls-6 {
        fill: url(#radial-gradient-3);
      }

      .cls-7 {
        fill: url(#linear-gradient-7);
      }

      .cls-8 {
        fill: url(#linear-gradient-3);
      }

      .cls-9 {
        fill: url(#linear-gradient);
      }

      .cls-10 {
        fill: url(#linear-gradient-4);
      }

      .cls-11 {
        fill: url(#linear-gradient-8);
      }
    </style>
    <radialGradient id="radial-gradient" cx="216.99" cy="764.59" fx="165.28" fy="764.59" r="94.98" gradientTransform="translate(-1152.81 -219.42) rotate(90.71) scale(1 -1.67)" gradientUnits="userSpaceOnUse">
      <stop offset="0" stop-color="gray"/>
      <stop offset=".53" stop-color="#404040"/>
      <stop offset=".74" stop-color="#4c4c4c"/>
      <stop offset=".98" stop-color="#575757"/>
    </radialGradient>
    <linearGradient id="linear-gradient" x1="122.23" y1="-12.02" x2="122.23" y2="78.53" gradientTransform="translate(0 79.88) scale(1 -1)" gradientUnits="userSpaceOnUse">
      <stop offset="0" stop-color="#000"/>
      <stop offset=".07" stop-color="#0c0c0c"/>
      <stop offset=".19" stop-color="#1a1a1a"/>
      <stop offset=".33" stop-color="#232323"/>
      <stop offset=".55" stop-color="#262626"/>
      <stop offset=".98" stop-color="#292929"/>
    </linearGradient>
    <radialGradient id="radial-gradient-2" cx="223.68" cy="836.02" fx="223.68" fy="836.02" r="112.79" gradientTransform="translate(-989.96 -226.18) rotate(89.84) scale(1 -1.33)" gradientUnits="userSpaceOnUse">
      <stop offset=".63" stop-color="#949494"/>
      <stop offset=".65" stop-color="#9f9f9f"/>
      <stop offset=".7" stop-color="#bebebe"/>
      <stop offset=".76" stop-color="#f0f0f0"/>
      <stop offset=".77" stop-color="#fff"/>
      <stop offset=".79" stop-color="#dadada"/>
      <stop offset=".81" stop-color="#a7a7a7"/>
      <stop offset=".83" stop-color="#888"/>
      <stop offset=".84" stop-color="#7d7d7d"/>
      <stop offset=".92" stop-color="#919191"/>
      <stop offset="1" stop-color="#fff"/>
    </radialGradient>
    <linearGradient id="linear-gradient-2" x1="122.24" y1="-9.75" x2="122.24" y2="75.26" gradientTransform="translate(0 79.88) scale(1 -1)" gradientUnits="userSpaceOnUse">
      <stop offset=".11" stop-color="#dbdbdb"/>
      <stop offset=".88" stop-color="#363636"/>
    </linearGradient>
    <linearGradient id="linear-gradient-3" x1="121.7" y1="-19.31" x2="122.41" y2="80.43" gradientTransform="translate(0 79.88) scale(1 -1)" gradientUnits="userSpaceOnUse">
      <stop offset=".11" stop-color="#000"/>
      <stop offset=".41" stop-color="#3c3c3c"/>
      <stop offset=".68" stop-color="#6a6a6a"/>
      <stop offset=".88" stop-color="#868686"/>
      <stop offset="1" stop-color="#919191"/>
    </linearGradient>
    <linearGradient id="linear-gradient-4" x1="122.24" y1="71.61" x2="122.24" y2="6.71" gradientTransform="translate(0 79.88) scale(1 -1)" gradientUnits="userSpaceOnUse">
      <stop offset=".11" stop-color="#363636"/>
      <stop offset=".78" stop-color="#000"/>
    </linearGradient>
    <linearGradient id="linear-gradient-5" x1="97.15" y1="56.25" x2="97.15" y2="18.79" gradientTransform="translate(0 79.88) scale(1 -1)" gradientUnits="userSpaceOnUse">
      <stop offset="0" stop-color="#fff"/>
      <stop offset=".16" stop-color="#f3f3f3"/>
      <stop offset=".36" stop-color="#dedede"/>
      <stop offset=".36" stop-color="#cecece"/>
      <stop offset=".37" stop-color="#bababa"/>
      <stop offset=".37" stop-color="#aeaeae"/>
      <stop offset=".38" stop-color="#ababab"/>
      <stop offset=".48" stop-color="#979797"/>
      <stop offset=".58" stop-color="#8b8b8b"/>
      <stop offset=".68" stop-color="#878787"/>
      <stop offset="1" stop-color="#303030"/>
    </linearGradient>
    <linearGradient id="linear-gradient-6" x1="149.92" y1="56.34" x2="149.92" y2="18.8" xlink:href="#linear-gradient-5"/>
    <linearGradient id="linear-gradient-7" x1="95.68" y1="58.32" x2="102.79" y2="16.44" gradientTransform="translate(0 79.88) scale(1 -1)" gradientUnits="userSpaceOnUse">
      <stop offset="0" stop-color="#fff"/>
      <stop offset="0" stop-color="#f9f9f9"/>
      <stop offset=".07" stop-color="#c9c9c9"/>
      <stop offset=".13" stop-color="#a0a0a0"/>
      <stop offset=".19" stop-color="#818181"/>
      <stop offset=".25" stop-color="#6b6b6b"/>
      <stop offset=".31" stop-color="#5d5d5d"/>
      <stop offset=".36" stop-color="#595959"/>
      <stop offset=".45" stop-color="#5a5a5a"/>
      <stop offset=".48" stop-color="#616161"/>
      <stop offset=".5" stop-color="#6d6d6d"/>
      <stop offset=".52" stop-color="#7e7e7e"/>
      <stop offset=".52" stop-color="#818181"/>
      <stop offset=".77" stop-color="#a8a8a8"/>
      <stop offset=".79" stop-color="#838383"/>
      <stop offset=".82" stop-color="#626262"/>
      <stop offset=".84" stop-color="#464646"/>
      <stop offset=".87" stop-color="#313131"/>
      <stop offset=".9" stop-color="#222"/>
      <stop offset=".94" stop-color="#191919"/>
      <stop offset="1" stop-color="#171717"/>
    </linearGradient>
    <radialGradient id="radial-gradient-3" cx="-736.86" cy="216.91" fx="-736.86" fy="216.91" r="12.96" gradientTransform="translate(408.06 -676.16) rotate(-88.99) scale(1 -1.36)" gradientUnits="userSpaceOnUse">
      <stop offset=".44" stop-color="#fff"/>
      <stop offset="1" stop-color="#4d4d4d"/>
    </radialGradient>
    <linearGradient id="linear-gradient-8" x1="145.45" y1="60.46" x2="153.26" y2="17.82" gradientTransform="translate(0 79.88) scale(1 -1)" gradientUnits="userSpaceOnUse">
      <stop offset="0" stop-color="#fff"/>
      <stop offset="0" stop-color="#f9f9f9"/>
      <stop offset=".07" stop-color="#c9c9c9"/>
      <stop offset=".13" stop-color="#a0a0a0"/>
      <stop offset=".19" stop-color="#818181"/>
      <stop offset=".25" stop-color="#6b6b6b"/>
      <stop offset=".31" stop-color="#5d5d5d"/>
      <stop offset=".36" stop-color="#595959"/>
      <stop offset=".45" stop-color="#5a5a5a"/>
      <stop offset=".48" stop-color="#616161"/>
      <stop offset=".5" stop-color="#6d6d6d"/>
      <stop offset=".52" stop-color="#7e7e7e"/>
      <stop offset=".52" stop-color="#818181"/>
      <stop offset=".79" stop-color="#a8a8a8"/>
      <stop offset=".81" stop-color="#828282"/>
      <stop offset=".83" stop-color="#616161"/>
      <stop offset=".85" stop-color="#464646"/>
      <stop offset=".87" stop-color="#313131"/>
      <stop offset=".9" stop-color="#222"/>
      <stop offset=".93" stop-color="#191919"/>
      <stop offset=".98" stop-color="#171717"/>
    </linearGradient>
  </defs>
  <g id="Layer_1" data-name="Layer 1">
    <g>
      <path d="m264.8,18.19h30.55c5.86,0,9.52,1.36,11,4.08.49.91.74,2.37.74,4.39v3.03c0,3.63-1.69,6.03-5.09,7.22,3.5.98,5.25,3.21,5.25,6.69v3.77c0,5.65-4.16,8.48-12.48,8.48h-29.97V18.19Zm12.73,8.05v6.59h14.04c1.97-.14,2.96-.8,2.96-1.99v-2.51c0-.69-.47-1.28-1.4-1.78-.6-.21-1.13-.31-1.56-.31h-14.04Zm0,14.75v6.7h13.97c1.91-.14,2.87-.84,2.87-2.09v-2.41c0-1.25-1.04-1.98-3.12-2.19h-13.72Z"/>
      <path d="m314.98,48.01v-21.66c0-.48.08-1.04.25-1.68,1.09-4.32,5.11-6.48,12.07-6.48h26.28v8.05h-22.91c-.17.07-.44.14-.82.21-1.42.35-2.13,1.08-2.13,2.2v4.19h25.87v8.16h-25.87v4.18c0,1.54,1.09,2.38,3.28,2.51h22.58v8.16h-24.47c-9.41,0-14.12-2.61-14.12-7.84"/>
      <path d="m360.72,46.65v-28.46h12.73v27.83c0,1.12,1.07,1.68,3.2,1.68h22.5l-.08,8.16h-23.57c-.76,0-1.48-.03-2.13-.1-4.49-.21-7.72-1.03-9.69-2.46-1.97-1.43-2.96-3.64-2.96-6.64"/>
      <path d="m404.49,45.19v-17.68c0-3.49,1.07-5.91,3.2-7.27,2.13-1.36,5.91-2.04,11.33-2.04h23.98v8.06h-23.49c-1.31.14-2.08.66-2.3,1.57v18.31c.33.9,1.23,1.43,2.71,1.57h10.1c2.46,0,3.8-.56,4.03-1.68v-11.83h12.74v12.03c0,2.44-.39,4.15-1.15,5.13-2.19,3-6.16,4.5-11.91,4.5h-14.61c-5.26,0-9.12-.84-11.58-2.51-1.43-.98-2.33-2.09-2.71-3.35-.22-.83-.33-2.44-.33-4.81"/>
      <path d="m454.5,48.01v-21.66c0-.48.08-1.04.24-1.68,1.1-4.32,5.12-6.48,12.07-6.48h26.28v8.05h-22.92c-.16.07-.43.14-.81.21-1.43.35-2.14,1.08-2.14,2.2v4.19h25.87v8.16h-25.87v4.18c0,1.54,1.1,2.38,3.28,2.51h22.59v8.16h-24.47c-9.42,0-14.12-2.61-14.12-7.84"/>
      <path d="m500.24,48.01v-21.66c0-.48.08-1.04.24-1.68,1.1-4.32,5.12-6.48,12.07-6.48h26.28v8.05h-22.91c-.17.07-.44.14-.82.21-1.43.35-2.13,1.08-2.13,2.2v4.19h25.87v8.16h-25.87v4.18c0,1.54,1.09,2.38,3.29,2.51h22.58v8.16h-24.47c-9.42,0-14.12-2.61-14.12-7.84"/>
    </g>
    <g>
      <path class="cls-3" d="m122.23,93.16s20.44-.84,51.99-7.32c30.61-6.48,42.95-10.28,54.86-16.76,9.67-5.7,12.24-13.99,13.64-23.46,1.39-7.95,1.84-19.33,1.71-23.84-.16-5.81-.95-15.07-13.32-17.02-12.47-2.04-35.25-2.7-38.06-2.9s-31.14-1.19-40.83-1.48-30-.38-30-.38c0,0-20.1.09-30,.38-9.69.29-38.02,1.28-40.83,1.48s-25.59.86-38.06,2.9C.97,6.72.19,15.98.02,21.79c-.13,4.5.32,15.89,1.71,23.84,1.4,9.47,3.97,17.76,13.64,23.46,11.91,6.47,24.25,10.27,54.86,16.76,31.56,6.48,51.99,7.32,51.99,7.32h0Z"/>
      <path class="cls-9" d="m122.23,91.9s22.14-1.66,50.23-7.3c27.11-5.86,42.98-9.41,54.72-15.79,9.54-5.61,12.5-13.17,13.88-22.5,1.37-7.83,1.63-19.05,1.69-23.49.08-6.28-.94-14.85-13.14-16.77-12.29-2.02-34.77-2.66-37.53-2.86-2.77-.2-30.71-1.18-40.27-1.46s-29.59-.38-29.59-.38c0,0-19.83.09-29.59.38s-37.5,1.26-40.27,1.46-25.24.85-37.53,2.86C2.64,7.96,1.62,16.53,1.7,22.81c.06,4.44.32,15.66,1.69,23.49,1.38,9.33,4.35,16.89,13.88,22.5,11.74,6.38,27.62,9.93,54.72,15.79,28.09,5.64,50.23,7.3,50.23,7.3h0Z"/>
      <path class="cls-5" d="m122.23,91.12s19.7-1.26,50.62-7.42c30-6.15,42.8-10.19,54.11-15.81,7.84-4.71,11.75-13.33,13.13-22.33.75-6.95,1.88-20.97,1.69-25.24s-.69-11.69-12.81-13.54c-9.94-1.02-34.25-2.62-37-2.81s-30.38-1.28-39.88-1.34-29.85,0-29.85,0c0,0-20.35-.06-29.85,0s-37.13,1.15-39.88,1.34-27.06,1.79-37,2.81C3.37,8.63,2.87,16.05,2.68,20.33s.94,18.29,1.69,25.24c1.38,8.99,5.29,17.61,13.13,22.33,11.31,5.61,24.11,9.65,54.11,15.81,30.93,6.15,50.62,7.42,50.62,7.42h0Z"/>
      <path class="cls-1" d="m122.23,89.63s18.89-1.21,48.71-7.12c28.92-5.91,40.85-9.68,51.76-15.08,7.41-4.04,11.59-12.41,12.92-21.05.72-6.68,1.5-19.16,1.32-23.26s-.2-12.71-11.89-14.48c-9.58-.98-33.02-2.51-35.68-2.7s-29.29-1.23-38.45-1.29-28.68,0-28.68,0c0,0-19.52-.06-28.68,0s-35.8,1.1-38.45,1.29-26.09,1.72-35.68,2.7c-11.69,1.78-11.71,10.38-11.89,14.48s.59,16.58,1.32,23.26c1.33,8.64,5.51,17.01,12.92,21.05,10.91,5.39,22.83,9.16,51.76,15.08,29.82,5.91,48.71,7.12,48.71,7.12h-.02Z"/>
      <path class="cls-8" d="m122.23,88.18s18.74-1.18,48.33-6.91c28.7-5.73,40.54-9.39,51.36-14.62,7.36-3.92,11.5-12.04,12.82-20.42.72-6.48,1.48-18.58,1.3-22.56s-.2-12.33-11.8-14.05c-9.51-.95-32.77-2.44-35.4-2.61s-29.06-1.19-38.15-1.25-28.46,0-28.46,0c0,0-19.37-.06-28.46,0s-35.52,1.07-38.15,1.25-25.89,1.66-35.4,2.61c-11.6,1.72-11.62,10.07-11.8,14.05s.59,16.08,1.3,22.56c1.32,8.38,5.46,16.5,12.82,20.42,10.82,5.23,22.66,8.89,51.36,14.62,29.59,5.73,48.33,6.91,48.33,6.91Z"/>
      <path class="cls-10" d="m122.23,87.54s18.65-1.16,48.1-6.8c28.56-5.64,40.34-9.24,51.11-14.38,7.32-3.86,11.32-11.98,12.63-20.23.71-6.37,1.61-18.14,1.43-22.05s-.2-12.12-11.74-13.82c-9.46-.94-32.61-2.4-35.23-2.57s-28.92-1.17-37.97-1.23-28.32,0-28.32,0c0,0-19.28-.06-28.32,0s-35.35,1.05-37.97,1.23-25.77,1.64-35.23,2.57c-11.55,1.7-11.57,9.9-11.74,13.82s.71,15.68,1.43,22.05c1.31,8.24,5.31,16.37,12.63,20.23,10.77,5.14,22.55,8.74,51.11,14.38,29.45,5.64,48.1,6.8,48.1,6.8h-.02Z"/>
      <path class="cls-4" d="m121.32,23.66h-50.72l-1.95,7.51h43.14c1.67.04,2.99.14,3.78,1.07.75.88.69,2.14.51,3.25-.55,3.3-5.58,3.75-5.8,3.75l-28.54-.05-5.86,21.9h36.85c1.92,0,4.34-.84,5.93-2.04,1.84-1.42,2.61-4.79,2.89-6.07.04-.16.07-.29.09-.39.24-.96.98-5.32,1.15-7.03.05-.54.12-2.2-2.58-2.63l-2.54-.54,2.52-.99c2.36-.59,2.83-2.88,2.85-2.98.02-.08.9-3.99,2.41-10.13.35-1.42.23-2.52-.36-3.27-1.04-1.33-3.32-1.39-3.76-1.39v.03Zm-6.77,25.9c-.78,2.87-2.48,4.1-5.67,4.14h-1.23c-5.14,0-20.74-.15-20.9-.15h-1.3l.36-1.27,1.71-5.95.21-.71h.74l22.05-.12h.24c.86,0,2.45.17,3.34,1.31.39.5.79,1.38.46,2.75h-.01Z"/>
      <path class="cls-2" d="m136.32,35.18c.99-3.81,5.39-4,5.57-4.01h0c.28,0,13.29.03,23.03.03,4.78,0,7.95,0,9.46-.02,1.53-4.33,1.39-4.66.71-6.02-.84-1.41-2.89-1.57-3.73-1.57-.2,0-.32,0-.34.01h-.08c-.12,0-12.47-.06-21.7-.06-5.41,0-8.7.02-9.79.06h-.15c-3.54.12-3.84.14-5.9,1.3-2.67,1.78-3.37,5.03-4.44,9.95l-.13.59c-.8,3.66-1.61,5.51-2.13,6.41,1.32,1.94,1.34,4.08,1.34,4.18v.11l-.03.11-1.7,7.41c-.88,3.84-1.33,4.94-2.06,6.18.79,1.04,2.01,1.16,2.55,1.16h.31c.13,0,13.01.08,23.03.08,5.88,0,9.63-.03,11.15-.08,4.23-.15,6.34-4.1,6.63-4.68l4.13-16.88h-15.8l-1.62,6.24h8.72l-.38,1.28-.75,2.51c-1.33,4.15-5.21,4.34-5.37,4.35-.03,0-7.21.03-13.15.03-3.45,0-5.79,0-6.94-.03-1.42-.02-2.51-.49-3.22-1.4-1.21-1.53-.8-3.65-.74-3.89.04-.14,2.72-10.25,3.53-13.35h-.01Z"/>
      <path class="cls-7" d="m126.61,27.21c.01-.21.02-.41.01-.6,0-.11-.02-.22-.04-.32-.02-.16-.04-.32-.08-.47-.02-.1-.06-.2-.09-.29-.04-.13-.09-.26-.14-.38-.04-.09-.09-.17-.13-.26-.06-.11-.13-.22-.2-.32-.05-.07-.11-.15-.17-.22-.08-.09-.16-.18-.25-.26-.06-.06-.13-.12-.19-.18-.09-.08-.19-.15-.29-.22-.07-.05-.14-.1-.21-.14-.11-.07-.22-.12-.33-.18-.07-.03-.13-.07-.2-.1-.13-.06-.26-.11-.38-.15-.05-.02-.11-.04-.16-.06-.18-.06-.36-.11-.54-.16-.03,0-.05,0-.08-.02-.15-.04-.3-.07-.44-.09-.06-.01-.12-.02-.17-.03-.1-.02-.21-.03-.3-.04-.06,0-.12-.01-.17-.02-.08,0-.16-.02-.24-.02h-51.98l-2.47,9.49h44.42c2.72.06,3.74.31,3.31,3.18s-4.82,2.9-4.82,2.9l-29.3-.05-6.39,23.89h38.15c.15,0,.31,0,.47-.02.13,0,.25,0,.38-.02.16-.02.31-.04.47-.07.13-.02.26-.03.39-.06.16-.03.32-.07.48-.11.13-.03.26-.05.39-.09.16-.04.32-.1.48-.15.13-.04.26-.07.39-.12.16-.06.32-.12.48-.19.12-.05.24-.09.36-.14.16-.07.31-.15.47-.22.11-.05.23-.1.34-.16.16-.08.31-.18.47-.27.1-.06.2-.11.29-.16.24-.15.47-.31.69-.47,2.36-1.82,3.1-6.01,3.35-7.01s1-5.42,1.18-7.17c.22-2.23-1.52-3.1-3.27-3.38,3.04-.76,3.5-3.68,3.5-3.68,0,0,.88-3.87,2.4-10.07.09-.37.15-.72.18-1.04.01-.11,0-.21.01-.31l-.03.03Zm-1.16,1.12c-1.5,6.14-2.49,9.83-2.51,9.9-.02.1-.12,1.67-2.75,3.2l-2.52.99,1.59.36c2.7.43,3.69,1.79,3.47,3.3-.24,1.7-1.09,5.55-1.32,6.51-.02.1-.05.23-.09.39-.29,1.27-1.12,4.55-2.96,5.97-1.58,1.2-3.71,2.16-5.63,2.16h-36.85l5.86-21.9,28.54.05c.21,0,5.37-.25,5.92-3.91.17-1.11.48-2.25-.27-3.14-.79-.93-2.47-.98-4.14-1.02h-43.14l1.95-7.51h50.72c.45,0,2.72.07,3.76,1.39.59.75.71,1.85.36,3.27h.01Z"/>
      <path class="cls-6" d="m110.77,45.51h-.24l-22.05.11h-.74l-.21.72-1.71,5.95-.36,1.25h1.3c.16.01,15.76.17,20.9.17h1.23c3.19-.04,4.89-1.27,5.67-4.14.33-1.37-.07-2.25-.46-2.75-.89-1.14-2.48-1.31-3.34-1.31h0Zm2.92,3.32c0,.16-.04.33-.08.51-.56,2.04-1.6,3.34-4.72,3.38h-6.12c-.72,0-1.46,0-2.23-.01h-.04c-.78,0-1.58-.01-2.38-.02h-.3c-1.11,0-2.21-.02-3.27-.03h-1.08c-.48,0-.94,0-1.39-.01h-2.28c-.57,0-1.06,0-1.49-.01h-.49c-.65,0-1.04-.01-1.04-.01l1.71-5.95,22.07-.11h.37c.06,0,.13,0,.21.01h0c.08,0,.17,0,.26.02.03,0,.05,0,.08.01.07,0,.13.02.2.03.04,0,.07.01.11.02.06,0,.13.03.19.04.04,0,.08.02.12.03.06.02.13.04.19.06.04.01.08.03.11.04.07.03.13.06.2.09.03.02.07.03.1.05.09.05.18.1.26.16h.02c.09.06.17.13.24.21.02.02.04.05.06.08.05.06.1.12.14.18.02.03.04.07.06.11.03.06.07.13.09.2.02.04.03.09.05.13.02.07.04.15.05.23,0,.05.02.1.02.15v.44-.03Z"/>
      <path class="cls-11" d="m137.28,35.43c.82-3.14,4.65-3.27,4.65-3.27h33.13c1.88-5.27,1.76-5.71.88-7.47-.12-.21-.27-.4-.42-.57-.03-.04-.07-.07-.1-.11-.16-.16-.32-.3-.5-.43l-.09-.06c-.16-.11-.33-.21-.5-.29-.04-.02-.07-.04-.11-.05-.19-.09-.38-.16-.58-.23-.04-.01-.09-.03-.13-.04-.18-.06-.36-.1-.54-.14-.02,0-.04,0-.05-.01-.19-.04-.37-.07-.55-.09-.04,0-.08-.01-.12-.01-.17-.02-.33-.03-.47-.04h-.04c-.14,0-.26,0-.37-.01h-31.97c-1.16.04-2,.07-2.69.13-1.51.13-2.24.41-3.84,1.32-3.14,2.07-3.83,5.71-5.02,11.18s-2.49,6.66-2.49,6.66c1.57,1.82,1.71,3.26,1.65,3.79s-.24,1.53-.69,3.48c-.13.59-.28,1.24-.45,1.96-.16.72-.34,1.49-.53,2.32-.38,1.65-.67,2.78-.94,3.61-.09.28-.17.52-.26.75-.34.89-.73,1.19-1.14,1.85.11.22.32.61.45.79.03.04.06.08.09.11.13.16.27.31.42.44.02.02.05.04.07.06.13.11.27.21.41.3.03.02.05.04.08.05.15.09.31.17.46.23.03.01.07.03.1.04.15.06.3.11.44.15h.02c.15.04.3.07.43.09.03,0,.06.01.09.02.13.02.25.03.36.04h8.94c.74,0,1.52,0,2.31.01h21.64c.25,0,.49,0,.71-.01.22,0,.41,0,.6-.01h.15c.18,0,.35,0,.49-.01,5.21-.19,6.79-4,7.54-5.34s4.6-18.28,4.6-18.28l-17.98.07-1.07,4.11-1.07,4.11h8.67l-.13.45c-.04.15-.1.35-.18.61-.05.18-.11.38-.19.62-.07.24-.15.52-.25.83-.21.66-.5,1.2-.83,1.64-.44.59-.95,1.01-1.45,1.3-.12.07-.25.14-.37.2-.24.12-.48.21-.69.28-.11.03-.21.06-.31.09-.19.05-.36.08-.49.1-.2.03-.31.03-.31.03h-20.04c-3.89-.06-2.93-4.19-2.93-4.19,0,0,2.61-10.07,3.43-13.21l.07.05Zm-3.74,16.99c.72.9,1.8,1.37,3.22,1.4,1.15.02,3.49.03,6.94.03,5.94,0,13.11-.03,13.15-.03.16,0,4.04-.2,5.37-4.35l.75-2.51.38-1.28h-8.72l1.62-6.24h15.8l-4.13,16.88c-.29.59-2.41,4.53-6.63,4.68-1.53.06-5.28.08-11.15.08-10.02,0-22.9-.08-23.03-.08h-.31c-.53,0-1.76-.12-2.55-1.16,1.17-1.41,1.7-3.62,2.17-6.17l1.61-7.53s.14-.64.18-1.11-.2-1.24-1.52-3.18c.52-.9,1.33-2.76,2.13-6.41l.13-.59c1.07-4.92,1.78-8.17,4.44-9.95,2.05-1.16,2.36-1.17,5.9-1.29h.15c1.08-.04,4.37-.06,9.79-.06,9.23,0,21.58.06,21.7.06h.08s.14,0,.34,0c.84,0,2.89.15,3.73,1.57.68,1.36.82,1.68-.71,6.02-1.51.01-4.68.02-9.46.02-9.73,0-22.75-.03-23.03-.03h0c-.19,0-4.58.19-5.57,4.01-.81,3.1-3.49,13.21-3.53,13.35-.05.24-.47,2.36.74,3.89h.02Z"/>
    </g>
  </g>
</svg>