<?xml version="1.0" encoding="utf-8"?>
<!-- Generator: Adobe Illustrator 28.1.0, SVG Export Plug-In . SVG Version: 6.00 Build 0)  -->
<svg version="1.1" id="Слой_1" xmlns="http://www.w3.org/2000/svg" xmlns:xlink="http://www.w3.org/1999/xlink" x="0px" y="0px"
	 viewBox="0 0 418.4868774 80.3361969" style="enable-background:new 0 0 418.4868774 80.3361969;" xml:space="preserve">
<style type="text/css">
	.st0{fill:#020203;}
</style>
<g>
	<g>
		<g>
			<g>
				<path class="st0" d="M64.0496979,57.5284004c1.0998993,0,2.1139984,0.2056999,3.0410995,0.6144981
					c0.9271011,0.4098015,1.7360001,0.9606018,2.4261017,1.6501007c0.6905975,0.6907005,1.2397995,1.5044022,1.6507034,2.4422989
					c0.4092941,0.9385033,0.6468964,1.9255981,0.7110977,2.9600983c0.0215988,0.4531021,0.037796,1.009201,0.0485992,1.6664047
					c0.0102997,0.6581955,0.0161972,1.3325958,0.0161972,2.0215988c0,0.6912003-0.0058975,1.3591003-0.0161972,2.0065994
					c-0.0108032,0.646904-0.0270004,1.1965027-0.0485992,1.6495972c-0.0642014,1.0356064-0.3018036,2.0167999-0.7110977,2.9444046
					c-0.4109039,0.9272003-0.9601059,1.7360001-1.6507034,2.4261017c-0.6901016,0.690094-1.4990005,1.2408981-2.4261017,1.6495972
					c-0.9271011,0.4098969-1.9412003,0.615097-3.0410995,0.615097H49.9057007c-0.1733017,0-0.259201-0.0971985-0.259201-0.2915955
					V57.8194008c0-0.1938019,0.0858994-0.2910004,0.259201-0.2910004H64.0496979z M63.5965996,76.2929001
					c0.5172997,0,0.9704018-0.1187973,1.3591042-0.3563995c0.388298-0.2365036,0.722496-0.5443039,1.0028-0.9222031
					c0.2801971-0.3768997,0.4961929-0.7975998,0.6468964-1.2613983c0.1511993-0.4633026,0.2478027-0.9223022,0.2916031-1.3752975
					c0.0209961-0.4309006,0.0366974-0.9541016,0.0485992-1.5686035c0.0102005-0.615097,0.0155945-1.2565002,0.0155945-1.9255981
					c0-0.6679001-0.005394-1.3147964-0.0155945-1.9405975c-0.0119019-0.6253052-0.0276031-1.1647034-0.0485992-1.6178055
					c-0.0222015-0.4529953-0.1086044-0.9162979-0.259201-1.3908958c-0.1507034-0.4736023-0.3666992-0.8948021-0.646904-1.2619019
					c-0.2802963-0.3661003-0.6204987-0.668499-1.0195007-0.9055977c-0.3984985-0.2370033-0.8574982-0.3558006-1.3747978-0.3558006
					h-8.9678001v14.8820992H63.5965996z"/>
				<path class="st0" d="M88.6939011,63.9989014c0.1949997,0,0.2915955,0.0965958,0.2915955,0.2914963v2.9434052
					c0,0.1938934-0.0965958,0.2915955-0.2915955,0.2915955h-6.469902c-0.6468964,0-1.1700974,0.0540009-1.5685959,0.161499
					c-0.3996048,0.1085052-0.7068024,0.258606-0.9228058,0.4530029c-0.2159958,0.194397-0.3612976,0.4319992-0.4362946,0.7117004
					c-0.0762024,0.2801971-0.1134033,0.593399-0.1134033,0.9378967v10.0937042c0,0.194397-0.0971985,0.2915955-0.2910995,0.2915955
					h-3.8498993c-0.1939011,0-0.2910995-0.0971985-0.2910995-0.2915955V69.3365021
					c0-1.7678986,0.5766983-3.0999985,1.7305984-3.9947052c1.1539001-0.8952942,2.9600983-1.3428955,5.4191971-1.3428955H88.6939011
					z"/>
				<path class="st0" d="M95.9338989,57.5284004c0.1938019,0,0.2910004,0.0863991,0.2910004,0.259201v3.6879997
					c0,0.1937981-0.0971985,0.2910004-0.2910004,0.2910004h-3.8499985c-0.1939011,0-0.2910995-0.0972023-0.2910995-0.2910004
					v-3.6879997c0-0.172802,0.0971985-0.259201,0.2910995-0.259201H95.9338989z M95.9338989,63.9989014
					c0.1938019,0,0.2910004,0.0863953,0.2910004,0.2585983v15.6257019c0,0.194397-0.0971985,0.2915955-0.2910004,0.2915955
					h-3.8499985c-0.1939011,0-0.2910995-0.0971985-0.2910995-0.2915955V64.2574997
					c0-0.1722031,0.0971985-0.2585983,0.2910995-0.2585983H95.9338989z"/>
				<path class="st0" d="M118.6681976,63.9016991c0.3235016,0,0.4093018,0.1403999,0.2587051,0.4206047
					c-1.0140991,2.3077927-1.9304047,4.3893967-2.7500992,6.244194c-0.3456039,0.7975998-0.6906052,1.5848007-1.0356064,2.3619003
					c-0.3444977,0.7753983-0.6576996,1.476799-0.9374008,2.1026001c-0.281395,0.6258011-0.5129929,1.1539001-0.6960983,1.5854034
					c-0.1834946,0.4313965-0.2963943,0.6899948-0.3395996,0.7763977c-0.3023987,0.6679993-0.6258011,1.2073975-0.9702988,1.6172028
					c-0.3455963,0.4098969-0.7657013,0.7014999-1.2619019,0.8731995c-0.2370987,0.1084976-0.5340958,0.1840973-0.8899002,0.2272949
					c-0.355896,0.0427017-0.7165985,0.0643005-1.0836945,0.0643005c-0.3672028,0-0.7117004-0.0215988-1.035202-0.0643005
					c-0.3238983-0.0431976-0.6042023-0.1187973-0.8412018-0.2272949c-0.4962997-0.1939011-0.9217987-0.4897995-1.2776031-0.8894043
					c-0.3563995-0.3989944-0.6851959-0.9329987-0.9870987-1.6009979c-0.0437012-0.0864029-0.1613998-0.3450012-0.3553009-0.7763977
					c-0.1948929-0.4315033-0.4264984-0.9596024-0.6959991-1.5854034c-0.2699966-0.6258011-0.5766983-1.3272018-0.9216995-2.1026001
					c-0.3455963-0.7770996-0.6905975-1.5643005-1.0356979-2.3619003c-0.8197021-1.8547974-1.7360001-3.9364014-2.7494965-6.244194
					c-0.0864029-0.2802048,0.0101929-0.4206047,0.2909927-0.4206047h3.5908051c0.4309006,0,0.722496,0.1937981,0.8736954,0.5825996
					l4.8527069,10.9668045c0.0210953,0.0868988,0.0755997,0.1511993,0.1619949,0.194397
					c0.0432053,0.0215988,0.0971985,0.032402,0.161499,0.032402c0.0858002,0,0.139801-0.0108032,0.1620026-0.032402
					c0.0852966-0.0211029,0.1505966-0.0864029,0.1938019-0.194397l4.8202972-10.9668045
					c0.1727982-0.3888016,0.4740982-0.5825996,0.9060974-0.5825996H118.6681976z"/>
				<path class="st0" d="M135.0056,63.9989014c0.7980957,0,1.5422058,0.1505966,2.232193,0.4529953
					c0.6907043,0.3024063,1.2835083,0.7117004,1.7798004,1.2290039c0.4962006,0.5183029,0.8893127,1.1166,1.1809082,1.7958984
					c0.2910004,0.6788025,0.4362946,1.3855972,0.4362946,2.1189041v2.75c0,0.3666992-0.1673889,0.7332993-0.5010986,1.0998993
					c-0.3347931,0.3666992-0.7494965,0.5496979-1.245697,0.5496979h-12.5846024v0.614502
					c0,0.4962997,0.1620026,0.9605942,0.4855042,1.3914948c0.3233948,0.4319992,0.764595,0.646904,1.3261032,0.646904h11.3555908
					c0.1939087,0,0.2911072,0.0863953,0.2911072,0.259201v2.9757996c0,0.194397-0.0971985,0.2915955-0.2911072,0.2915955H127.532402
					c-0.8197021,0-1.5686035-0.1727982-2.2479019-0.5172958c-0.6798019-0.3451004-1.2619019-0.7981033-1.7472992-1.3591003
					c-0.4849014-0.5611038-0.873703-1.191803-1.1641998-1.892601c-0.2916031-0.7004013-0.4584045-1.4179993-0.5016022-2.1512985
					c-0.0222015-0.3018036-0.037796-0.6415024-0.049202-1.0194016c-0.0107956-0.3768997-0.0161972-0.7597961-0.0161972-1.1485977
					c0-0.3881989,0.0054016-0.7650986,0.0161972-1.1323013c0.0114059-0.3661041,0.0270004-0.7117004,0.049202-1.0351028
					c0.0210037-0.7332993,0.1771011-1.4557953,0.4685974-2.1673965c0.2911072-0.7117004,0.6847-1.3478012,1.1810074-1.9087982
					c0.4961929-0.5611038,1.0836945-1.0076065,1.7634964-1.3429031c0.6792984-0.3337021,1.4281998-0.5010986,2.2479019-0.5010986
					H135.0056z M135.684906,70.4688034c0.1295929,0,0.2483978-0.0535049,0.3563995-0.1615067
					c0.1078949-0.107399,0.1618958-0.2369995,0.1618958-0.3881989v-0.5502014c0-0.6895981-0.1517029-1.1690979-0.4530029-1.4390945
					c-0.3023987-0.2694016-0.7332916-0.4044037-1.2942963-0.4044037h-6.3408966
					c-0.5615082,0-1.0027084,0.1771011-1.3261032,0.5340042c-0.3235016,0.3553009-0.4855042,0.7921982-0.4855042,1.309494v1.0999069
					H135.684906z"/>
				<path class="st0" d="M181.8155975,57.5284004c0.1291046,0,0.2154999,0.0540009,0.2586975,0.1613998
					c0.0431976,0.1086006,0.0210114,0.2057991-0.0643005,0.2915993l-12.229187,13.4259033v8.4758987
					c0,0.194397-0.0967102,0.2915955-0.2916107,0.2915955h-4.3990936c-0.194397,0-0.2916107-0.0971985-0.2916107-0.2915955
					v-8.5726013l-12.1962891-13.3292007c-0.0864105-0.0858002-0.1026001-0.1829987-0.0485992-0.2915993
					c0.0533905-0.107399,0.1343994-0.1613998,0.2424011-0.1613998h4.9174957c0.4524994,0,0.8088989,0.1511993,1.0675049,0.4529991
					l7.8291016,8.5083008c0.194397,0.194397,0.4308929,0.2910995,0.7121887,0.2910995
					c0.2797089,0,0.5173035-0.0967026,0.7111053-0.2910995l7.7971954-8.5083008
					c0.259201-0.3017998,0.614502-0.4529991,1.0675049-0.4529991H181.8155975z"/>
				<path class="st0" d="M192.2613983,63.8373985c1.1004028,0,2.1728058,0.0211029,3.2187958,0.0643005
					c1.0458984,0.0437012,1.9789124,0.2056999,2.7985992,0.4854012c0.8197021,0.2807999,1.4828033,0.6685028,1.9893036,1.1641998
					c0.5064087,0.4968033,0.9006042,1.0998993,1.1809082,1.8121033h-0.0319061
					c0.3013,0.690094,0.5016022,1.4347,0.5982971,2.2322998c0.0971985,0.7979965,0.1457977,1.6392975,0.1457977,2.5237961
					c0,0.8406982-0.0485992,1.6604004-0.1457977,2.4585037c-0.0966949,0.7985992-0.2969971,1.542099-0.5982971,2.2322006h0.0319061
					c-0.280304,0.7332993-0.6744995,1.3423996-1.1809082,1.8277969c-0.5065002,0.4853973-1.1696014,0.8785019-1.9893036,1.1809006
					c-0.7548981,0.2370987-1.6608887,0.3823013-2.7175903,0.4368973c-1.0568085,0.0533981-2.1573029,0.0803986-3.2998047,0.0803986
					c-1.1215057,0-2.2106934-0.0270004-3.2678986-0.0803986c-1.0567017-0.0545959-1.9622955-0.1997986-2.7171936-0.4368973
					c-0.8196106-0.2802048-1.4881134-0.6739044-2.0054016-1.1809006c-0.517807-0.5065002-0.9174042-1.1166992-1.1977081-1.8277969
					c-0.2801971-0.6685028-0.4740906-1.4018021-0.5814972-2.2004013c-0.1085968-0.7975006-0.1620026-1.6274033-0.1620026-2.490303
					c0-0.9060974,0.0534058-1.7582016,0.1620026-2.5557022c0.1074066-0.7980957,0.3013-1.531395,0.5814972-2.2003937
					c0.280304-0.6901016,0.6799011-1.2938004,1.1977081-1.8121033c0.5172882-0.5173035,1.185791-0.9056015,2.0054016-1.1641998
					c0.7975922-0.2376022,1.7312012-0.3881989,2.7981873-0.4529991
					C190.1425018,63.8693008,191.2046051,63.8373985,192.2613983,63.8373985z M192.2613983,76.8102036
					c0.7548065,0,1.4772949-0.0108032,2.1674042-0.032402c0.690094-0.0211029,1.2505951-0.107399,1.6826019-0.259201
					c0.4093018-0.1506042,0.7115936-0.3553009,0.9059906-0.614502c0.1939087-0.2585983,0.345108-0.5707016,0.4524994-0.9384003
					c0.1080017-0.3876953,0.1782074-0.8191986,0.2106018-1.2938004c0.0319061-0.4745941,0.0485992-0.9918976,0.0485992-1.5523987
					c0-0.5825958-0.0166931-1.1166992-0.0485992-1.6020966c-0.0323944-0.4849014-0.1026001-0.9216995-0.2106018-1.3100052
					c-0.1073914-0.3660965-0.2585907-0.6894989-0.4524994-0.9707947c-0.194397-0.2798004-0.4966888-0.4741058-0.9059906-0.581604
					c-0.4752045-0.1296005-1.0514069-0.2106018-1.7306061-0.2429962c-0.6799011-0.0329056-1.3867035-0.0485992-2.1194-0.0485992
					c-0.7548981,0-1.4671021,0.0107956-2.1356049,0.0323944c-0.6679993,0.0215988-1.2397919,0.1080017-1.7138977,0.259201
					c-0.3887024,0.1074982-0.6851959,0.3018036-0.8898926,0.581604c-0.2051086,0.2812958-0.3617096,0.6046982-0.4692078,0.9707947
					c-0.10849,0.4315033-0.1835938,0.8845062-0.2261963,1.3591003c-0.0437927,0.4741058-0.0653992,0.9925003-0.0653992,1.5530014
					c0,0.5173035,0.0216064,1.013504,0.0653992,1.4876022c0.0426025,0.4746017,0.1177063,0.9276962,0.2261963,1.3585968
					c0.1074982,0.3676987,0.2695007,0.6798019,0.4853973,0.9384003c0.2150116,0.259201,0.5066071,0.4638977,0.873703,0.614502
					c0.4309082,0.1518021,0.9918976,0.2380981,1.6820068,0.259201
					C190.7839966,76.7994003,191.5065002,76.8102036,192.2613983,76.8102036z"/>
				<path class="st0" d="M222.6649933,63.9989014c0.1943054,0,0.2915039,0.0965958,0.2915039,0.2914963v7.634201
					c0,0.9059982-0.0485992,1.7748032-0.1463013,2.604805c-0.0960999,0.8303986-0.274292,1.5804977-0.533493,2.2483978
					c-0.2801971,0.7117004-0.674408,1.3212967-1.1809082,1.8277969s-1.1808929,0.8899002-2.0222015,1.1480026
					c-0.7548981,0.2380981-1.5096893,0.3941956-2.2640991,0.4697952c-0.7554016,0.0756073-1.6938934,0.1128006-2.8148956,0.1128006
					c-1.1215057,0-2.0652924-0.0371933-2.8309937-0.1128006c-0.7651978-0.0755997-1.5151978-0.2316971-2.2479095-0.4697952
					c-0.8201904-0.2581024-1.4886932-0.646904-2.0059967-1.1641998c-0.5173035-0.5173035-0.9169006-1.1214981-1.1965942-1.8115997
					c-0.281311-0.6901016-0.4752045-1.4504013-0.5826111-2.2807999c-0.10849-0.8300018-0.1619873-1.6874008-0.1619873-2.572403
					v-7.634201c0-0.1949005,0.0971985-0.2914963,0.2915955-0.2914963h3.8493958
					c0.1939087,0,0.2915955,0.0965958,0.2915955,0.2904968v7.6163025c0,0.5372009,0.0211029,1.0587997,0.0643005,1.5647964
					c0.0432129,0.5054016,0.1188049,0.9736023,0.2262115,1.4034042c0.1080017,0.3660965,0.269989,0.677597,0.4859924,0.9356995
					c0.2149048,0.2581024,0.5065002,0.4622955,0.8731079,0.6133957c0.4530945,0.1718063,0.8731995,0.280304,1.2619019,0.3229065
					c0.3876953,0.0431976,0.9481964,0.0643005,1.6819916,0.0643005c0.7333069,0,1.2944031-0.0211029,1.6826019-0.0643005
					c0.3876953-0.0426025,0.8083038-0.1511002,1.2613983-0.3229065c0.3881989-0.1511002,0.6791992-0.3552933,0.8735962-0.6133957
					c0.1944122-0.2581024,0.3444977-0.569603,0.4531097-0.9356995c0.1073914-0.3871994,0.1781921-0.8381042,0.2099915-1.354805
					c0.0324097-0.5167999,0.0485992-1.0550995,0.0485992-1.6133957v-7.6163025c0-0.1939011,0.0967102-0.2904968,0.2916107-0.2904968
					H222.6649933z"/>
				<path class="st0" d="M239.7070007,63.9989014c0.1949005,0,0.2915039,0.0965958,0.2915039,0.2914963v2.9434052
					c0,0.1938934-0.0966034,0.2915955-0.2915039,0.2915955h-6.4700012c-0.6468048,0-1.1694946,0.0540009-1.5686035,0.161499
					c-0.3995972,0.1085052-0.7068024,0.258606-0.9227905,0.4530029c-0.2154083,0.194397-0.3612061,0.4319992-0.4363098,0.7117004
					c-0.0760956,0.2801971-0.1133881,0.593399-0.1133881,0.9378967v10.0937042c0,0.194397-0.0972137,0.2915955-0.2910004,0.2915955
					h-3.8500061c-0.1939087,0-0.2911072-0.0971985-0.2911072-0.2915955V69.3365021
					c0-1.7678986,0.577301-3.0999985,1.7307129-3.9947052c1.1539001-0.8952942,2.9600983-1.3428955,5.4190979-1.3428955H239.7070007
					z"/>
				<path class="st0" d="M290.982605,63.9989014c0.1937866,0,0.2915955,0.0965958,0.2915955,0.2914963v7.634201
					c0,0.9059982-0.0491943,1.7748032-0.1463928,2.604805c-0.0966187,0.8303986-0.2748108,1.5804977-0.5339966,2.2483978
					c-0.280304,0.7117004-0.674408,1.3212967-1.1809082,1.8277969s-1.1809082,0.8899002-2.021698,1.1480026
					c-0.7554016,0.2380981-1.5097046,0.3941956-2.2646179,0.4697952c-0.7548828,0.0756073-1.6933899,0.1128006-2.8148804,0.1128006
					c-1.1210022,0-2.0648193-0.0371933-2.8305054-0.1128006c-0.765686-0.0755997-1.5151062-0.2316971-2.2478943-0.4697952
					c-0.8208008-0.2581024-1.4887085-0.646904-2.006012-1.1641998c-0.5177917-0.5173035-0.9173889-1.1214981-1.1970825-1.8115997
					c-0.2808228-0.6901016-0.4746094-1.4504013-0.5821228-2.2807999c-0.10849-0.8300018-0.1619873-1.6874008-0.1619873-2.572403
					v-7.634201c0-0.1949005,0.0971985-0.2914963,0.2911072-0.2914963h3.8499756
					c0.1938171,0,0.2915039,0.0965958,0.2915039,0.2904968v7.6163025c0,0.5372009,0.0211182,1.0587997,0.0643005,1.5647964
					c0.0432129,0.5054016,0.1183167,0.9736023,0.2263184,1.4034042c0.1080017,0.3660965,0.2698975,0.677597,0.4859009,0.9356995
					c0.2149048,0.2581024,0.5065002,0.4622955,0.8730774,0.6133957c0.453125,0.1718063,0.8731995,0.280304,1.2614136,0.3229065
					c0.3883057,0.0431976,0.9487915,0.0643005,1.6820068,0.0643005c0.7333069,0,1.2948914-0.0211029,1.6825867-0.0643005
					c0.3882141-0.0426025,0.8088074-0.1511002,1.2619019-0.3229065c0.3882141-0.1511002,0.6792908-0.3552933,0.8731079-0.6133957
					c0.1948853-0.2581024,0.3450928-0.569603,0.4530945-0.9356995c0.1079102-0.3871994,0.1781006-0.8381042,0.2105103-1.354805
					c0.0323792-0.5167999,0.048584-1.0550995,0.048584-1.6133957v-7.6163025c0-0.1939011,0.0967102-0.2904968,0.2915955-0.2904968
					H290.982605z"/>
				<path class="st0" d="M301.3279114,59.728199c0.194397,0,0.2909851,0.0972023,0.2909851,0.2915993v3.9791031h7.2474976
					c0.1938171,0,0.2904968,0.0965958,0.2904968,0.2914963v2.9434052c0,0.1938934-0.0966797,0.2915955-0.2904968,0.2915955
					h-7.2474976v6.9878006c0,0.4962006,0.1566162,0.9762039,0.4698181,1.4394989
					c0.3115845,0.4639053,0.7488708,0.6955032,1.3093872,0.6955032h5.047699c0.1937866,0,0.2909851,0.097702,0.2909851,0.2915955
					v2.9434052c0,0.194397-0.0971985,0.2915955-0.2909851,0.2915955h-5.5974121
					c-0.8195801,0-1.5744934-0.1565933-2.2640991-0.4686966c-0.6911011-0.3126984-1.2893982-0.7278976-1.7958984-1.2462997
					c-0.5069885-0.5173035-0.9006958-1.1156006-1.1808777-1.7947998c-0.280304-0.6799011-0.4207153-1.3970032-0.4207153-2.1518021
					v-6.9878006h-2.8143005c-0.1937866,0-0.2909851-0.097702-0.2909851-0.2915955v-2.9434052
					c0-0.1949005,0.0971985-0.2914963,0.2909851-0.2914963h2.8143005v-3.9791031
					c0-0.194397,0.0971985-0.2915993,0.2911072-0.2915993H301.3279114z"/>
				<path class="st0" d="M329.6607056,63.9989014c0.1937866,0,0.2915039,0.0965958,0.2915039,0.2914963v7.634201
					c0,0.9059982-0.0485229,1.7748032-0.1463013,2.604805c-0.0966187,0.8303986-0.2748108,1.5804977-0.5335083,2.2483978
					c-0.2807922,0.7117004-0.674408,1.3212967-1.1809082,1.8277969s-1.1808777,0.8899002-2.0221863,1.1480026
					c-0.7554016,0.2380981-1.5097046,0.3941956-2.2646179,0.4697952c-0.7548828,0.0756073-1.6933899,0.1128006-2.8148804,0.1128006
					c-1.1210022,0-2.0648193-0.0371933-2.8305054-0.1128006c-0.7657166-0.0755997-1.5151062-0.2316971-2.2478943-0.4697952
					c-0.8202209-0.2581024-1.4887085-0.646904-2.006012-1.1641998c-0.5177917-0.5173035-0.9173889-1.1214981-1.1965942-1.8115997
					c-0.281311-0.6901016-0.4750977-1.4504013-0.5826111-2.2807999c-0.10849-0.8300018-0.1619873-1.6874008-0.1619873-2.572403
					v-7.634201c0-0.1949005,0.0971985-0.2914963,0.2915955-0.2914963h3.8493958
					c0.1939087,0,0.2915955,0.0965958,0.2915955,0.2904968v7.6163025c0,0.5372009,0.0211182,1.0587997,0.0643005,1.5647964
					c0.0432129,0.5054016,0.1188049,0.9736023,0.2263184,1.4034042c0.1078796,0.3660965,0.2698975,0.677597,0.4859009,0.9356995
					c0.2149048,0.2581024,0.5065002,0.4622955,0.8730774,0.6133957c0.453125,0.1718063,0.8731995,0.280304,1.2619019,0.3229065
					c0.3877258,0.0431976,0.9483032,0.0643005,1.6815186,0.0643005c0.7337952,0,1.2948914-0.0211029,1.6831055-0.0643005
					c0.3876953-0.0426025,0.8082886-0.1511002,1.2613831-0.3229065c0.3882141-0.1511002,0.6792908-0.3552933,0.8731079-0.6133957
					c0.1948853-0.2581024,0.3450928-0.569603,0.4530029-0.9356995c0.1080017-0.3871994,0.1781921-0.8381042,0.2106018-1.354805
					c0.0323792-0.5167999,0.048584-1.0550995,0.048584-1.6133957v-7.6163025c0-0.1939011,0.0967102-0.2904968,0.2915955-0.2904968
					H329.6607056z"/>
				<path class="st0" d="M346.7026978,63.9989014c0.1949158,0,0.2915955,0.0965958,0.2915955,0.2914963v2.9434052
					c0,0.1938934-0.0966797,0.2915955-0.2915955,0.2915955h-6.4700012c-0.6467896,0-1.170105,0.0540009-1.5684814,0.161499
					c-0.3996277,0.1085052-0.7069092,0.258606-0.9229126,0.4530029s-0.3612061,0.4319992-0.4363098,0.7117004
					c-0.0760803,0.2801971-0.1134033,0.593399-0.1134033,0.9378967v10.0937042c0,0.194397-0.0971985,0.2915955-0.2909851,0.2915955
					h-3.8500061c-0.1937866,0-0.2909851-0.0971985-0.2909851-0.2915955V69.3365021
					c0-1.7678986,0.577179-3.0999985,1.7305908-3.9947052c1.1539001-0.8952942,2.960083-1.3428955,5.4190979-1.3428955H346.7026978z
					"/>
				<path class="st0" d="M363.0010986,63.9989014c0.7980957,0,1.5422058,0.1505966,2.2322998,0.4529953
					c0.690094,0.3024063,1.2829895,0.7117004,1.7792053,1.2290039c0.4961853,0.5183029,0.8898926,1.1166,1.1809082,1.7958984
					c0.2915955,0.6788025,0.4367981,1.3855972,0.4367981,2.1189041v2.75c0,0.3666992-0.1672974,0.7332993-0.5010986,1.0998993
					c-0.3352966,0.3666992-0.75,0.5496979-1.2462158,0.5496979h-12.5839844v0.614502
					c0,0.4962997,0.161377,0.9605942,0.4853821,1.3914948c0.3235168,0.4319992,0.7646179,0.646904,1.3262024,0.646904h11.355011
					c0.194397,0,0.2915955,0.0863953,0.2915955,0.259201v2.9757996c0,0.194397-0.0971985,0.2915955-0.2915955,0.2915955h-11.9375916
					c-0.8197021,0-1.5692139-0.1727982-2.2485046-0.5172958c-0.6798096-0.3451004-1.2614136-0.7981033-1.7467957-1.3591003
					c-0.4854126-0.5611038-0.8737183-1.191803-1.1647034-1.892601c-0.2910156-0.7004013-0.4584045-1.4179993-0.5016174-2.1512985
					c-0.0216064-0.3018036-0.0372925-0.6415024-0.048584-1.0194016c-0.0108032-0.3768997-0.0162048-0.7597961-0.0162048-1.1485977
					c0-0.3881989,0.0054016-0.7650986,0.0162048-1.1323013c0.0112915-0.3661041,0.0269775-0.7117004,0.048584-1.0351028
					c0.0216064-0.7332993,0.1776123-1.4557953,0.4692078-2.1673965c0.2909851-0.7117004,0.6846924-1.3478012,1.1809082-1.9087982
					c0.4961853-0.5611038,1.0831909-1.0076065,1.7630005-1.3429031c0.6792908-0.3337021,1.4288025-0.5010986,2.2485046-0.5010986
					H363.0010986z M363.6803894,70.4688034c0.1296082,0,0.2479248-0.0535049,0.3564148-0.1615067
					c0.1074829-0.107399,0.1619873-0.2369995,0.1619873-0.3881989v-0.5502014c0-0.6895981-0.1517029-1.1690979-0.4530029-1.4390945
					c-0.3023987-0.2694016-0.7338867-0.4044037-1.294281-0.4044037h-6.3409119
					c-0.5615845,0-1.0026855,0.1771011-1.3262024,0.5340042c-0.3240051,0.3553009-0.4853821,0.7921982-0.4853821,1.309494v1.0999069
					H363.6803894z"/>
				<rect y="70.6043015" class="st0" width="39.0387993" height="1.3807"/>
				<path class="st0" d="M270.1871948,57.5284004l-17.446991-0.0329018l-0.0145111,22.3234024
					c0,0.2370987,0.0858002,0.355896,0.2591095,0.355896h4.4316101c0.1948853,0,0.2915955-0.1187973,0.2915955-0.355896v-9.0267029
					h11.8646851c0.280304,0,0.4207153-0.0965958,0.4207153-0.2910004v-3.3315964c0-0.1727982-0.1404114-0.259201-0.4207153-0.259201
					l-11.9197998,0.0355988v-5.5546989l12.5343018,0.0195007c0.194397,0,0.2915955-0.0972023,0.2915955-0.2910995v-3.3003006
					C270.4787903,57.6255989,270.3815918,57.5284004,270.1871948,57.5284004z"/>
				<rect x="379.2380981" y="70.6043015" class="st0" width="39.0387993" height="1.3807"/>
			</g>
		</g>
	</g>
	<g>
		<g>
			<path class="st0" d="M271.285614,0h-53.3987122c-2.4322968,0-4.4046021,1.9715-4.4046021,4.4028001v30.8435993
				c0,2.4331017,1.9723053,4.4029999,4.4046021,4.4029999h53.3987122c2.4343872,0,4.4043884-1.9698982,4.4043884-4.4029999
				V4.4028001C275.6900024,1.9715,273.7200012,0,271.285614,0z M263.8598022,31.3085995
				c0,0.1124001-0.0863953,0.2007999-0.1986084,0.2007999h-38.1465912c-0.1123962,0-0.2032013-0.0883999-0.2032013-0.2007999
				V8.3408003c0-0.1110001,0.0908051-0.1989002,0.2032013-0.1989002h38.1465912
				c0.1122131,0,0.1986084,0.0879002,0.1986084,0.1989002V31.3085995z"/>
		</g>
		<g>
			<path class="st0" d="M202.5406036,0h-60.6437073c-0.2211914,0-0.3970032,0.18-0.3970032,0.3996v7.3427
				c0,0.2175999,0.1758118,0.3996,0.3970032,0.3996h24.20401c0.1135864,0,0.1997986,0.0879002,0.1997986,0.1989002v30.9115982
				c0,0.216301,0.1838989,0.3969994,0.4053955,0.3969994h11.0267944c0.2210999,0,0.4016113-0.1806984,0.4016113-0.3969994V8.3408003
				c0-0.1110001,0.0895996-0.1989002,0.2020874-0.1989002h24.20401c0.2213898,0,0.3984985-0.1820002,0.3984985-0.3996V0.3996
				C202.9391022,0.18,202.7619934,0,202.5406036,0z"/>
		</g>
		<g>
			<path class="st0" d="M345.9237976,0h-11.031189c-0.2214966,0-0.4008179,0.18-0.4008179,0.3996v30.9090004
				c0,0.1124001-0.0874023,0.2007999-0.199585,0.2007999h-36.0266113c-0.1121826,0-0.1986084-0.0883999-0.1986084-0.2007999V0.3996
				c0-0.2196-0.180481-0.3996-0.4052734-0.3996h-11.0266113c-0.2213135,0-0.4017944,0.18-0.4017944,0.3996v34.8467979
				c0,2.4331017,1.9736023,4.4029999,4.40448,4.4029999h51.2820129c2.4320984,0,4.4012146-1.9698982,4.4012146-4.4029999V0.3996
				C346.3210144,0.18,346.1452026,0,345.9237976,0z"/>
		</g>
		<g>
			<path class="st0" d="M395.7915955,23.4859009h17.5365906c2.4356079,0,4.4091187-1.9703007,4.4091187-4.4067001V4.4068999
				C417.7373047,1.9699,415.7637939,0,413.328186,0h-56.0621948c-0.2247009,0-0.4015808,0.18-0.4015808,0.3996v38.8527985
				c0,0.216301,0.1768799,0.3969994,0.4015808,0.3969994h11.0312195c0.2168884,0,0.3971863-0.1806984,0.3971863-0.3969994
				V16.7977009l33.096405,22.6790981c0.165802,0.1122017,0.3641968,0.1725998,0.5662842,0.1725998h15.7286072
				c0.3939209,0,0.5516052-0.5067978,0.2249146-0.728199L395.7915955,23.4859009z M368.694397,15.1448002V8.3408003
				c0-0.1110001,0.0896912-0.2013006,0.2032166-0.2013006H405.70401c0.1091003,0,0.2030945,0.0903006,0.2030945,0.2013006v6.8039999
				c0,0.1108999-0.0939941,0.1993999-0.2030945,0.1993999h-36.8063965
				C368.7840881,15.3442001,368.694397,15.2557001,368.694397,15.1448002z"/>
		</g>
		<g>
			<path class="st0" d="M130.5547028,0H75.3289032c-2.4312057,0-4.4045029,1.9699-4.4045029,4.4068999v30.8394985
				c0,2.4331017,1.9732971,4.4029999,4.4045029,4.4029999h55.2257996c0.2211914,0,0.3981934-0.1806984,0.3981934-0.3969994
				v-7.3453999c0-0.2174988-0.177002-0.3994999-0.3981934-0.3994999H82.9564972
				c-0.1123962,0-0.2018967-0.0879993-0.2018967-0.1989002v-7.2115993c0-0.1121006,0.0895004-0.2003002,0.2018967-0.2003002
				H127.5084c0.2213974,0,0.4017029-0.1802998,0.4017029-0.4036007v-7.3369999c0-0.2228994-0.1803055-0.3993998-0.4017029-0.3993998
				H82.9564972c-0.1123962,0-0.2018967-0.0937996-0.2018967-0.2010994V8.3408003
				c0-0.1110001,0.0895004-0.2013006,0.2018967-0.2013006h47.5982056c0.2211914,0,0.3981934-0.1795998,0.3981934-0.3971996V0.3996
				C130.9528961,0.18,130.7758942,0,130.5547028,0z"/>
		</g>
		<path class="st0" d="M0.3986,31.5104008c-0.2215,0-0.3986,0.1805-0.3986,0.3987999v7.3427982
			c0,0.219101,0.1771,0.3973999,0.3986,0.3973999c18.526001,0,37.0513992,0,55.5774002,0
			c2.4356995,0,4.4049988-1.9692001,4.4049988-4.4039001V0.3989c0-0.2184-0.1759987-0.3989-0.4016991-0.3989H48.9529991
			c-0.2215004,0-0.4030991,0.1805-0.4030991,0.3989v30.9090004c0,0.1123009-0.0886993,0.2011013-0.1977005,0.2011013
			C32.3674011,31.5090008,16.382,31.5104008,0.3986,31.5104008z"/>
	</g>
</g>
</svg>
