<svg width="152" height="30" viewBox="0 0 152 30" fill="none" xmlns="http://www.w3.org/2000/svg">
<path d="M98.5248 0.768799H79.1332C78.7098 0.768799 78.3075 0.938158 78.0112 1.23454C77.7148 1.53092 77.5454 1.93314 77.5454 2.35654V13.5766C77.5454 14 77.7148 14.4022 78.0112 14.7198C78.3075 15.0162 78.7098 15.1855 79.1332 15.1855H98.5248C98.9482 15.1855 99.3504 15.0162 99.6468 14.7198C99.9432 14.4234 100.113 14.0212 100.113 13.5766V2.35654C100.113 1.93314 99.9432 1.53092 99.6468 1.23454C99.3716 0.938158 98.9694 0.768799 98.5248 0.768799ZM81.8429 12.1582V3.7961V3.77493C81.8429 3.77493 81.8429 3.75376 81.8641 3.75376L81.8852 3.73259H81.9064H95.7727H95.7939C95.7939 3.73259 95.8151 3.73259 95.8151 3.75376L95.8362 3.77493V3.7961V12.137C95.8362 12.1582 95.8362 12.1794 95.8151 12.1794C95.7939 12.2006 95.7727 12.2006 95.7727 12.2006H81.9064H81.8852C81.8852 12.2006 81.8641 12.2006 81.8641 12.1794C81.8641 12.1582 81.8429 12.1582 81.8429 12.1582Z" fill="black"/>
<path d="M21.7838 0.768799H17.7827C17.7404 0.768799 17.698 0.789969 17.6769 0.811139C17.6557 0.832309 17.6345 0.874648 17.6345 0.916988V12.1582V12.1794C17.6345 12.1794 17.6345 12.2006 17.6134 12.2006L17.5922 12.2217H17.571H4.361C4.33983 12.2217 4.31866 12.2217 4.31866 12.2006C4.29749 12.1794 4.29749 12.1582 4.29749 12.1582V9.76601C4.29749 9.72367 4.27632 9.68133 4.25515 9.66016C4.23398 9.63899 4.19164 9.61782 4.1493 9.61782H0.148189C0.10585 9.61782 0.0635097 9.63899 0.0423398 9.66016C0.0211699 9.7025 0 9.72367 0 9.76601V13.5766C0 14 0.169359 14.4022 0.465738 14.7198C0.762117 15.0162 1.16435 15.1855 1.58774 15.1855H20.3231C20.7465 15.1855 21.1487 15.0162 21.4451 14.7198C21.7415 14.4234 21.9109 14.0212 21.9109 13.5766V0.916988C21.9109 0.895818 21.9109 0.874648 21.8897 0.853478C21.8897 0.832309 21.8685 0.811139 21.8685 0.811139C21.8474 0.789969 21.8474 0.789969 21.8262 0.789969C21.8262 0.768799 21.805 0.768799 21.7838 0.768799Z" fill="black"/>
<path d="M73.5655 0.768799H51.5488C51.5065 0.768799 51.4641 0.789969 51.443 0.811139C51.4218 0.832309 51.4006 0.874648 51.4006 0.916988V3.5844C51.4006 3.62674 51.4218 3.66908 51.443 3.69025C51.4641 3.71142 51.5065 3.73259 51.5488 3.73259H60.3343H60.3555C60.3555 3.73259 60.3767 3.73259 60.3767 3.75376L60.3978 3.77493V3.7961V15.0373C60.3978 15.0797 60.419 15.122 60.4402 15.1432C60.4614 15.1643 60.5037 15.1855 60.546 15.1855H64.5472C64.5895 15.1855 64.6318 15.1643 64.653 15.1432C64.6742 15.122 64.6953 15.0797 64.6953 15.0373V3.7961V3.77493C64.6953 3.77493 64.6953 3.75376 64.7165 3.75376L64.7377 3.73259H64.7589H73.5444C73.5867 3.73259 73.629 3.71142 73.6502 3.69025C73.6714 3.66908 73.6926 3.62674 73.6926 3.5844V0.916988C73.6926 0.874648 73.6714 0.832309 73.6502 0.811139C73.6502 0.789969 73.6079 0.768799 73.5655 0.768799Z" fill="black"/>
<path d="M125.644 0.768799H121.642C121.6 0.768799 121.558 0.789969 121.537 0.811139C121.515 0.832309 121.494 0.874648 121.494 0.916988V12.1582V12.1794C121.494 12.1794 121.494 12.2006 121.473 12.2006C121.452 12.2006 121.452 12.2217 121.452 12.2217H121.431H108.348H108.327C108.327 12.2217 108.305 12.2217 108.305 12.2006L108.284 12.1794V12.1582V0.916988C108.284 0.895818 108.284 0.874648 108.263 0.853478C108.263 0.832309 108.242 0.811139 108.221 0.811139C108.2 0.789969 108.2 0.789969 108.178 0.789969C108.157 0.789969 108.136 0.768799 108.115 0.768799H104.114C104.093 0.768799 104.071 0.768799 104.05 0.789969C104.029 0.789969 104.008 0.811139 104.008 0.811139C103.987 0.832309 103.987 0.832309 103.987 0.853478C103.987 0.874648 103.966 0.895818 103.966 0.916988V13.5766C103.966 14 104.135 14.4022 104.431 14.7198C104.728 15.0162 105.13 15.1855 105.553 15.1855H124.183C124.606 15.1855 125.008 15.0162 125.305 14.7198C125.601 14.4234 125.771 14.0212 125.771 13.5766V0.916988C125.771 0.874648 125.749 0.832309 125.728 0.811139C125.728 0.789969 125.686 0.768799 125.644 0.768799Z" fill="black"/>
<path d="M151.936 14.9315L143.765 9.32145H150.137C150.56 9.32145 150.963 9.15209 151.259 8.85571C151.555 8.55933 151.725 8.1571 151.725 7.7337V2.37771C151.725 2.16601 151.682 1.95431 151.598 1.76378C151.513 1.57326 151.407 1.38273 151.259 1.23454C151.111 1.08635 150.941 0.980498 150.73 0.895818C150.539 0.811139 150.327 0.768799 150.116 0.768799H129.771C129.75 0.768799 129.729 0.768799 129.708 0.789969C129.687 0.789969 129.666 0.811139 129.666 0.811139C129.644 0.832309 129.644 0.832309 129.644 0.853478C129.644 0.874648 129.623 0.895818 129.623 0.916988V15.0373C129.623 15.0797 129.644 15.122 129.666 15.1432C129.687 15.1643 129.729 15.1855 129.771 15.1855H133.773C133.815 15.1855 133.857 15.1643 133.878 15.1432C133.9 15.122 133.921 15.0797 133.921 15.0373V6.8869L145.945 15.1432C146.009 15.1855 146.072 15.2067 146.157 15.2067H151.873C151.894 15.2067 151.936 15.2067 151.958 15.1855C151.979 15.1643 152 15.1432 152 15.122C152 15.1008 152 15.0585 152 15.0373C151.979 14.9738 151.958 14.9315 151.936 14.9315ZM133.984 3.73259H147.364H147.385C147.385 3.73259 147.406 3.73259 147.406 3.75376L147.427 3.77493V3.7961V6.27298V6.29415C147.427 6.29415 147.427 6.31532 147.406 6.31532L147.385 6.33649H147.364H133.984H133.963C133.963 6.33649 133.942 6.33649 133.942 6.31532L133.921 6.29415V6.27298V3.7961V3.77493C133.921 3.77493 133.921 3.75376 133.942 3.75376L133.963 3.73259H133.984Z" fill="black"/>
<path d="M47.4205 3.73259C47.4628 3.73259 47.5052 3.71142 47.5263 3.69025C47.5475 3.66908 47.5687 3.62674 47.5687 3.5844V0.916988C47.5687 0.895818 47.5687 0.874648 47.5475 0.853478C47.5475 0.832309 47.5263 0.811139 47.5263 0.811139C47.5052 0.789969 47.5052 0.789969 47.484 0.789969C47.4628 0.768799 47.4417 0.768799 47.4205 0.768799H27.3726C27.1609 0.768799 26.9492 0.811139 26.7587 0.895818C26.5681 0.980498 26.3776 1.08635 26.2294 1.23454C26.0812 1.38273 25.9542 1.55209 25.8907 1.76378C25.806 1.95431 25.7637 2.16601 25.7637 2.37771V13.5978C25.7637 14.0212 25.933 14.4234 26.2294 14.7409C26.5258 15.0373 26.928 15.2067 27.3514 15.2067H47.4205C47.4628 15.2067 47.5052 15.1855 47.5263 15.1643C47.5475 15.1432 47.5687 15.1008 47.5687 15.0585V12.3699C47.5687 12.3487 47.5687 12.3276 47.5475 12.3064C47.5475 12.2852 47.5263 12.2641 47.5263 12.2641C47.5052 12.2429 47.5052 12.2429 47.484 12.2217C47.4628 12.2217 47.4417 12.2006 47.4205 12.2006H30.1247H30.1035C30.1035 12.2006 30.0823 12.2006 30.0823 12.1794L30.0612 12.1582V12.137V9.53314V9.51197C30.0612 9.51197 30.0612 9.4908 30.0823 9.4908C30.1035 9.4908 30.1035 9.46963 30.1035 9.46963H30.1247H46.2985C46.3197 9.46963 46.3408 9.46963 46.362 9.46963C46.3832 9.46963 46.4043 9.44846 46.4043 9.44846C46.4255 9.42729 46.4255 9.42729 46.4467 9.40612C46.4467 9.38495 46.4678 9.36378 46.4678 9.34262V6.65404C46.4678 6.63287 46.4678 6.6117 46.4467 6.59053C46.4467 6.56936 46.4255 6.54819 46.4043 6.54819C46.3832 6.52702 46.3832 6.52702 46.362 6.52702C46.3408 6.52702 46.3197 6.50585 46.2985 6.50585H30.1247C30.1035 6.50585 30.0823 6.50585 30.0823 6.48468C30.0612 6.46351 30.0612 6.44234 30.0612 6.44234V3.7961V3.77493C30.0612 3.77493 30.0612 3.75376 30.0823 3.75376L30.1035 3.73259H30.1247H47.4205Z" fill="black"/>
<path d="M23.2658 21.6847C23.6469 21.6847 24.028 21.7482 24.3667 21.9176C25.0229 22.2139 25.5522 22.7432 25.8486 23.3995C25.9968 23.7382 26.0814 24.0981 26.1026 24.4791C26.1026 24.6485 26.1238 24.839 26.1238 25.0931C26.1238 25.3259 26.1238 25.58 26.1238 25.834C26.1238 26.088 26.1238 26.3209 26.1238 26.5538C26.1238 26.7866 26.1238 26.9983 26.1026 27.1465C26.0814 27.5064 25.9968 27.8875 25.8486 28.2262C25.5522 28.8825 25.0229 29.4117 24.3667 29.7081C24.028 29.8563 23.6469 29.941 23.2658 29.941H18.1215C18.058 29.941 18.0369 29.8986 18.0369 29.8351V21.7905C18.0369 21.727 18.058 21.6847 18.1215 21.6847H23.2658ZM23.0965 28.5226C23.2658 28.5226 23.4352 28.4802 23.5834 28.3956C23.7316 28.3109 23.8586 28.205 23.9433 28.0568C24.0491 27.9087 24.1338 27.7605 24.1761 27.5911C24.2397 27.4217 24.2608 27.2524 24.282 27.083C24.282 26.9348 24.3032 26.7443 24.3032 26.5114C24.3032 26.2786 24.3032 26.0457 24.3032 25.8128C24.3032 25.58 24.3032 25.3259 24.3032 25.1142C24.3032 24.8814 24.3032 24.6908 24.282 24.5215C24.282 24.3521 24.2397 24.1827 24.1973 24.0134C24.155 23.844 24.0703 23.6958 23.9644 23.5477C23.8586 23.4206 23.7316 23.2936 23.6046 23.2089C23.4564 23.1243 23.287 23.0819 23.0965 23.0819H19.8363V28.5014H23.0965V28.5226Z" fill="black"/>
<path d="M32.2206 24.0346C32.2417 24.0346 32.2417 24.0346 32.2629 24.0346C32.2841 24.0346 32.2841 24.0558 32.3052 24.0558C32.3052 24.0558 32.3264 24.0769 32.3264 24.0981C32.3264 24.1193 32.3264 24.1193 32.3264 24.1404V25.2201C32.3264 25.2413 32.3264 25.2413 32.3264 25.2624C32.3264 25.2836 32.3052 25.2836 32.3052 25.3048C32.3052 25.3048 32.2841 25.326 32.2629 25.326C32.2417 25.326 32.2417 25.326 32.2206 25.326H29.8707C29.6802 25.326 29.4896 25.3471 29.2991 25.3895C29.1721 25.4106 29.0663 25.4741 28.9604 25.5588C28.8757 25.6223 28.8334 25.7282 28.8122 25.8129C28.791 25.9187 28.7699 26.0457 28.7699 26.1516V29.814C28.7699 29.8351 28.7699 29.8351 28.7699 29.8563C28.7699 29.8775 28.7487 29.8775 28.7487 29.8987C28.7487 29.8987 28.7275 29.9198 28.7064 29.9198C28.6852 29.9198 28.6852 29.9198 28.664 29.9198H27.2668C27.2456 29.9198 27.2456 29.9198 27.2245 29.9198C27.2033 29.9198 27.2033 29.8987 27.1821 29.8987C27.1821 29.8987 27.161 29.8775 27.161 29.8563C27.161 29.8351 27.161 29.8351 27.161 29.814V25.9822C27.1398 25.707 27.1821 25.4318 27.3091 25.1778C27.415 24.9237 27.5844 24.712 27.7961 24.5215C28.3888 24.1404 29.0663 23.9711 29.7649 24.0346H32.2206Z" fill="black"/>
<path d="M34.8458 21.6847C34.9093 21.6847 34.9517 21.7059 34.9517 21.7694V23.1031C34.9517 23.1243 34.9517 23.1243 34.9517 23.1454C34.9517 23.1666 34.9305 23.1666 34.9305 23.1878C34.9305 23.1878 34.9093 23.2089 34.8882 23.2089C34.867 23.2089 34.867 23.2089 34.8458 23.2089H33.4486C33.4275 23.2089 33.4275 23.2089 33.4063 23.2089C33.3851 23.2089 33.3851 23.1878 33.3639 23.1878C33.3639 23.1878 33.3428 23.1666 33.3428 23.1454C33.3428 23.1243 33.3428 23.1243 33.3428 23.1031V21.7694C33.3428 21.7059 33.3851 21.6847 33.4486 21.6847H34.8458ZM34.8458 24.0346C34.9093 24.0346 34.9517 24.0557 34.9517 24.1192V29.7928C34.9517 29.8139 34.9517 29.8139 34.9517 29.8351C34.9517 29.8563 34.9305 29.8563 34.9305 29.8775C34.9305 29.8775 34.9093 29.8986 34.8882 29.8986C34.867 29.8986 34.867 29.8986 34.8458 29.8986H33.4486C33.4275 29.8986 33.4275 29.8986 33.4063 29.8986C33.3851 29.8986 33.3851 29.8775 33.3639 29.8775C33.3639 29.8775 33.3428 29.8563 33.3428 29.8351C33.3428 29.8139 33.3428 29.8139 33.3428 29.7928V24.1192C33.3428 24.0557 33.3851 24.0346 33.4486 24.0346H34.8458Z" fill="black"/>
<path d="M43.102 24.0134C43.229 24.0134 43.2502 24.0557 43.1867 24.1616C42.8268 25.0084 42.4881 25.7493 42.1917 26.4268C42.0647 26.7231 41.9377 26.9983 41.8107 27.2947C41.6836 27.5699 41.5778 27.824 41.4719 28.0568C41.3661 28.2897 41.2814 28.4802 41.2179 28.6284C41.1544 28.7766 41.112 28.8825 41.0909 28.9036C41.0062 29.1153 40.8792 29.3059 40.731 29.4964C40.604 29.6446 40.4558 29.7504 40.2652 29.8139C40.1594 29.8563 40.0535 29.8775 39.9477 29.8986C39.8207 29.9198 39.6937 29.9198 39.5455 29.9198C39.4185 29.9198 39.2914 29.9198 39.1644 29.8986C39.0586 29.8775 38.9527 29.8563 38.868 29.8139C38.6987 29.7504 38.5293 29.6234 38.4023 29.4964C38.2541 29.327 38.1271 29.1153 38.0424 28.9036C38.0212 28.8825 37.9789 28.7766 37.9154 28.6284C37.8519 28.4802 37.7672 28.2897 37.6613 28.0568C37.5555 27.824 37.4497 27.5699 37.3226 27.2947C37.1956 27.0195 37.0686 26.7231 36.9416 26.4268C36.6452 25.7493 36.3065 24.9872 35.9466 24.1616C35.9254 24.0557 35.9466 24.0134 36.0524 24.0134H37.365C37.4285 24.0134 37.492 24.0346 37.5555 24.0557C37.619 24.0981 37.6613 24.1404 37.6825 24.2251L39.4396 28.205C39.4396 28.2262 39.4608 28.2262 39.4608 28.2474C39.4608 28.2685 39.482 28.2685 39.5031 28.2685C39.5243 28.2685 39.5455 28.2897 39.5666 28.2897C39.5878 28.2897 39.609 28.2897 39.6302 28.2685C39.6513 28.2685 39.6725 28.2474 39.6725 28.2474C39.6937 28.2262 39.6937 28.2262 39.6937 28.205L41.4508 24.2251C41.4719 24.1616 41.5143 24.0981 41.5778 24.0557C41.6413 24.0134 41.7048 23.9922 41.7683 24.0134H43.102Z" fill="black"/>
<path d="M49.0295 24.0345C49.3047 24.0345 49.5799 24.0769 49.8128 24.1827C50.0668 24.2886 50.2997 24.4368 50.469 24.6485C50.6596 24.839 50.7866 25.0507 50.8924 25.3047C50.9983 25.5376 51.0618 25.8128 51.0406 26.0668V27.0618C51.0406 27.21 50.9771 27.3582 50.8501 27.4641C50.7866 27.5276 50.7231 27.5699 50.6384 27.6123C50.5537 27.6546 50.469 27.6546 50.3844 27.6546H45.8117V27.8875C45.8117 28.078 45.8752 28.2473 45.981 28.3955C46.0445 28.4802 46.108 28.5226 46.1927 28.5649C46.2774 28.6072 46.3621 28.6284 46.4679 28.6284H50.5961C50.6596 28.6284 50.7019 28.6496 50.7019 28.7131V29.7928C50.7019 29.8139 50.7019 29.8139 50.7019 29.8351C50.7019 29.8563 50.6807 29.8563 50.6807 29.8774C50.6807 29.8774 50.6596 29.8986 50.6384 29.8986C50.6172 29.8986 50.6172 29.8986 50.5961 29.8986H46.2562C45.981 29.8986 45.6846 29.8351 45.4306 29.7081C45.1977 29.5811 44.9649 29.4117 44.7955 29.2212C44.6261 29.0095 44.4779 28.7766 44.3721 28.5437C44.2662 28.2897 44.2027 28.0357 44.1816 27.7604C44.1816 27.6546 44.1604 27.5276 44.1604 27.3794C44.1604 27.2524 44.1604 27.1042 44.1604 26.956C44.1604 26.8078 44.1604 26.6808 44.1604 26.5538C44.1604 26.4267 44.1604 26.2997 44.1816 26.1727C44.1816 25.8975 44.2451 25.6435 44.3509 25.3894C44.4568 25.1354 44.605 24.9025 44.7743 24.6908C44.9437 24.4791 45.1766 24.3309 45.4094 24.2039C45.6635 24.0769 45.9387 24.0134 46.235 24.0134H49.0295V24.0345ZM49.2835 26.4056C49.3047 26.4056 49.3259 26.4056 49.347 26.3844C49.3682 26.3844 49.3894 26.3632 49.4105 26.3421C49.4317 26.3209 49.4529 26.2997 49.4529 26.2785C49.4529 26.2574 49.474 26.2362 49.474 26.1939V26.0033C49.4952 25.9187 49.4952 25.8128 49.474 25.7281C49.4529 25.6435 49.4105 25.5588 49.347 25.4953C49.2835 25.4318 49.1988 25.3894 49.1142 25.3471C49.0295 25.3259 48.9448 25.3047 48.8389 25.3259H46.5314C46.4468 25.3259 46.3621 25.3259 46.2774 25.3682C46.1927 25.4106 46.1292 25.4529 46.0657 25.5164C45.9387 25.6435 45.8752 25.8128 45.8963 25.9822V26.3844H49.2835V26.4056Z" fill="black"/>
<path d="M66.029 21.6847C66.0502 21.6847 66.0713 21.6847 66.0925 21.7059C66.1137 21.7059 66.1137 21.727 66.1348 21.7482C66.1348 21.7694 66.1348 21.7905 66.1348 21.8117C66.1348 21.8329 66.1137 21.8541 66.1137 21.8541L61.668 26.7443V29.8351C61.668 29.8563 61.668 29.8563 61.668 29.8775C61.668 29.8986 61.6468 29.8986 61.6468 29.9198C61.6468 29.9198 61.6256 29.941 61.6045 29.941C61.5833 29.941 61.5833 29.941 61.5621 29.941H59.9744C59.9532 29.941 59.9532 29.941 59.932 29.941C59.9109 29.941 59.9109 29.9198 59.8897 29.9198C59.8897 29.9198 59.8685 29.8986 59.8685 29.8775C59.8685 29.8563 59.8685 29.8563 59.8685 29.8351V26.7231L55.444 21.8752C55.4229 21.8541 55.4229 21.8541 55.4229 21.8329C55.4229 21.8117 55.4229 21.7905 55.4229 21.7694C55.4229 21.7482 55.444 21.727 55.4652 21.727C55.4864 21.727 55.5075 21.7059 55.5287 21.7059H57.307C57.3705 21.7059 57.4552 21.7059 57.5187 21.7482C57.5822 21.7694 57.6457 21.8117 57.688 21.8752L60.5248 24.966C60.5883 25.0295 60.6942 25.0719 60.7788 25.0719C60.8847 25.0719 60.9694 25.0295 61.0329 24.966L63.8697 21.8752C63.912 21.8117 63.9755 21.7694 64.039 21.7482C64.1025 21.727 64.1872 21.7059 64.2507 21.7059L66.029 21.6847Z" fill="black"/>
<path d="M69.8397 23.9922C70.2419 23.9922 70.623 23.9922 71.0041 24.0134C71.3428 24.0134 71.6815 24.0769 72.0202 24.1827C72.2954 24.2674 72.5283 24.4156 72.74 24.6061C72.9305 24.7967 73.0787 25.0084 73.1634 25.2624H73.1422C73.2481 25.5164 73.3327 25.7917 73.3539 26.0669C73.3963 26.3632 73.4174 26.6808 73.3963 26.9772C73.3963 27.2735 73.3751 27.5699 73.3539 27.8663C73.3116 28.1415 73.2481 28.4167 73.1422 28.6708H73.1634C73.0787 28.9248 72.9305 29.1577 72.74 29.327C72.5283 29.5176 72.2954 29.6657 72.0202 29.7504C71.7027 29.8351 71.3639 29.8986 71.0252 29.9198C70.6442 29.941 70.2419 29.941 69.8185 29.941C69.4163 29.941 69.0141 29.941 68.633 29.9198C68.2943 29.8986 67.9768 29.8563 67.638 29.7504C67.3628 29.6657 67.13 29.5387 66.9183 29.3482C66.7066 29.1577 66.5584 28.9248 66.4737 28.6708C66.3678 28.4167 66.3043 28.1415 66.262 27.8663C66.2197 27.5699 66.1985 27.2735 66.1985 26.956C66.1985 26.6384 66.2197 26.3421 66.262 26.0245C66.3043 25.7493 66.3678 25.4741 66.4737 25.2201C66.5795 24.966 66.7277 24.7543 66.9183 24.5638C67.13 24.3733 67.3628 24.2251 67.638 24.1404C67.9768 24.0557 68.3155 23.9922 68.6542 23.971C69.0564 23.9922 69.4586 23.9922 69.8397 23.9922ZM69.8397 28.6919C70.1149 28.6919 70.369 28.6919 70.623 28.6708C70.8347 28.6708 71.0464 28.6284 71.2369 28.5861C71.3639 28.5437 71.4698 28.4591 71.5756 28.3532C71.6603 28.2474 71.7027 28.1415 71.745 28.0145C71.7873 27.8663 71.8085 27.6969 71.8297 27.5488C71.8508 27.3794 71.8509 27.1889 71.8509 26.9772C71.8509 26.7655 71.8508 26.5749 71.8297 26.3844C71.8297 26.2151 71.7873 26.0669 71.745 25.8975C71.7027 25.7705 71.6603 25.6435 71.5756 25.5376C71.491 25.4318 71.3851 25.3471 71.2369 25.3259C71.0252 25.2836 70.8135 25.2412 70.6018 25.2412C70.3478 25.2201 70.0937 25.2201 69.8397 25.2201C69.5645 25.2201 69.3105 25.2201 69.0564 25.2412C68.8447 25.2412 68.633 25.2836 68.4425 25.3259C68.3155 25.3471 68.2096 25.4318 68.1249 25.5376C68.0403 25.6435 67.9979 25.7705 67.9556 25.8975C67.9132 26.0669 67.8921 26.2151 67.8709 26.3844C67.8497 26.5538 67.8497 26.7443 67.8497 26.956C67.8497 27.1465 67.8497 27.3159 67.8709 27.5064C67.8921 27.6758 67.9132 27.8451 67.9556 27.9933C67.9979 28.1203 68.0403 28.2262 68.1249 28.332C68.2096 28.4379 68.3155 28.5014 68.4425 28.5649C68.633 28.6284 68.8447 28.6496 69.0564 28.6496C69.2893 28.6919 69.5645 28.6919 69.8397 28.6919Z" fill="black"/>
<path d="M80.8692 24.0346C80.8903 24.0346 80.8904 24.0346 80.9115 24.0346C80.9327 24.0346 80.9327 24.0558 80.9539 24.0558C80.9539 24.0558 80.975 24.0769 80.975 24.0981C80.975 24.1193 80.975 24.1193 80.975 24.1404V26.9137C80.975 27.2312 80.9539 27.5488 80.9115 27.8663C80.8904 28.1416 80.8268 28.4168 80.721 28.692C80.6151 28.946 80.4881 29.1577 80.2976 29.3482C80.0859 29.5388 79.8318 29.687 79.5566 29.7716C79.2814 29.8563 79.0062 29.9198 78.731 29.941C78.4558 29.9622 78.1171 29.9833 77.7149 29.9833C77.3126 29.9833 76.9739 29.9622 76.6775 29.941C76.4023 29.9198 76.1271 29.8563 75.8519 29.7716C75.5767 29.687 75.3227 29.5388 75.1321 29.3482C74.9416 29.1577 74.7934 28.946 74.6876 28.692C74.5817 28.4168 74.5182 28.1416 74.4759 27.8663C74.4335 27.5488 74.4124 27.2524 74.4124 26.9349V24.1616C74.4124 24.1404 74.4124 24.1404 74.4124 24.1193C74.4124 24.0981 74.4335 24.0981 74.4335 24.0769C74.4335 24.0769 74.4547 24.0558 74.4759 24.0558C74.497 24.0558 74.497 24.0558 74.5182 24.0558H75.9154C75.9366 24.0558 75.9366 24.0558 75.9578 24.0558C75.9789 24.0558 75.9789 24.0769 76.0001 24.0769C76.0001 24.0769 76.0213 24.0981 76.0213 24.1193C76.0213 24.1404 76.0213 24.1404 76.0213 24.1616V26.9349C76.0213 27.1254 76.0213 27.3159 76.0424 27.5065C76.0636 27.6758 76.0848 27.8452 76.1271 28.0145C76.1695 28.1416 76.2118 28.2474 76.2965 28.3533C76.3812 28.4591 76.487 28.5226 76.614 28.5861C76.7622 28.6496 76.9104 28.692 77.0798 28.7131C77.482 28.7343 77.9054 28.7343 78.3076 28.7131C78.4558 28.692 78.6252 28.6496 78.7734 28.5861C78.9004 28.5438 79.0062 28.4591 79.0909 28.3533C79.1756 28.2474 79.2179 28.1416 79.2603 28.0145C79.3026 27.8452 79.3238 27.697 79.3449 27.5276C79.3661 27.3371 79.3661 27.1466 79.3661 26.9349V24.1616C79.3661 24.1404 79.3661 24.1404 79.3661 24.1193C79.3661 24.0981 79.3873 24.0981 79.3873 24.0769C79.3873 24.0769 79.4085 24.0558 79.4296 24.0558C79.4508 24.0558 79.4508 24.0558 79.472 24.0558H80.8692V24.0346Z" fill="black"/>
<path d="M87.0719 24.0346C87.0931 24.0346 87.0931 24.0346 87.1142 24.0346C87.1354 24.0346 87.1354 24.0558 87.1566 24.0558C87.1566 24.0558 87.1777 24.0769 87.1777 24.0981C87.1777 24.1193 87.1777 24.1193 87.1777 24.1404V25.2201C87.1777 25.2413 87.1777 25.2413 87.1777 25.2624C87.1777 25.2836 87.1566 25.2836 87.1566 25.3048C87.1566 25.3048 87.1354 25.326 87.1142 25.326C87.0931 25.326 87.0931 25.326 87.0719 25.326H84.722C84.5315 25.326 84.341 25.3471 84.1504 25.3895C84.0234 25.4106 83.9176 25.4741 83.8117 25.5588C83.727 25.6223 83.6847 25.7282 83.6635 25.8129C83.6424 25.9187 83.6212 26.0457 83.6212 26.1516V29.814C83.6212 29.8351 83.6212 29.8351 83.6212 29.8563C83.6212 29.8775 83.6 29.8775 83.6 29.8987C83.6 29.8987 83.5789 29.9198 83.5577 29.9198C83.5365 29.9198 83.5365 29.9198 83.5153 29.9198H82.1181C82.097 29.9198 82.097 29.9198 82.0758 29.9198C82.0546 29.9198 82.0546 29.8987 82.0334 29.8987C82.0334 29.8987 82.0123 29.8775 82.0123 29.8563C82.0123 29.8351 82.0123 29.8351 82.0123 29.814V25.9822C81.9911 25.707 82.0335 25.4318 82.1605 25.1778C82.2875 24.9237 82.4357 24.712 82.6474 24.5215C83.2401 24.1404 83.9176 23.9711 84.6162 24.0346H87.0719Z" fill="black"/>
<path d="M105.68 24.0346C105.701 24.0346 105.701 24.0346 105.723 24.0346C105.744 24.0346 105.744 24.0558 105.765 24.0558C105.765 24.0558 105.786 24.0769 105.786 24.0981C105.786 24.1193 105.786 24.1193 105.786 24.1404V26.9137C105.786 27.2312 105.765 27.5488 105.723 27.8663C105.701 28.1416 105.638 28.4168 105.532 28.692C105.426 28.946 105.299 29.1577 105.109 29.3482C104.897 29.5388 104.643 29.687 104.368 29.7716C104.092 29.8563 103.817 29.9198 103.542 29.941C103.267 29.9622 102.928 29.9833 102.526 29.9833C102.124 29.9833 101.785 29.9622 101.489 29.941C101.213 29.9198 100.938 29.8563 100.663 29.7716C100.388 29.687 100.134 29.5388 99.9432 29.3482C99.7526 29.1577 99.6044 28.946 99.4986 28.692C99.3927 28.4168 99.3292 28.1416 99.2869 27.8663C99.2446 27.5488 99.2234 27.2524 99.2234 26.9349V24.1616C99.2234 24.1404 99.2234 24.1404 99.2234 24.1193C99.2234 24.0981 99.2446 24.0981 99.2446 24.0769C99.2446 24.0769 99.2657 24.0558 99.2869 24.0558C99.3081 24.0558 99.3081 24.0558 99.3292 24.0558H100.726C100.748 24.0558 100.748 24.0558 100.769 24.0558C100.79 24.0558 100.79 24.0769 100.811 24.0769C100.811 24.0769 100.832 24.0981 100.832 24.1193C100.832 24.1404 100.832 24.1404 100.832 24.1616V26.9349C100.832 27.1254 100.832 27.3159 100.853 27.5065C100.875 27.6758 100.896 27.8452 100.938 28.0145C100.98 28.1416 101.023 28.2474 101.108 28.3533C101.192 28.4591 101.298 28.5226 101.425 28.5861C101.573 28.6496 101.721 28.692 101.891 28.7131C102.293 28.7343 102.716 28.7343 103.119 28.7131C103.267 28.692 103.436 28.6496 103.584 28.5861C103.711 28.5438 103.817 28.4591 103.902 28.3533C103.987 28.2474 104.029 28.1416 104.071 28.0145C104.114 27.8452 104.135 27.697 104.156 27.5276C104.177 27.3371 104.177 27.1466 104.177 26.9349V24.1616C104.177 24.1404 104.177 24.1404 104.177 24.1193C104.177 24.0981 104.198 24.0981 104.198 24.0769C104.198 24.0769 104.219 24.0558 104.241 24.0558C104.262 24.0558 104.262 24.0558 104.283 24.0558H105.68V24.0346Z" fill="black"/>
<path d="M109.449 22.4892C109.47 22.4892 109.47 22.4892 109.491 22.4892C109.512 22.4892 109.512 22.5103 109.533 22.5103C109.533 22.5103 109.554 22.5315 109.554 22.5527C109.554 22.5738 109.554 22.5738 109.554 22.595V24.0346H112.18C112.201 24.0346 112.201 24.0346 112.222 24.0346C112.243 24.0346 112.243 24.0557 112.264 24.0557C112.264 24.0557 112.285 24.0769 112.285 24.0981C112.285 24.1192 112.285 24.1192 112.285 24.1404V25.2201C112.285 25.2412 112.285 25.2412 112.285 25.2624C112.285 25.2836 112.264 25.2836 112.264 25.3048C112.264 25.3048 112.243 25.3259 112.222 25.3259C112.201 25.3259 112.201 25.3259 112.18 25.3259H109.554V27.8663C109.554 28.0568 109.618 28.2474 109.724 28.3956C109.766 28.4802 109.851 28.5438 109.936 28.5861C110.02 28.6284 110.105 28.6496 110.211 28.6496H112.053C112.074 28.6496 112.074 28.6496 112.095 28.6496C112.116 28.6496 112.116 28.6708 112.137 28.6708C112.137 28.6708 112.158 28.6919 112.158 28.7131C112.158 28.7343 112.158 28.7343 112.158 28.7555V29.8351C112.158 29.8563 112.158 29.8563 112.158 29.8775C112.158 29.8986 112.137 29.8986 112.137 29.9198C112.137 29.9198 112.116 29.941 112.095 29.941C112.074 29.941 112.074 29.941 112.053 29.941H110.02C109.745 29.941 109.449 29.8775 109.195 29.7716C108.941 29.6658 108.729 29.5176 108.538 29.327C108.157 28.946 107.946 28.4379 107.967 27.8875V25.3471H106.951C106.929 25.3471 106.929 25.3471 106.908 25.3471C106.887 25.3471 106.887 25.3259 106.866 25.3259C106.866 25.3259 106.845 25.3048 106.845 25.2836C106.845 25.2624 106.845 25.2624 106.845 25.2412V24.1616C106.845 24.1404 106.845 24.1404 106.845 24.1192C106.845 24.0981 106.866 24.0981 106.866 24.0769C106.866 24.0769 106.887 24.0557 106.908 24.0557C106.929 24.0557 106.929 24.0557 106.951 24.0557H107.967V22.6162C107.967 22.595 107.967 22.595 107.967 22.5738C107.967 22.5527 107.988 22.5527 107.988 22.5315C107.988 22.5315 108.009 22.5103 108.03 22.5103C108.051 22.5103 108.051 22.5103 108.073 22.5103H109.449V22.4892Z" fill="black"/>
<path d="M119.737 24.0346C119.758 24.0346 119.758 24.0346 119.78 24.0346C119.801 24.0346 119.801 24.0558 119.822 24.0558C119.822 24.0558 119.843 24.0769 119.843 24.0981C119.843 24.1193 119.843 24.1193 119.843 24.1404V26.9137C119.843 27.2312 119.822 27.5488 119.801 27.8663C119.78 28.1416 119.716 28.4168 119.61 28.692C119.504 28.946 119.377 29.1577 119.187 29.3482C118.975 29.5388 118.721 29.687 118.446 29.7716C118.171 29.8563 117.895 29.9198 117.62 29.941C117.345 29.9622 117.006 29.9833 116.604 29.9833C116.202 29.9833 115.863 29.9622 115.567 29.941C115.291 29.9198 115.016 29.8563 114.741 29.7716C114.466 29.687 114.212 29.5388 114.021 29.3482C113.831 29.1577 113.683 28.946 113.577 28.692C113.471 28.4168 113.407 28.1416 113.365 27.8663C113.323 27.5488 113.302 27.2524 113.302 26.9349V24.1616C113.302 24.1404 113.302 24.1404 113.302 24.1193C113.302 24.0981 113.323 24.0981 113.323 24.0769C113.323 24.0769 113.344 24.0558 113.365 24.0558C113.386 24.0558 113.386 24.0558 113.407 24.0558H114.805C114.826 24.0558 114.826 24.0558 114.847 24.0558C114.868 24.0558 114.868 24.0769 114.889 24.0769C114.889 24.0769 114.91 24.0981 114.91 24.1193C114.91 24.1404 114.91 24.1404 114.91 24.1616V26.9349C114.91 27.1254 114.91 27.3159 114.932 27.5065C114.953 27.6758 114.974 27.8452 115.016 28.0145C115.059 28.1416 115.101 28.2474 115.186 28.3533C115.27 28.4591 115.376 28.5226 115.503 28.5861C115.651 28.6496 115.8 28.692 115.969 28.7131C116.371 28.7343 116.795 28.7343 117.197 28.7131C117.345 28.692 117.514 28.6496 117.663 28.5861C117.79 28.5438 117.895 28.4591 117.98 28.3533C118.065 28.2474 118.107 28.1416 118.149 28.0145C118.192 27.8452 118.213 27.697 118.234 27.5276C118.255 27.3371 118.255 27.1466 118.255 26.9349V24.1616C118.255 24.1404 118.255 24.1404 118.255 24.1193C118.255 24.0981 118.276 24.0981 118.276 24.0769C118.276 24.0769 118.298 24.0558 118.319 24.0558C118.34 24.0558 118.34 24.0558 118.361 24.0558H119.737V24.0346Z" fill="black"/>
<path d="M125.919 24.0346C125.94 24.0346 125.94 24.0346 125.961 24.0346C125.982 24.0346 125.982 24.0558 126.003 24.0558C126.003 24.0558 126.024 24.0769 126.024 24.0981C126.024 24.1193 126.024 24.1193 126.024 24.1404V25.2201C126.024 25.2413 126.024 25.2413 126.024 25.2624C126.024 25.2836 126.003 25.2836 126.003 25.3048C126.003 25.3048 125.982 25.326 125.961 25.326C125.94 25.326 125.94 25.326 125.919 25.326H123.569C123.378 25.326 123.188 25.3471 122.997 25.3895C122.87 25.4106 122.764 25.4741 122.658 25.5588C122.574 25.6223 122.531 25.7282 122.51 25.8129C122.489 25.9187 122.468 26.0457 122.468 26.1516V29.814C122.468 29.8351 122.468 29.8351 122.468 29.8563C122.468 29.8775 122.447 29.8775 122.447 29.8987C122.447 29.8987 122.426 29.9198 122.404 29.9198C122.383 29.9198 122.383 29.9198 122.362 29.9198H120.965C120.944 29.9198 120.944 29.9198 120.922 29.9198C120.901 29.9198 120.901 29.8987 120.88 29.8987C120.88 29.8987 120.859 29.8775 120.859 29.8563C120.859 29.8351 120.859 29.8351 120.859 29.814V25.9822C120.838 25.707 120.88 25.4318 121.007 25.1778C121.113 24.9237 121.282 24.712 121.494 24.5215C122.087 24.1404 122.764 23.9711 123.463 24.0346H125.919Z" fill="black"/>
<path d="M131.846 24.0345C132.122 24.0345 132.397 24.0769 132.63 24.1827C132.884 24.2886 133.117 24.4368 133.286 24.6485C133.476 24.839 133.603 25.0507 133.709 25.3047C133.815 25.5376 133.879 25.8128 133.857 26.0668V27.0618C133.857 27.21 133.794 27.3582 133.667 27.4641C133.603 27.5276 133.54 27.5699 133.455 27.6123C133.371 27.6546 133.286 27.6546 133.201 27.6546H128.629V27.8875C128.629 28.078 128.692 28.2473 128.798 28.3955C128.861 28.4802 128.925 28.5226 129.01 28.5649C129.094 28.6072 129.179 28.6284 129.285 28.6284H133.413C133.476 28.6284 133.519 28.6496 133.519 28.7131V29.7928C133.519 29.8139 133.519 29.8139 133.519 29.8351C133.519 29.8563 133.498 29.8563 133.498 29.8774C133.498 29.8774 133.476 29.8986 133.455 29.8986C133.434 29.8986 133.434 29.8986 133.413 29.8986H129.137C128.861 29.8986 128.565 29.8351 128.311 29.7081C128.078 29.5811 127.845 29.4117 127.676 29.2212C127.507 29.0095 127.358 28.7766 127.252 28.5437C127.147 28.2897 127.083 28.0357 127.062 27.7604C127.062 27.6546 127.041 27.5276 127.041 27.3794C127.041 27.2524 127.041 27.1042 127.041 26.956C127.041 26.8078 127.041 26.6808 127.041 26.5538C127.041 26.4267 127.041 26.2997 127.062 26.1727C127.062 25.8975 127.125 25.6435 127.231 25.3894C127.337 25.1354 127.485 24.9025 127.655 24.6908C127.824 24.4791 128.057 24.3309 128.29 24.2039C128.544 24.0769 128.819 24.0134 129.115 24.0134H131.846V24.0345ZM132.1 26.4056C132.122 26.4056 132.143 26.4056 132.164 26.3844C132.185 26.3844 132.206 26.3632 132.227 26.3421C132.249 26.3209 132.27 26.2997 132.27 26.2785C132.27 26.2574 132.291 26.2362 132.291 26.1939V26.0033C132.312 25.9187 132.312 25.8128 132.291 25.7281C132.27 25.6435 132.227 25.5588 132.164 25.4953C132.1 25.4318 132.016 25.3894 131.931 25.3471C131.846 25.3259 131.762 25.3047 131.656 25.3259H129.348C129.264 25.3259 129.179 25.3259 129.094 25.3682C129.01 25.4106 128.946 25.4529 128.883 25.5164C128.756 25.6435 128.692 25.8128 128.713 25.9822V26.3844H132.1V26.4056Z" fill="black"/>
<path d="M14.1838 26.4479H0V26.956H14.1838V26.4479Z" fill="black"/>
<path d="M98.1438 21.6847L91.814 21.6635V29.7716C91.814 29.8563 91.8351 29.8986 91.8986 29.8986H93.5076C93.5711 29.8986 93.6134 29.8563 93.6134 29.7716V26.4903H97.9321C98.0379 26.4903 98.0803 26.4479 98.0803 26.3844V25.1777C98.0803 25.1142 98.0379 25.0931 97.9321 25.0931L93.5922 25.1142V23.1031H98.1438C98.1649 23.1031 98.1649 23.1031 98.1861 23.1031C98.2073 23.1031 98.2073 23.0819 98.2284 23.0819C98.2284 23.0819 98.2496 23.0608 98.2496 23.0396C98.2496 23.0184 98.2496 23.0184 98.2496 22.9972V21.7906C98.2496 21.7694 98.2496 21.7694 98.2496 21.7482C98.2496 21.727 98.2284 21.727 98.2284 21.7059C98.2284 21.7059 98.2073 21.6847 98.1861 21.6847C98.1649 21.6847 98.1438 21.6847 98.1438 21.6847Z" fill="black"/>
<path d="M151.915 26.4479H137.731V26.956H151.915V26.4479Z" fill="black"/>
</svg>
